<svg xmlns="http://www.w3.org/2000/svg" xmlns:xlink="http://www.w3.org/1999/xlink" width="500" zoomAndPan="magnify" viewBox="0 0 375 374.999991" height="500" preserveAspectRatio="xMidYMid meet" version="1.0"><defs><clipPath id="id1"><path d="M 25.5625 25.5625 L 349.5625 25.5625 L 349.5625 349.5625 L 25.5625 349.5625 Z M 25.5625 25.5625 " clip-rule="nonzero"/></clipPath><clipPath id="id2"><path d="M 126.355469 25.929688 L 126.496094 25.945312 L 126.777344 25.984375 L 127.175781 26.089844 L 127.3125 26.140625 L 127.4375 26.1875 L 127.558594 26.246094 L 127.683594 26.308594 L 127.804688 26.371094 L 127.914062 26.441406 L 128.035156 26.511719 L 128.140625 26.589844 L 128.253906 26.675781 L 128.351562 26.757812 L 128.457031 26.851562 L 128.554688 26.941406 L 128.648438 27.039062 L 128.738281 27.144531 L 128.820312 27.242188 L 128.90625 27.355469 L 128.984375 27.460938 L 129.054688 27.582031 L 129.125 27.695312 L 129.1875 27.8125 L 129.25 27.9375 L 129.308594 28.058594 L 129.355469 28.183594 L 129.40625 28.320312 L 129.511719 28.71875 L 129.53125 28.859375 L 129.554688 29 L 129.566406 29.140625 L 129.582031 29.28125 L 129.582031 61.054688 L 175.265625 61.054688 L 175.265625 29.28125 L 175.277344 29.140625 L 175.292969 29 L 175.3125 28.859375 L 175.335938 28.71875 L 175.441406 28.320312 L 175.488281 28.183594 L 175.539062 28.058594 L 175.59375 27.9375 L 175.65625 27.8125 L 175.722656 27.695312 L 175.792969 27.582031 L 175.863281 27.460938 L 175.9375 27.355469 L 176.023438 27.242188 L 176.109375 27.144531 L 176.199219 27.039062 L 176.289062 26.941406 L 176.390625 26.851562 L 176.496094 26.757812 L 176.59375 26.675781 L 176.707031 26.589844 L 176.8125 26.511719 L 176.929688 26.441406 L 177.042969 26.371094 L 177.164062 26.308594 L 177.40625 26.1875 L 177.535156 26.140625 L 177.667969 26.089844 L 177.933594 26.019531 L 178.070312 25.984375 L 178.351562 25.945312 L 178.632812 25.914062 L 196.496094 25.914062 L 196.777344 25.945312 L 197.058594 25.984375 L 197.324219 26.054688 L 197.460938 26.089844 L 197.59375 26.140625 L 197.71875 26.1875 L 197.839844 26.246094 L 197.964844 26.308594 L 198.085938 26.371094 L 198.199219 26.441406 L 198.316406 26.511719 L 198.421875 26.589844 L 198.535156 26.675781 L 198.632812 26.757812 L 198.738281 26.851562 L 198.835938 26.941406 L 198.929688 27.039062 L 199.019531 27.144531 L 199.105469 27.242188 L 199.1875 27.355469 L 199.265625 27.460938 L 199.335938 27.582031 L 199.40625 27.695312 L 199.46875 27.8125 L 199.53125 27.9375 L 199.589844 28.058594 L 199.636719 28.183594 L 199.6875 28.320312 L 199.792969 28.71875 L 199.8125 28.859375 L 199.835938 29 L 199.847656 29.140625 L 199.863281 29.28125 L 199.863281 61.054688 L 245.546875 61.054688 L 245.546875 29.28125 L 245.5625 29.140625 L 245.574219 29 L 245.597656 28.859375 L 245.617188 28.71875 L 245.722656 28.320312 L 245.769531 28.183594 L 245.820312 28.058594 L 245.875 27.9375 L 245.941406 27.8125 L 246.003906 27.695312 L 246.074219 27.582031 L 246.144531 27.460938 L 246.222656 27.355469 L 246.304688 27.242188 L 246.390625 27.144531 L 246.480469 27.039062 L 246.574219 26.941406 L 246.671875 26.851562 L 246.777344 26.757812 L 246.875 26.675781 L 246.988281 26.589844 L 247.09375 26.511719 L 247.210938 26.441406 L 247.324219 26.371094 L 247.445312 26.308594 L 247.570312 26.246094 L 247.691406 26.1875 L 247.816406 26.140625 L 247.949219 26.089844 L 248.082031 26.054688 L 248.21875 26.019531 L 248.351562 25.984375 L 248.632812 25.945312 L 248.914062 25.914062 L 266.777344 25.914062 L 267.058594 25.945312 L 267.339844 25.984375 L 267.472656 26.019531 L 267.609375 26.054688 L 267.742188 26.089844 L 267.875 26.140625 L 268 26.1875 L 268.121094 26.246094 L 268.246094 26.308594 L 268.367188 26.371094 L 268.480469 26.441406 L 268.597656 26.511719 L 268.703125 26.589844 L 268.816406 26.675781 L 268.914062 26.757812 L 269.019531 26.851562 L 269.121094 26.941406 L 269.210938 27.039062 L 269.300781 27.144531 L 269.386719 27.242188 L 269.46875 27.355469 L 269.546875 27.460938 L 269.617188 27.582031 L 269.6875 27.695312 L 269.75 27.8125 L 269.816406 27.9375 L 269.871094 28.058594 L 269.921875 28.183594 L 269.96875 28.320312 L 270.074219 28.71875 L 270.097656 28.859375 L 270.117188 29 L 270.132812 29.140625 L 270.144531 29.28125 L 270.144531 61.054688 L 277.910156 61.054688 L 279.402344 61.085938 L 280.878906 61.175781 L 282.339844 61.324219 L 283.78125 61.527344 L 285.199219 61.792969 L 286.597656 62.109375 L 287.984375 62.476562 L 289.339844 62.898438 L 290.675781 63.375 L 291.988281 63.894531 L 293.269531 64.472656 L 294.527344 65.089844 L 295.757812 65.757812 L 296.957031 66.476562 L 298.132812 67.234375 L 299.269531 68.035156 L 300.375 68.878906 L 301.441406 69.757812 L 302.480469 70.683594 L 303.480469 71.648438 L 304.441406 72.644531 L 305.371094 73.6875 L 306.25 74.753906 L 307.09375 75.859375 L 307.894531 76.996094 L 308.652344 78.171875 L 309.371094 79.371094 L 310.039062 80.601562 L 310.65625 81.859375 L 311.230469 83.140625 L 311.753906 84.453125 L 312.230469 85.789062 L 312.652344 87.144531 L 313.015625 88.53125 L 313.332031 89.929688 L 313.601562 91.347656 L 313.804688 92.789062 L 313.953125 94.25 L 314.042969 95.726562 L 314.070312 97.214844 L 314.070312 104.984375 L 345.847656 104.984375 L 345.988281 104.996094 L 346.128906 105.011719 L 346.269531 105.03125 L 346.410156 105.054688 L 346.808594 105.160156 L 346.941406 105.207031 L 347.070312 105.257812 L 347.1875 105.3125 L 347.316406 105.375 L 347.433594 105.4375 L 347.546875 105.507812 L 347.667969 105.578125 L 347.773438 105.65625 L 347.882812 105.742188 L 347.984375 105.824219 L 348.089844 105.917969 L 348.1875 106.007812 L 348.277344 106.105469 L 348.367188 106.210938 L 348.453125 106.3125 L 348.539062 106.421875 L 348.613281 106.527344 L 348.683594 106.648438 L 348.753906 106.761719 L 348.820312 106.878906 L 348.882812 107.007812 L 348.9375 107.125 L 348.988281 107.253906 L 349.035156 107.386719 L 349.140625 107.785156 L 349.164062 107.925781 L 349.183594 108.066406 L 349.199219 108.207031 L 349.210938 108.347656 L 349.210938 126.214844 L 349.199219 126.355469 L 349.183594 126.496094 L 349.164062 126.636719 L 349.140625 126.777344 L 349.035156 127.175781 L 348.988281 127.3125 L 348.9375 127.4375 L 348.882812 127.558594 L 348.820312 127.683594 L 348.753906 127.804688 L 348.683594 127.914062 L 348.613281 128.035156 L 348.539062 128.140625 L 348.453125 128.253906 L 348.367188 128.351562 L 348.277344 128.457031 L 348.1875 128.554688 L 348.089844 128.648438 L 347.984375 128.738281 L 347.882812 128.820312 L 347.773438 128.90625 L 347.667969 128.984375 L 347.546875 129.054688 L 347.433594 129.125 L 347.316406 129.1875 L 347.1875 129.25 L 347.070312 129.308594 L 346.941406 129.355469 L 346.808594 129.40625 L 346.410156 129.511719 L 346.269531 129.53125 L 346.128906 129.554688 L 345.988281 129.566406 L 345.847656 129.582031 L 314.070312 129.582031 L 314.070312 175.265625 L 345.847656 175.265625 L 345.988281 175.277344 L 346.128906 175.292969 L 346.269531 175.3125 L 346.410156 175.335938 L 346.808594 175.441406 L 346.941406 175.488281 L 347.070312 175.539062 L 347.1875 175.59375 L 347.316406 175.65625 L 347.433594 175.722656 L 347.546875 175.792969 L 347.667969 175.863281 L 347.773438 175.9375 L 347.882812 176.023438 L 347.984375 176.109375 L 348.089844 176.199219 L 348.1875 176.289062 L 348.277344 176.390625 L 348.367188 176.496094 L 348.453125 176.59375 L 348.539062 176.707031 L 348.613281 176.8125 L 348.683594 176.929688 L 348.753906 177.042969 L 348.820312 177.164062 L 348.882812 177.289062 L 348.9375 177.40625 L 348.988281 177.535156 L 349.035156 177.667969 L 349.105469 177.933594 L 349.140625 178.070312 L 349.164062 178.210938 L 349.183594 178.351562 L 349.199219 178.492188 L 349.210938 178.632812 L 349.210938 196.496094 L 349.199219 196.636719 L 349.183594 196.777344 L 349.164062 196.917969 L 349.140625 197.058594 L 349.070312 197.324219 L 349.035156 197.460938 L 348.988281 197.59375 L 348.9375 197.71875 L 348.882812 197.839844 L 348.820312 197.964844 L 348.753906 198.085938 L 348.683594 198.199219 L 348.613281 198.316406 L 348.539062 198.421875 L 348.453125 198.535156 L 348.367188 198.632812 L 348.277344 198.738281 L 348.1875 198.835938 L 348.089844 198.929688 L 347.984375 199.019531 L 347.882812 199.105469 L 347.773438 199.1875 L 347.667969 199.265625 L 347.546875 199.335938 L 347.433594 199.40625 L 347.316406 199.46875 L 347.1875 199.53125 L 347.070312 199.589844 L 346.941406 199.636719 L 346.808594 199.6875 L 346.410156 199.792969 L 346.269531 199.8125 L 346.128906 199.835938 L 345.988281 199.847656 L 345.847656 199.863281 L 314.070312 199.863281 L 314.070312 245.546875 L 345.847656 245.546875 L 345.988281 245.5625 L 346.128906 245.574219 L 346.269531 245.597656 L 346.410156 245.617188 L 346.808594 245.722656 L 346.941406 245.769531 L 347.070312 245.820312 L 347.1875 245.875 L 347.316406 245.941406 L 347.433594 246.003906 L 347.546875 246.074219 L 347.667969 246.144531 L 347.773438 246.222656 L 347.882812 246.304688 L 347.984375 246.390625 L 348.089844 246.480469 L 348.1875 246.574219 L 348.277344 246.671875 L 348.367188 246.777344 L 348.453125 246.875 L 348.539062 246.988281 L 348.613281 247.09375 L 348.683594 247.210938 L 348.753906 247.324219 L 348.820312 247.445312 L 348.882812 247.570312 L 348.9375 247.691406 L 348.988281 247.816406 L 349.035156 247.949219 L 349.070312 248.082031 L 349.105469 248.21875 L 349.140625 248.351562 L 349.164062 248.492188 L 349.183594 248.632812 L 349.199219 248.773438 L 349.210938 248.914062 L 349.210938 266.777344 L 349.199219 266.917969 L 349.183594 267.058594 L 349.164062 267.199219 L 349.140625 267.339844 L 349.105469 267.472656 L 349.070312 267.609375 L 349.035156 267.742188 L 348.988281 267.875 L 348.9375 268 L 348.882812 268.121094 L 348.820312 268.246094 L 348.753906 268.367188 L 348.683594 268.480469 L 348.613281 268.597656 L 348.539062 268.703125 L 348.453125 268.816406 L 348.367188 268.914062 L 348.277344 269.019531 L 348.1875 269.121094 L 348.089844 269.210938 L 347.984375 269.300781 L 347.882812 269.386719 L 347.773438 269.46875 L 347.667969 269.546875 L 347.546875 269.617188 L 347.433594 269.6875 L 347.316406 269.75 L 347.1875 269.816406 L 347.070312 269.871094 L 346.941406 269.921875 L 346.808594 269.96875 L 346.410156 270.074219 L 346.269531 270.097656 L 346.128906 270.117188 L 345.988281 270.132812 L 345.847656 270.144531 L 314.070312 270.144531 L 314.070312 277.910156 L 314.042969 279.402344 L 313.953125 280.878906 L 313.804688 282.339844 L 313.601562 283.78125 L 313.332031 285.199219 L 313.015625 286.597656 L 312.652344 287.984375 L 312.230469 289.339844 L 311.753906 290.675781 L 311.230469 291.988281 L 310.65625 293.269531 L 310.039062 294.527344 L 309.371094 295.757812 L 308.652344 296.957031 L 307.894531 298.132812 L 307.09375 299.269531 L 306.25 300.375 L 305.371094 301.441406 L 304.441406 302.480469 L 303.480469 303.480469 L 302.480469 304.441406 L 301.441406 305.371094 L 300.375 306.25 L 299.269531 307.09375 L 298.132812 307.894531 L 296.957031 308.652344 L 295.757812 309.371094 L 294.527344 310.039062 L 293.269531 310.65625 L 291.988281 311.230469 L 290.675781 311.753906 L 289.339844 312.230469 L 287.984375 312.652344 L 286.597656 313.015625 L 285.199219 313.332031 L 283.78125 313.601562 L 282.339844 313.804688 L 280.878906 313.953125 L 279.402344 314.042969 L 277.910156 314.070312 L 270.144531 314.070312 L 270.144531 345.847656 L 270.132812 345.988281 L 270.117188 346.128906 L 270.097656 346.269531 L 270.074219 346.410156 L 269.96875 346.808594 L 269.921875 346.941406 L 269.871094 347.070312 L 269.816406 347.1875 L 269.75 347.316406 L 269.6875 347.433594 L 269.617188 347.546875 L 269.546875 347.667969 L 269.46875 347.773438 L 269.386719 347.882812 L 269.300781 347.984375 L 269.210938 348.089844 L 269.121094 348.1875 L 269.019531 348.277344 L 268.914062 348.367188 L 268.816406 348.453125 L 268.703125 348.539062 L 268.597656 348.613281 L 268.480469 348.683594 L 268.367188 348.753906 L 268.246094 348.820312 L 268.121094 348.882812 L 268 348.9375 L 267.875 348.988281 L 267.742188 349.035156 L 267.609375 349.070312 L 267.472656 349.105469 L 267.339844 349.140625 L 267.199219 349.164062 L 267.058594 349.183594 L 266.917969 349.199219 L 266.777344 349.210938 L 248.914062 349.210938 L 248.773438 349.199219 L 248.632812 349.183594 L 248.492188 349.164062 L 248.351562 349.140625 L 248.21875 349.105469 L 248.082031 349.070312 L 247.949219 349.035156 L 247.816406 348.988281 L 247.691406 348.9375 L 247.570312 348.882812 L 247.445312 348.820312 L 247.324219 348.753906 L 247.210938 348.683594 L 247.09375 348.613281 L 246.988281 348.539062 L 246.875 348.453125 L 246.777344 348.367188 L 246.671875 348.277344 L 246.574219 348.1875 L 246.480469 348.089844 L 246.390625 347.984375 L 246.304688 347.882812 L 246.222656 347.773438 L 246.144531 347.667969 L 246.074219 347.546875 L 246.003906 347.433594 L 245.941406 347.316406 L 245.875 347.1875 L 245.820312 347.070312 L 245.769531 346.941406 L 245.722656 346.808594 L 245.617188 346.410156 L 245.597656 346.269531 L 245.574219 346.128906 L 245.5625 345.988281 L 245.546875 345.847656 L 245.546875 314.070312 L 199.863281 314.070312 L 199.863281 345.847656 L 199.847656 345.988281 L 199.835938 346.128906 L 199.8125 346.269531 L 199.792969 346.410156 L 199.6875 346.808594 L 199.636719 346.941406 L 199.589844 347.070312 L 199.53125 347.1875 L 199.46875 347.316406 L 199.40625 347.433594 L 199.335938 347.546875 L 199.265625 347.667969 L 199.1875 347.773438 L 199.105469 347.882812 L 199.019531 347.984375 L 198.929688 348.089844 L 198.835938 348.1875 L 198.738281 348.277344 L 198.632812 348.367188 L 198.535156 348.453125 L 198.421875 348.539062 L 198.316406 348.613281 L 198.199219 348.683594 L 198.085938 348.753906 L 197.964844 348.820312 L 197.839844 348.882812 L 197.71875 348.9375 L 197.59375 348.988281 L 197.460938 349.035156 L 197.324219 349.070312 L 197.058594 349.140625 L 196.917969 349.164062 L 196.777344 349.183594 L 196.636719 349.199219 L 196.496094 349.210938 L 178.632812 349.210938 L 178.492188 349.199219 L 178.351562 349.183594 L 178.210938 349.164062 L 178.070312 349.140625 L 177.933594 349.105469 L 177.667969 349.035156 L 177.535156 348.988281 L 177.40625 348.9375 L 177.289062 348.882812 L 177.164062 348.820312 L 177.042969 348.753906 L 176.929688 348.683594 L 176.8125 348.613281 L 176.707031 348.539062 L 176.59375 348.453125 L 176.496094 348.367188 L 176.390625 348.277344 L 176.289062 348.1875 L 176.199219 348.089844 L 176.109375 347.984375 L 176.023438 347.882812 L 175.9375 347.773438 L 175.863281 347.667969 L 175.792969 347.546875 L 175.722656 347.433594 L 175.65625 347.316406 L 175.59375 347.1875 L 175.539062 347.070312 L 175.488281 346.941406 L 175.441406 346.808594 L 175.335938 346.410156 L 175.3125 346.269531 L 175.292969 346.128906 L 175.277344 345.988281 L 175.265625 345.847656 L 175.265625 314.070312 L 129.582031 314.070312 L 129.582031 345.847656 L 129.566406 345.988281 L 129.554688 346.128906 L 129.53125 346.269531 L 129.511719 346.410156 L 129.40625 346.808594 L 129.355469 346.941406 L 129.308594 347.070312 L 129.25 347.1875 L 129.1875 347.316406 L 129.125 347.433594 L 129.054688 347.546875 L 128.984375 347.667969 L 128.90625 347.773438 L 128.820312 347.882812 L 128.738281 347.984375 L 128.648438 348.089844 L 128.554688 348.1875 L 128.457031 348.277344 L 128.351562 348.367188 L 128.253906 348.453125 L 128.140625 348.539062 L 128.035156 348.613281 L 127.914062 348.683594 L 127.804688 348.753906 L 127.683594 348.820312 L 127.558594 348.882812 L 127.4375 348.9375 L 127.3125 348.988281 L 127.175781 349.035156 L 126.777344 349.140625 L 126.636719 349.164062 L 126.496094 349.183594 L 126.355469 349.199219 L 126.214844 349.210938 L 108.347656 349.210938 L 108.207031 349.199219 L 108.066406 349.183594 L 107.925781 349.164062 L 107.785156 349.140625 L 107.386719 349.035156 L 107.253906 348.988281 L 107.125 348.9375 L 107.007812 348.882812 L 106.878906 348.820312 L 106.761719 348.753906 L 106.648438 348.683594 L 106.527344 348.613281 L 106.421875 348.539062 L 106.3125 348.453125 L 106.210938 348.367188 L 106.105469 348.277344 L 106.007812 348.1875 L 105.917969 348.089844 L 105.824219 347.984375 L 105.742188 347.882812 L 105.65625 347.773438 L 105.578125 347.667969 L 105.507812 347.546875 L 105.4375 347.433594 L 105.375 347.316406 L 105.3125 347.1875 L 105.257812 347.070312 L 105.207031 346.941406 L 105.160156 346.808594 L 105.054688 346.410156 L 105.03125 346.269531 L 105.011719 346.128906 L 104.996094 345.988281 L 104.984375 345.847656 L 104.984375 314.070312 L 97.214844 314.070312 L 95.726562 314.042969 L 94.25 313.953125 L 92.789062 313.804688 L 91.347656 313.601562 L 89.929688 313.332031 L 88.53125 313.015625 L 87.144531 312.652344 L 85.789062 312.230469 L 84.453125 311.753906 L 83.140625 311.230469 L 81.859375 310.65625 L 80.601562 310.039062 L 79.371094 309.371094 L 78.171875 308.652344 L 76.996094 307.894531 L 75.859375 307.09375 L 74.753906 306.25 L 73.6875 305.371094 L 72.644531 304.441406 L 71.648438 303.480469 L 70.683594 302.480469 L 69.757812 301.441406 L 68.878906 300.375 L 68.035156 299.269531 L 67.234375 298.132812 L 66.476562 296.957031 L 65.757812 295.757812 L 65.089844 294.527344 L 64.472656 293.269531 L 63.894531 291.988281 L 63.375 290.675781 L 62.898438 289.339844 L 62.476562 287.984375 L 62.109375 286.597656 L 61.792969 285.199219 L 61.527344 283.78125 L 61.324219 282.339844 L 61.175781 280.878906 L 61.085938 279.402344 L 61.054688 277.910156 L 61.054688 270.144531 L 29.28125 270.144531 L 29.140625 270.132812 L 29 270.117188 L 28.859375 270.097656 L 28.71875 270.074219 L 28.320312 269.96875 L 28.183594 269.921875 L 28.058594 269.871094 L 27.9375 269.816406 L 27.8125 269.75 L 27.695312 269.6875 L 27.582031 269.617188 L 27.460938 269.546875 L 27.355469 269.46875 L 27.242188 269.386719 L 27.144531 269.300781 L 27.039062 269.210938 L 26.941406 269.121094 L 26.851562 269.019531 L 26.757812 268.914062 L 26.675781 268.816406 L 26.589844 268.703125 L 26.511719 268.597656 L 26.441406 268.480469 L 26.371094 268.367188 L 26.308594 268.246094 L 26.246094 268.121094 L 26.1875 268 L 26.140625 267.875 L 26.089844 267.742188 L 26.054688 267.609375 L 26.019531 267.472656 L 25.984375 267.339844 L 25.945312 267.058594 L 25.914062 266.777344 L 25.914062 248.914062 L 25.945312 248.632812 L 25.984375 248.351562 L 26.019531 248.21875 L 26.054688 248.082031 L 26.089844 247.949219 L 26.140625 247.816406 L 26.1875 247.691406 L 26.246094 247.570312 L 26.308594 247.445312 L 26.371094 247.324219 L 26.441406 247.210938 L 26.511719 247.09375 L 26.589844 246.988281 L 26.675781 246.875 L 26.757812 246.777344 L 26.851562 246.671875 L 26.941406 246.574219 L 27.039062 246.480469 L 27.144531 246.390625 L 27.242188 246.304688 L 27.355469 246.222656 L 27.460938 246.144531 L 27.582031 246.074219 L 27.695312 246.003906 L 27.8125 245.941406 L 27.9375 245.875 L 28.058594 245.820312 L 28.183594 245.769531 L 28.320312 245.722656 L 28.71875 245.617188 L 28.859375 245.597656 L 29 245.574219 L 29.140625 245.5625 L 29.28125 245.546875 L 61.054688 245.546875 L 61.054688 199.863281 L 29.28125 199.863281 L 29.140625 199.847656 L 29 199.835938 L 28.859375 199.8125 L 28.71875 199.792969 L 28.320312 199.6875 L 28.183594 199.636719 L 28.058594 199.589844 L 27.9375 199.53125 L 27.8125 199.46875 L 27.695312 199.40625 L 27.582031 199.335938 L 27.460938 199.265625 L 27.355469 199.1875 L 27.242188 199.105469 L 27.144531 199.019531 L 27.039062 198.929688 L 26.941406 198.835938 L 26.851562 198.738281 L 26.757812 198.632812 L 26.675781 198.535156 L 26.589844 198.421875 L 26.511719 198.316406 L 26.441406 198.199219 L 26.371094 198.085938 L 26.308594 197.964844 L 26.246094 197.839844 L 26.1875 197.71875 L 26.140625 197.59375 L 26.089844 197.460938 L 26.054688 197.324219 L 25.984375 197.058594 L 25.945312 196.777344 L 25.914062 196.496094 L 25.914062 178.632812 L 25.945312 178.351562 L 25.984375 178.070312 L 26.019531 177.933594 L 26.089844 177.667969 L 26.140625 177.535156 L 26.1875 177.40625 L 26.308594 177.164062 L 26.371094 177.042969 L 26.441406 176.929688 L 26.511719 176.8125 L 26.589844 176.707031 L 26.675781 176.59375 L 26.757812 176.496094 L 26.851562 176.390625 L 26.941406 176.289062 L 27.039062 176.199219 L 27.144531 176.109375 L 27.242188 176.023438 L 27.355469 175.9375 L 27.460938 175.863281 L 27.582031 175.792969 L 27.695312 175.722656 L 27.8125 175.65625 L 27.9375 175.59375 L 28.058594 175.539062 L 28.183594 175.488281 L 28.320312 175.441406 L 28.71875 175.335938 L 28.859375 175.3125 L 29 175.292969 L 29.140625 175.277344 L 29.28125 175.265625 L 61.054688 175.265625 L 61.054688 129.582031 L 29.28125 129.582031 L 29.140625 129.566406 L 29 129.554688 L 28.859375 129.53125 L 28.71875 129.511719 L 28.320312 129.40625 L 28.183594 129.355469 L 28.058594 129.308594 L 27.9375 129.25 L 27.8125 129.1875 L 27.695312 129.125 L 27.582031 129.054688 L 27.460938 128.984375 L 27.355469 128.90625 L 27.242188 128.820312 L 27.144531 128.738281 L 27.039062 128.648438 L 26.941406 128.554688 L 26.851562 128.457031 L 26.757812 128.351562 L 26.675781 128.253906 L 26.589844 128.140625 L 26.511719 128.035156 L 26.441406 127.914062 L 26.371094 127.804688 L 26.308594 127.683594 L 26.246094 127.558594 L 26.1875 127.4375 L 26.140625 127.3125 L 26.089844 127.175781 L 25.984375 126.777344 L 25.945312 126.496094 L 25.914062 126.214844 L 25.914062 108.347656 L 25.945312 108.066406 L 25.984375 107.785156 L 26.089844 107.386719 L 26.140625 107.253906 L 26.1875 107.125 L 26.246094 107.007812 L 26.308594 106.878906 L 26.371094 106.761719 L 26.441406 106.648438 L 26.511719 106.527344 L 26.589844 106.421875 L 26.675781 106.3125 L 26.757812 106.210938 L 26.851562 106.105469 L 26.941406 106.007812 L 27.039062 105.917969 L 27.144531 105.824219 L 27.242188 105.742188 L 27.355469 105.65625 L 27.460938 105.578125 L 27.582031 105.507812 L 27.695312 105.4375 L 27.8125 105.375 L 27.9375 105.3125 L 28.058594 105.257812 L 28.183594 105.207031 L 28.320312 105.160156 L 28.71875 105.054688 L 28.859375 105.03125 L 29 105.011719 L 29.140625 104.996094 L 29.28125 104.984375 L 61.054688 104.984375 L 61.054688 97.214844 L 61.085938 95.726562 L 61.175781 94.25 L 61.324219 92.789062 L 61.527344 91.347656 L 61.792969 89.929688 L 62.109375 88.53125 L 62.476562 87.144531 L 62.898438 85.789062 L 63.375 84.453125 L 63.894531 83.140625 L 64.472656 81.859375 L 65.089844 80.601562 L 65.757812 79.371094 L 66.476562 78.171875 L 67.234375 76.996094 L 68.035156 75.859375 L 68.878906 74.753906 L 69.757812 73.6875 L 70.683594 72.644531 L 71.648438 71.648438 L 72.644531 70.683594 L 73.6875 69.757812 L 74.753906 68.878906 L 75.859375 68.035156 L 76.996094 67.234375 L 78.171875 66.476562 L 79.371094 65.757812 L 80.601562 65.089844 L 81.859375 64.472656 L 83.140625 63.894531 L 84.453125 63.375 L 85.789062 62.898438 L 87.144531 62.476562 L 88.53125 62.109375 L 89.929688 61.792969 L 91.347656 61.527344 L 92.789062 61.324219 L 94.25 61.175781 L 95.726562 61.085938 L 97.214844 61.054688 L 104.984375 61.054688 L 104.984375 29.28125 L 104.996094 29.140625 L 105.011719 29 L 105.03125 28.859375 L 105.054688 28.71875 L 105.160156 28.320312 L 105.207031 28.183594 L 105.257812 28.058594 L 105.3125 27.9375 L 105.375 27.8125 L 105.4375 27.695312 L 105.507812 27.582031 L 105.578125 27.460938 L 105.65625 27.355469 L 105.742188 27.242188 L 105.824219 27.144531 L 105.917969 27.039062 L 106.007812 26.941406 L 106.105469 26.851562 L 106.210938 26.757812 L 106.3125 26.675781 L 106.421875 26.589844 L 106.527344 26.511719 L 106.648438 26.441406 L 106.761719 26.371094 L 106.878906 26.308594 L 107.007812 26.246094 L 107.125 26.1875 L 107.253906 26.140625 L 107.386719 26.089844 L 107.785156 25.984375 L 108.066406 25.945312 L 108.347656 25.914062 L 126.214844 25.914062 Z M 252.574219 342.183594 L 263.117188 342.183594 L 263.117188 314.070312 L 252.574219 314.070312 Z M 182.292969 342.183594 L 192.835938 342.183594 L 192.835938 314.070312 L 182.292969 314.070312 Z M 112.011719 342.183594 L 122.554688 342.183594 L 122.554688 314.070312 L 112.011719 314.070312 Z M 96.015625 68.113281 L 94.828125 68.183594 L 93.652344 68.300781 L 92.492188 68.472656 L 91.347656 68.683594 L 90.214844 68.933594 L 89.105469 69.238281 L 88.015625 69.574219 L 86.941406 69.960938 L 85.878906 70.382812 L 84.847656 70.847656 L 83.835938 71.34375 L 82.84375 71.886719 L 81.882812 72.464844 L 80.9375 73.066406 L 80.019531 73.714844 L 79.132812 74.394531 L 78.269531 75.105469 L 77.433594 75.851562 L 76.628906 76.628906 L 75.851562 77.433594 L 75.105469 78.269531 L 74.394531 79.132812 L 73.714844 80.019531 L 73.066406 80.9375 L 72.464844 81.882812 L 71.886719 82.84375 L 71.34375 83.835938 L 70.847656 84.847656 L 70.382812 85.878906 L 69.960938 86.941406 L 69.574219 88.015625 L 69.238281 89.105469 L 68.933594 90.214844 L 68.683594 91.347656 L 68.472656 92.492188 L 68.300781 93.652344 L 68.183594 94.828125 L 68.113281 96.015625 L 68.085938 97.214844 L 68.085938 277.910156 L 68.113281 279.113281 L 68.183594 280.300781 L 68.300781 281.476562 L 68.472656 282.632812 L 68.683594 283.78125 L 68.933594 284.910156 L 69.238281 286.023438 L 69.574219 287.113281 L 69.960938 288.1875 L 70.382812 289.246094 L 70.847656 290.28125 L 71.34375 291.292969 L 71.886719 292.285156 L 72.464844 293.246094 L 73.066406 294.1875 L 73.714844 295.109375 L 74.394531 295.996094 L 75.105469 296.859375 L 75.851562 297.695312 L 76.628906 298.496094 L 77.433594 299.277344 L 78.269531 300.023438 L 79.132812 300.730469 L 80.019531 301.414062 L 80.9375 302.058594 L 81.882812 302.664062 L 82.84375 303.242188 L 83.835938 303.78125 L 84.847656 304.28125 L 85.878906 304.746094 L 86.941406 305.167969 L 88.015625 305.554688 L 89.105469 305.890625 L 90.214844 306.191406 L 91.347656 306.445312 L 92.492188 306.65625 L 93.652344 306.824219 L 94.828125 306.945312 L 96.015625 307.015625 L 97.214844 307.042969 L 277.910156 307.042969 L 279.113281 307.015625 L 280.300781 306.945312 L 281.476562 306.824219 L 282.632812 306.65625 L 283.78125 306.445312 L 284.910156 306.191406 L 286.023438 305.890625 L 287.113281 305.554688 L 288.1875 305.167969 L 289.246094 304.746094 L 290.28125 304.28125 L 291.292969 303.78125 L 292.285156 303.242188 L 293.246094 302.664062 L 294.1875 302.058594 L 295.109375 301.414062 L 295.996094 300.730469 L 296.859375 300.023438 L 297.695312 299.277344 L 298.496094 298.496094 L 299.277344 297.695312 L 300.023438 296.859375 L 300.730469 295.996094 L 301.414062 295.109375 L 302.058594 294.1875 L 302.664062 293.246094 L 303.242188 292.285156 L 303.78125 291.292969 L 304.28125 290.28125 L 304.746094 289.246094 L 305.167969 288.1875 L 305.554688 287.113281 L 305.890625 286.023438 L 306.191406 284.910156 L 306.445312 283.78125 L 306.65625 282.632812 L 306.824219 281.476562 L 306.945312 280.300781 L 307.015625 279.113281 L 307.042969 277.910156 L 307.042969 97.214844 L 307.015625 96.015625 L 306.945312 94.828125 L 306.824219 93.652344 L 306.65625 92.492188 L 306.445312 91.347656 L 306.191406 90.214844 L 305.890625 89.105469 L 305.554688 88.015625 L 305.167969 86.941406 L 304.746094 85.878906 L 304.28125 84.847656 L 303.78125 83.835938 L 303.242188 82.84375 L 302.664062 81.882812 L 302.058594 80.9375 L 301.414062 80.019531 L 300.730469 79.132812 L 300.023438 78.269531 L 299.277344 77.433594 L 298.496094 76.628906 L 297.695312 75.851562 L 296.859375 75.105469 L 295.996094 74.394531 L 295.109375 73.714844 L 294.1875 73.066406 L 293.246094 72.464844 L 292.285156 71.886719 L 291.292969 71.34375 L 290.28125 70.847656 L 289.246094 70.382812 L 288.1875 69.960938 L 287.113281 69.574219 L 286.023438 69.238281 L 284.910156 68.933594 L 283.78125 68.683594 L 282.632812 68.472656 L 281.476562 68.300781 L 280.300781 68.183594 L 279.113281 68.113281 L 277.910156 68.085938 L 97.214844 68.085938 Z M 254.667969 96.21875 L 255.703125 96.28125 L 256.722656 96.386719 L 257.734375 96.535156 L 258.722656 96.71875 L 259.707031 96.941406 L 260.671875 97.203125 L 261.621094 97.496094 L 262.554688 97.828125 L 263.46875 98.191406 L 264.367188 98.59375 L 265.246094 99.03125 L 266.109375 99.5 L 266.949219 100 L 267.769531 100.527344 L 268.5625 101.089844 L 269.335938 101.679688 L 270.082031 102.296875 L 270.8125 102.945312 L 271.507812 103.617188 L 272.183594 104.316406 L 272.828125 105.046875 L 273.449219 105.789062 L 274.039062 106.5625 L 274.601562 107.359375 L 275.128906 108.179688 L 275.628906 109.015625 L 276.097656 109.882812 L 276.535156 110.757812 L 276.933594 111.660156 L 277.300781 112.574219 L 277.628906 113.507812 L 277.925781 114.457031 L 278.183594 115.417969 L 278.410156 116.402344 L 278.59375 117.394531 L 278.742188 118.40625 L 278.847656 119.425781 L 278.910156 120.457031 L 278.929688 121.5 L 278.929688 253.628906 L 278.910156 254.667969 L 278.847656 255.703125 L 278.742188 256.722656 L 278.59375 257.734375 L 278.410156 258.722656 L 278.183594 259.707031 L 277.925781 260.671875 L 277.628906 261.621094 L 277.300781 262.554688 L 276.933594 263.46875 L 276.535156 264.367188 L 276.097656 265.246094 L 275.628906 266.109375 L 275.128906 266.949219 L 274.601562 267.769531 L 274.039062 268.5625 L 273.449219 269.335938 L 272.828125 270.082031 L 272.183594 270.8125 L 271.507812 271.507812 L 270.8125 272.183594 L 270.082031 272.828125 L 269.335938 273.449219 L 268.5625 274.039062 L 267.769531 274.601562 L 266.949219 275.128906 L 266.109375 275.628906 L 265.246094 276.097656 L 264.367188 276.535156 L 263.46875 276.933594 L 262.554688 277.300781 L 261.621094 277.628906 L 260.671875 277.925781 L 259.707031 278.183594 L 258.722656 278.410156 L 257.734375 278.59375 L 256.722656 278.742188 L 255.703125 278.847656 L 254.667969 278.910156 L 253.628906 278.929688 L 121.5 278.929688 L 120.457031 278.910156 L 119.425781 278.847656 L 118.40625 278.742188 L 117.394531 278.59375 L 116.402344 278.410156 L 115.417969 278.183594 L 114.457031 277.925781 L 113.507812 277.628906 L 112.574219 277.300781 L 111.660156 276.933594 L 110.757812 276.535156 L 109.882812 276.097656 L 109.015625 275.628906 L 108.179688 275.128906 L 107.359375 274.601562 L 106.5625 274.039062 L 105.789062 273.449219 L 105.046875 272.828125 L 104.316406 272.183594 L 103.617188 271.507812 L 102.945312 270.8125 L 102.296875 270.082031 L 101.679688 269.335938 L 101.089844 268.5625 L 100.527344 267.769531 L 100 266.949219 L 99.5 266.109375 L 99.03125 265.246094 L 98.59375 264.367188 L 98.191406 263.46875 L 97.828125 262.554688 L 97.496094 261.621094 L 97.203125 260.671875 L 96.941406 259.707031 L 96.71875 258.722656 L 96.535156 257.734375 L 96.386719 256.722656 L 96.28125 255.703125 L 96.21875 254.667969 L 96.199219 253.628906 L 96.199219 121.5 L 96.21875 120.457031 L 96.28125 119.425781 L 96.386719 118.40625 L 96.535156 117.394531 L 96.71875 116.402344 L 96.941406 115.417969 L 97.203125 114.457031 L 97.496094 113.507812 L 97.828125 112.574219 L 98.191406 111.660156 L 98.59375 110.757812 L 99.03125 109.882812 L 99.5 109.015625 L 100 108.179688 L 100.527344 107.359375 L 101.089844 106.5625 L 101.679688 105.789062 L 102.296875 105.046875 L 102.945312 104.316406 L 103.617188 103.617188 L 104.316406 102.945312 L 105.046875 102.296875 L 105.789062 101.679688 L 106.5625 101.089844 L 107.359375 100.527344 L 108.179688 100 L 109.015625 99.5 L 109.882812 99.03125 L 110.757812 98.59375 L 111.660156 98.191406 L 112.574219 97.828125 L 113.507812 97.496094 L 114.457031 97.203125 L 115.417969 96.941406 L 116.402344 96.71875 L 117.394531 96.535156 L 118.40625 96.386719 L 119.425781 96.28125 L 120.457031 96.21875 L 121.5 96.199219 L 253.628906 96.199219 Z M 120.746094 103.238281 L 120 103.289062 L 119.265625 103.359375 L 118.53125 103.464844 L 117.816406 103.597656 L 117.105469 103.757812 L 116.410156 103.941406 L 115.722656 104.160156 L 115.046875 104.398438 L 114.386719 104.660156 L 113.738281 104.953125 L 113.101562 105.265625 L 112.480469 105.601562 L 111.871094 105.964844 L 111.28125 106.347656 L 110.703125 106.753906 L 110.148438 107.175781 L 109.605469 107.625 L 109.078125 108.089844 L 108.582031 108.582031 L 108.089844 109.078125 L 107.625 109.605469 L 107.175781 110.148438 L 106.753906 110.703125 L 106.347656 111.28125 L 105.964844 111.871094 L 105.601562 112.480469 L 105.265625 113.101562 L 104.953125 113.738281 L 104.660156 114.386719 L 104.398438 115.046875 L 104.160156 115.722656 L 103.941406 116.410156 L 103.757812 117.105469 L 103.597656 117.816406 L 103.464844 118.53125 L 103.359375 119.265625 L 103.289062 120 L 103.238281 120.746094 L 103.226562 121.5 L 103.226562 253.628906 L 103.238281 254.382812 L 103.289062 255.125 L 103.359375 255.863281 L 103.464844 256.59375 L 103.597656 257.3125 L 103.757812 258.023438 L 103.941406 258.71875 L 104.160156 259.40625 L 104.398438 260.082031 L 104.660156 260.742188 L 104.953125 261.386719 L 105.265625 262.027344 L 105.601562 262.644531 L 105.964844 263.257812 L 106.347656 263.847656 L 106.753906 264.425781 L 107.175781 264.980469 L 107.625 265.519531 L 108.089844 266.046875 L 108.582031 266.546875 L 109.078125 267.039062 L 109.605469 267.503906 L 110.148438 267.953125 L 110.703125 268.375 L 111.28125 268.78125 L 111.871094 269.160156 L 112.480469 269.527344 L 113.101562 269.863281 L 113.738281 270.171875 L 114.386719 270.46875 L 115.046875 270.730469 L 115.722656 270.96875 L 116.410156 271.183594 L 117.105469 271.367188 L 117.816406 271.53125 L 118.53125 271.664062 L 119.265625 271.769531 L 120 271.839844 L 120.746094 271.886719 L 121.5 271.902344 L 253.628906 271.902344 L 254.382812 271.886719 L 255.125 271.839844 L 255.863281 271.769531 L 256.59375 271.664062 L 257.3125 271.53125 L 258.023438 271.367188 L 258.71875 271.183594 L 259.40625 270.96875 L 260.082031 270.730469 L 260.742188 270.46875 L 261.386719 270.171875 L 262.027344 269.863281 L 262.644531 269.527344 L 263.257812 269.160156 L 263.847656 268.78125 L 264.425781 268.375 L 264.980469 267.953125 L 265.519531 267.503906 L 266.046875 267.039062 L 266.546875 266.546875 L 267.039062 266.046875 L 267.503906 265.519531 L 267.953125 264.980469 L 268.375 264.425781 L 268.78125 263.847656 L 269.160156 263.257812 L 269.527344 262.644531 L 269.863281 262.027344 L 270.171875 261.386719 L 270.46875 260.742188 L 270.730469 260.082031 L 270.96875 259.40625 L 271.183594 258.71875 L 271.367188 258.023438 L 271.53125 257.3125 L 271.664062 256.59375 L 271.769531 255.863281 L 271.839844 255.125 L 271.886719 254.382812 L 271.902344 253.628906 L 271.902344 121.5 L 271.886719 120.746094 L 271.839844 120 L 271.769531 119.265625 L 271.664062 118.53125 L 271.53125 117.816406 L 271.367188 117.105469 L 271.183594 116.410156 L 270.96875 115.722656 L 270.730469 115.046875 L 270.46875 114.386719 L 270.171875 113.738281 L 269.863281 113.101562 L 269.527344 112.480469 L 269.160156 111.871094 L 268.78125 111.28125 L 268.375 110.703125 L 267.953125 110.148438 L 267.503906 109.605469 L 267.039062 109.078125 L 266.546875 108.582031 L 266.046875 108.089844 L 265.519531 107.625 L 264.980469 107.175781 L 264.425781 106.753906 L 263.847656 106.347656 L 263.257812 105.964844 L 262.644531 105.601562 L 262.027344 105.265625 L 261.386719 104.953125 L 260.742188 104.660156 L 260.082031 104.398438 L 259.40625 104.160156 L 258.71875 103.941406 L 258.023438 103.757812 L 257.3125 103.597656 L 256.59375 103.464844 L 255.863281 103.359375 L 255.125 103.289062 L 254.382812 103.238281 L 253.628906 103.226562 L 121.5 103.226562 Z M 314.070312 263.117188 L 342.183594 263.117188 L 342.183594 252.574219 L 314.070312 252.574219 Z M 32.945312 263.117188 L 61.054688 263.117188 L 61.054688 252.574219 L 32.945312 252.574219 Z M 249.488281 153.246094 L 249.628906 153.257812 L 249.769531 153.28125 L 249.910156 153.300781 L 250.042969 153.335938 L 250.179688 153.371094 L 250.3125 153.40625 L 250.445312 153.457031 L 250.570312 153.503906 L 250.691406 153.5625 L 250.816406 153.625 L 250.9375 153.6875 L 251.050781 153.757812 L 251.167969 153.828125 L 251.273438 153.90625 L 251.386719 153.988281 L 251.484375 154.074219 L 251.589844 154.164062 L 251.6875 154.257812 L 251.78125 154.355469 L 251.871094 154.460938 L 251.957031 154.558594 L 252.039062 154.671875 L 252.117188 154.777344 L 252.1875 154.898438 L 252.257812 155.007812 L 252.320312 155.128906 L 252.386719 155.253906 L 252.441406 155.375 L 252.492188 155.5 L 252.539062 155.636719 L 252.644531 156.035156 L 252.667969 156.175781 L 252.6875 156.316406 L 252.703125 156.457031 L 252.714844 156.597656 L 252.714844 203.039062 L 252.722656 203.074219 L 252.722656 203.242188 L 252.730469 203.277344 L 252.730469 203.730469 L 252.738281 203.769531 L 252.730469 203.8125 L 252.730469 204.261719 L 252.722656 204.304688 L 252.722656 204.464844 L 252.714844 204.507812 L 252.714844 204.585938 L 252.667969 205.367188 L 252.589844 206.140625 L 252.476562 206.898438 L 252.335938 207.644531 L 252.167969 208.382812 L 251.96875 209.113281 L 251.746094 209.820312 L 251.492188 210.523438 L 251.210938 211.214844 L 250.910156 211.886719 L 250.578125 212.550781 L 250.226562 213.195312 L 249.847656 213.820312 L 249.445312 214.433594 L 249.027344 215.03125 L 248.582031 215.605469 L 248.117188 216.160156 L 247.625 216.703125 L 247.121094 217.230469 L 246.59375 217.730469 L 246.050781 218.207031 L 245.492188 218.671875 L 244.90625 219.105469 L 244.308594 219.527344 L 243.699219 219.921875 L 243.066406 220.289062 L 242.417969 220.636719 L 241.765625 220.953125 L 241.089844 221.257812 L 240.410156 221.523438 L 239.707031 221.769531 L 238.996094 221.988281 L 238.28125 222.179688 L 237.546875 222.339844 L 236.804688 222.472656 L 236.058594 222.578125 L 235.300781 222.65625 L 234.535156 222.699219 L 233.761719 222.710938 L 232.972656 222.699219 L 232.199219 222.648438 L 231.425781 222.5625 L 230.667969 222.453125 L 229.914062 222.3125 L 229.179688 222.144531 L 228.453125 221.945312 L 227.738281 221.722656 L 227.035156 221.476562 L 226.34375 221.195312 L 225.679688 220.890625 L 225.015625 220.5625 L 224.371094 220.210938 L 223.746094 219.832031 L 223.132812 219.429688 L 222.535156 219.007812 L 221.960938 218.566406 L 221.398438 218.09375 L 220.855469 217.609375 L 220.335938 217.101562 L 219.835938 216.578125 L 219.351562 216.027344 L 218.894531 215.464844 L 218.453125 214.890625 L 218.039062 214.292969 L 217.644531 213.671875 L 217.273438 213.046875 L 216.925781 212.402344 L 216.605469 211.742188 L 216.308594 211.074219 L 216.035156 210.382812 L 215.796875 209.6875 L 215.578125 208.980469 L 215.382812 208.253906 L 215.21875 207.523438 L 215.085938 206.785156 L 214.980469 206.035156 L 214.910156 205.273438 L 214.863281 204.507812 L 214.847656 203.734375 L 214.867188 202.957031 L 214.867188 156.597656 L 214.898438 156.316406 L 214.9375 156.035156 L 215.042969 155.636719 L 215.09375 155.5 L 215.140625 155.375 L 215.199219 155.253906 L 215.261719 155.128906 L 215.324219 155.007812 L 215.394531 154.898438 L 215.464844 154.777344 L 215.542969 154.671875 L 215.628906 154.558594 L 215.710938 154.460938 L 215.804688 154.355469 L 215.894531 154.257812 L 215.992188 154.164062 L 216.097656 154.074219 L 216.195312 153.988281 L 216.308594 153.90625 L 216.414062 153.828125 L 216.535156 153.757812 L 216.648438 153.6875 L 216.765625 153.625 L 216.894531 153.5625 L 217.011719 153.503906 L 217.136719 153.457031 L 217.273438 153.40625 L 217.671875 153.300781 L 217.8125 153.28125 L 217.953125 153.257812 L 218.09375 153.246094 L 218.234375 153.230469 L 218.53125 153.230469 L 218.671875 153.246094 L 218.8125 153.257812 L 218.953125 153.28125 L 219.09375 153.300781 L 219.492188 153.40625 L 219.625 153.457031 L 219.753906 153.503906 L 219.871094 153.5625 L 220 153.625 L 220.117188 153.6875 L 220.230469 153.757812 L 220.351562 153.828125 L 220.457031 153.90625 L 220.566406 153.988281 L 220.667969 154.074219 L 220.773438 154.164062 L 220.871094 154.257812 L 220.960938 154.355469 L 221.054688 154.460938 L 221.136719 154.558594 L 221.222656 154.671875 L 221.300781 154.777344 L 221.371094 154.898438 L 221.441406 155.007812 L 221.503906 155.128906 L 221.566406 155.253906 L 221.621094 155.375 L 221.671875 155.5 L 221.722656 155.636719 L 221.828125 156.035156 L 221.867188 156.316406 L 221.898438 156.597656 L 221.898438 203.019531 L 221.890625 203.054688 L 221.890625 203.179688 L 221.882812 203.214844 L 221.882812 203.988281 L 221.890625 204.023438 L 221.890625 204.152344 L 221.898438 204.1875 L 221.898438 204.25 L 221.933594 204.742188 L 221.988281 205.226562 L 222.066406 205.695312 L 222.15625 206.167969 L 222.269531 206.632812 L 222.394531 207.089844 L 222.542969 207.539062 L 222.703125 207.972656 L 222.886719 208.410156 L 223.085938 208.832031 L 223.296875 209.238281 L 223.519531 209.648438 L 223.765625 210.03125 L 224.019531 210.417969 L 224.292969 210.792969 L 224.574219 211.152344 L 224.871094 211.496094 L 225.179688 211.832031 L 225.503906 212.164062 L 225.839844 212.472656 L 226.183594 212.765625 L 226.542969 213.054688 L 226.90625 213.328125 L 227.289062 213.582031 L 227.679688 213.828125 L 228.074219 214.054688 L 228.480469 214.269531 L 228.898438 214.46875 L 229.324219 214.652344 L 229.753906 214.8125 L 230.195312 214.96875 L 230.648438 215.09375 L 231.105469 215.210938 L 231.558594 215.304688 L 232.03125 215.386719 L 232.503906 215.445312 L 232.980469 215.488281 L 233.457031 215.507812 L 233.949219 215.515625 L 234.441406 215.5 L 234.925781 215.457031 L 235.410156 215.402344 L 235.890625 215.332031 L 236.359375 215.234375 L 236.824219 215.128906 L 237.28125 214.996094 L 237.722656 214.847656 L 238.167969 214.6875 L 238.59375 214.511719 L 239.015625 214.3125 L 239.433594 214.101562 L 239.832031 213.871094 L 240.226562 213.632812 L 240.605469 213.371094 L 240.976562 213.105469 L 241.335938 212.824219 L 241.6875 212.519531 L 242.027344 212.210938 L 242.347656 211.886719 L 242.65625 211.558594 L 242.960938 211.207031 L 243.242188 210.855469 L 243.515625 210.484375 L 243.777344 210.101562 L 244.015625 209.714844 L 244.246094 209.316406 L 244.457031 208.910156 L 244.652344 208.492188 L 244.835938 208.070312 L 245.003906 207.636719 L 245.152344 207.195312 L 245.285156 206.75 L 245.398438 206.292969 L 245.496094 205.832031 L 245.574219 205.367188 L 245.636719 204.894531 L 245.679688 204.417969 L 245.703125 203.933594 L 245.703125 203.449219 L 245.6875 202.957031 L 245.6875 156.597656 L 245.703125 156.457031 L 245.714844 156.316406 L 245.734375 156.175781 L 245.757812 156.035156 L 245.863281 155.636719 L 245.910156 155.5 L 245.960938 155.375 L 246.015625 155.253906 L 246.082031 155.128906 L 246.144531 155.007812 L 246.214844 154.898438 L 246.285156 154.777344 L 246.363281 154.671875 L 246.445312 154.558594 L 246.53125 154.460938 L 246.621094 154.355469 L 246.714844 154.257812 L 246.8125 154.164062 L 246.917969 154.074219 L 247.015625 153.988281 L 247.128906 153.90625 L 247.234375 153.828125 L 247.351562 153.757812 L 247.464844 153.6875 L 247.585938 153.625 L 247.710938 153.5625 L 247.832031 153.503906 L 247.957031 153.457031 L 248.089844 153.40625 L 248.222656 153.371094 L 248.359375 153.335938 L 248.492188 153.300781 L 248.632812 153.28125 L 248.773438 153.257812 L 248.914062 153.246094 L 249.054688 153.230469 L 249.347656 153.230469 Z M 142.929688 152.480469 L 143.699219 152.5625 L 144.460938 152.675781 L 145.210938 152.816406 L 145.949219 152.984375 L 146.675781 153.183594 L 147.390625 153.40625 L 148.09375 153.652344 L 148.78125 153.933594 L 149.449219 154.234375 L 150.109375 154.566406 L 150.757812 154.917969 L 151.382812 155.296875 L 151.996094 155.699219 L 152.589844 156.121094 L 153.167969 156.5625 L 153.730469 157.035156 L 154.269531 157.519531 L 154.792969 158.023438 L 155.289062 158.550781 L 155.773438 159.101562 L 156.230469 159.660156 L 156.675781 160.238281 L 157.089844 160.835938 L 157.484375 161.453125 L 157.855469 162.078125 L 158.199219 162.726562 L 158.523438 163.386719 L 158.820312 164.054688 L 159.09375 164.742188 L 159.332031 165.4375 L 159.550781 166.148438 L 159.746094 166.871094 L 159.90625 167.605469 L 160.042969 168.339844 L 160.148438 169.09375 L 160.21875 169.851562 L 160.265625 170.617188 L 160.28125 171.390625 L 160.257812 172.171875 L 160.257812 172.320312 L 160.246094 172.460938 L 160.230469 172.601562 L 160.210938 172.742188 L 160.1875 172.882812 L 160.082031 173.28125 L 160.035156 173.417969 L 159.984375 173.542969 L 159.929688 173.664062 L 159.867188 173.789062 L 159.800781 173.90625 L 159.730469 174.019531 L 159.660156 174.140625 L 159.585938 174.246094 L 159.5 174.359375 L 159.414062 174.457031 L 159.324219 174.5625 L 159.234375 174.660156 L 159.136719 174.75 L 159.03125 174.84375 L 158.929688 174.925781 L 158.820312 175.011719 L 158.714844 175.089844 L 158.59375 175.160156 L 158.480469 175.230469 L 158.363281 175.292969 L 158.234375 175.355469 L 158.117188 175.414062 L 157.988281 175.460938 L 157.855469 175.511719 L 157.457031 175.617188 L 157.175781 175.65625 L 156.894531 175.6875 L 156.597656 175.6875 L 156.316406 175.65625 L 156.035156 175.617188 L 155.636719 175.511719 L 155.5 175.460938 L 155.375 175.414062 L 155.253906 175.355469 L 155.128906 175.292969 L 155.007812 175.230469 L 154.898438 175.160156 L 154.777344 175.089844 L 154.671875 175.011719 L 154.558594 174.925781 L 154.460938 174.84375 L 154.355469 174.75 L 154.257812 174.660156 L 154.164062 174.5625 L 154.074219 174.457031 L 153.988281 174.359375 L 153.90625 174.246094 L 153.828125 174.140625 L 153.757812 174.019531 L 153.6875 173.90625 L 153.625 173.789062 L 153.5625 173.664062 L 153.503906 173.542969 L 153.457031 173.417969 L 153.40625 173.28125 L 153.300781 172.882812 L 153.28125 172.742188 L 153.257812 172.601562 L 153.246094 172.460938 L 153.230469 172.320312 L 153.230469 172.171875 L 153.222656 171.679688 L 153.1875 171.195312 L 153.140625 170.71875 L 153.078125 170.246094 L 152.992188 169.777344 L 152.886719 169.3125 L 152.765625 168.863281 L 152.625 168.410156 L 152.472656 167.976562 L 152.296875 167.539062 L 152.113281 167.117188 L 151.910156 166.703125 L 151.683594 166.304688 L 151.453125 165.910156 L 151.207031 165.523438 L 150.941406 165.152344 L 150.664062 164.785156 L 150.371094 164.433594 L 150.070312 164.089844 L 149.753906 163.757812 L 149.429688 163.441406 L 149.085938 163.140625 L 148.734375 162.847656 L 148.367188 162.570312 L 147.996094 162.304688 L 147.617188 162.058594 L 147.214844 161.820312 L 146.8125 161.601562 L 146.398438 161.398438 L 145.976562 161.207031 L 145.550781 161.03125 L 145.105469 160.878906 L 144.664062 160.738281 L 144.207031 160.609375 L 143.75 160.503906 L 143.277344 160.421875 L 142.808594 160.351562 L 142.332031 160.300781 L 141.84375 160.273438 L 141.351562 160.257812 L 140.863281 160.265625 L 140.375 160.300781 L 139.898438 160.351562 L 139.421875 160.414062 L 138.949219 160.5 L 138.492188 160.605469 L 138.035156 160.730469 L 137.585938 160.863281 L 137.152344 161.027344 L 136.714844 161.195312 L 136.292969 161.382812 L 135.878906 161.585938 L 135.472656 161.8125 L 135.078125 162.042969 L 134.691406 162.289062 L 134.316406 162.558594 L 133.953125 162.839844 L 133.601562 163.125 L 133.257812 163.429688 L 132.925781 163.746094 L 132.609375 164.074219 L 132.308594 164.421875 L 132.019531 164.769531 L 131.738281 165.136719 L 131.472656 165.507812 L 131.226562 165.894531 L 130.992188 166.289062 L 130.769531 166.695312 L 130.566406 167.113281 L 130.375 167.535156 L 130.207031 167.96875 L 130.046875 168.40625 L 129.910156 168.855469 L 129.785156 169.3125 L 129.679688 169.769531 L 129.59375 170.238281 L 129.53125 170.71875 L 129.484375 171.195312 L 129.449219 171.679688 L 129.441406 172.171875 L 129.441406 203.019531 L 129.433594 203.054688 L 129.433594 203.179688 L 129.425781 203.214844 L 129.425781 203.988281 L 129.433594 204.023438 L 129.433594 204.152344 L 129.441406 204.1875 L 129.441406 204.25 L 129.476562 204.742188 L 129.53125 205.226562 L 129.609375 205.695312 L 129.699219 206.167969 L 129.8125 206.632812 L 129.941406 207.089844 L 130.085938 207.539062 L 130.25 207.972656 L 130.433594 208.410156 L 130.628906 208.832031 L 130.839844 209.238281 L 131.0625 209.648438 L 131.308594 210.03125 L 131.5625 210.417969 L 131.835938 210.792969 L 132.117188 211.152344 L 132.414062 211.496094 L 132.722656 211.832031 L 133.046875 212.164062 L 133.382812 212.472656 L 133.726562 212.765625 L 134.085938 213.054688 L 134.453125 213.328125 L 134.832031 213.582031 L 135.226562 213.828125 L 135.617188 214.054688 L 136.027344 214.269531 L 136.441406 214.46875 L 136.871094 214.652344 L 137.296875 214.8125 L 137.742188 214.96875 L 138.191406 215.09375 L 138.648438 215.210938 L 139.105469 215.304688 L 139.574219 215.386719 L 140.046875 215.445312 L 140.523438 215.488281 L 141.003906 215.507812 L 141.492188 215.515625 L 141.984375 215.5 L 142.472656 215.457031 L 142.957031 215.402344 L 143.433594 215.332031 L 143.90625 215.234375 L 144.367188 215.128906 L 144.824219 214.996094 L 145.269531 214.847656 L 145.710938 214.6875 L 146.140625 214.511719 L 146.5625 214.3125 L 146.976562 214.101562 L 147.375 213.871094 L 147.769531 213.632812 L 148.148438 213.371094 L 148.523438 213.105469 L 148.878906 212.824219 L 149.230469 212.519531 L 149.570312 212.210938 L 149.894531 211.886719 L 150.203125 211.558594 L 150.503906 211.207031 L 150.785156 210.855469 L 151.058594 210.484375 L 151.320312 210.101562 L 151.558594 209.714844 L 151.789062 209.316406 L 152 208.910156 L 152.199219 208.492188 L 152.378906 208.070312 L 152.550781 207.636719 L 152.695312 207.195312 L 152.832031 206.75 L 152.941406 206.292969 L 153.042969 205.832031 L 153.117188 205.367188 L 153.183594 204.894531 L 153.222656 204.417969 L 153.246094 203.933594 L 153.246094 203.449219 L 153.230469 202.957031 L 153.230469 202.808594 L 153.246094 202.667969 L 153.257812 202.527344 L 153.28125 202.386719 L 153.300781 202.246094 L 153.371094 201.980469 L 153.40625 201.84375 L 153.457031 201.710938 L 153.503906 201.585938 L 153.5625 201.464844 L 153.625 201.339844 L 153.6875 201.21875 L 153.757812 201.105469 L 153.828125 200.988281 L 153.90625 200.882812 L 153.988281 200.769531 L 154.074219 200.671875 L 154.164062 200.566406 L 154.257812 200.46875 L 154.355469 200.375 L 154.460938 200.285156 L 154.558594 200.199219 L 154.671875 200.117188 L 154.777344 200.039062 L 154.898438 199.96875 L 155.007812 199.898438 L 155.128906 199.835938 L 155.253906 199.773438 L 155.375 199.714844 L 155.5 199.667969 L 155.636719 199.617188 L 156.035156 199.511719 L 156.175781 199.492188 L 156.316406 199.46875 L 156.457031 199.457031 L 156.597656 199.441406 L 156.894531 199.441406 L 157.035156 199.457031 L 157.175781 199.46875 L 157.316406 199.492188 L 157.457031 199.511719 L 157.855469 199.617188 L 157.988281 199.667969 L 158.117188 199.714844 L 158.234375 199.773438 L 158.363281 199.835938 L 158.480469 199.898438 L 158.59375 199.96875 L 158.714844 200.039062 L 158.820312 200.117188 L 158.929688 200.199219 L 159.03125 200.285156 L 159.136719 200.375 L 159.234375 200.46875 L 159.324219 200.566406 L 159.414062 200.671875 L 159.5 200.769531 L 159.585938 200.882812 L 159.660156 200.988281 L 159.730469 201.105469 L 159.800781 201.21875 L 159.867188 201.339844 L 159.929688 201.464844 L 159.984375 201.585938 L 160.035156 201.710938 L 160.082031 201.84375 L 160.117188 201.980469 L 160.1875 202.246094 L 160.210938 202.386719 L 160.230469 202.527344 L 160.246094 202.667969 L 160.257812 202.808594 L 160.257812 203.039062 L 160.265625 203.074219 L 160.265625 203.242188 L 160.273438 203.277344 L 160.273438 203.730469 L 160.28125 203.769531 L 160.273438 203.8125 L 160.273438 204.261719 L 160.265625 204.304688 L 160.265625 204.464844 L 160.257812 204.507812 L 160.257812 204.585938 L 160.210938 205.367188 L 160.132812 206.140625 L 160.019531 206.898438 L 159.878906 207.644531 L 159.710938 208.382812 L 159.515625 209.113281 L 159.289062 209.820312 L 159.035156 210.523438 L 158.753906 211.214844 L 158.453125 211.886719 L 158.121094 212.550781 L 157.769531 213.195312 L 157.390625 213.820312 L 156.992188 214.433594 L 156.570312 215.03125 L 156.125 215.605469 L 155.664062 216.160156 L 155.171875 216.703125 L 154.664062 217.230469 L 154.136719 217.730469 L 153.597656 218.207031 L 153.035156 218.671875 L 152.449219 219.105469 L 151.855469 219.527344 L 151.242188 219.921875 L 150.609375 220.289062 L 149.964844 220.636719 L 149.308594 220.953125 L 148.632812 221.257812 L 147.953125 221.523438 L 147.25 221.769531 L 146.539062 221.988281 L 145.824219 222.179688 L 145.09375 222.339844 L 144.347656 222.472656 L 143.601562 222.578125 L 142.84375 222.65625 L 142.078125 222.699219 L 141.304688 222.710938 L 140.515625 222.699219 L 139.742188 222.648438 L 138.972656 222.5625 L 138.210938 222.453125 L 137.460938 222.3125 L 136.722656 222.144531 L 135.996094 221.945312 L 135.28125 221.722656 L 134.578125 221.476562 L 133.890625 221.195312 L 133.222656 220.890625 L 132.5625 220.5625 L 131.914062 220.210938 L 131.289062 219.832031 L 130.675781 219.429688 L 130.082031 219.007812 L 129.503906 218.566406 L 128.941406 218.09375 L 128.402344 217.609375 L 127.878906 217.101562 L 127.382812 216.578125 L 126.898438 216.027344 L 126.441406 215.464844 L 125.996094 214.890625 L 125.582031 214.292969 L 125.1875 213.671875 L 124.816406 213.046875 L 124.472656 212.402344 L 124.148438 211.742188 L 123.851562 211.074219 L 123.578125 210.382812 L 123.339844 209.6875 L 123.121094 208.980469 L 122.925781 208.253906 L 122.765625 207.523438 L 122.628906 206.785156 L 122.523438 206.035156 L 122.453125 205.273438 L 122.40625 204.507812 L 122.390625 203.734375 L 122.414062 202.957031 L 122.414062 172.085938 L 122.40625 172.050781 L 122.40625 171.882812 L 122.398438 171.847656 L 122.398438 170.863281 L 122.40625 170.824219 L 122.40625 170.660156 L 122.414062 170.617188 L 122.414062 170.542969 L 122.460938 169.761719 L 122.539062 168.988281 L 122.652344 168.230469 L 122.792969 167.484375 L 122.960938 166.746094 L 123.15625 166.015625 L 123.382812 165.304688 L 123.636719 164.601562 L 123.917969 163.914062 L 124.21875 163.238281 L 124.550781 162.578125 L 124.902344 161.933594 L 125.28125 161.304688 L 125.679688 160.695312 L 126.101562 160.097656 L 126.546875 159.519531 L 127.007812 158.964844 L 127.5 158.425781 L 128.007812 157.898438 L 128.535156 157.398438 L 129.074219 156.921875 L 129.636719 156.457031 L 130.222656 156.019531 L 130.816406 155.601562 L 131.429688 155.207031 L 132.0625 154.839844 L 132.707031 154.488281 L 133.363281 154.171875 L 134.039062 153.871094 L 134.71875 153.605469 L 135.421875 153.359375 L 136.132812 153.140625 L 136.847656 152.949219 L 137.578125 152.789062 L 138.324219 152.65625 L 139.070312 152.550781 L 139.828125 152.472656 L 140.59375 152.429688 L 141.367188 152.414062 L 142.15625 152.429688 Z M 188.292969 153.273438 L 189.019531 153.351562 L 189.734375 153.449219 L 190.445312 153.574219 L 191.140625 153.730469 L 191.828125 153.90625 L 192.511719 154.109375 L 193.179688 154.335938 L 193.832031 154.585938 L 194.480469 154.855469 L 195.105469 155.15625 L 195.722656 155.472656 L 196.328125 155.808594 L 196.917969 156.175781 L 197.496094 156.554688 L 198.058594 156.964844 L 198.605469 157.386719 L 199.132812 157.820312 L 199.644531 158.285156 L 200.144531 158.761719 L 200.621094 159.253906 L 201.078125 159.765625 L 201.523438 160.300781 L 201.945312 160.84375 L 202.34375 161.40625 L 202.730469 161.980469 L 203.089844 162.570312 L 203.425781 163.175781 L 203.75 163.792969 L 204.046875 164.425781 L 204.320312 165.066406 L 204.570312 165.726562 L 204.796875 166.394531 L 205 167.070312 L 205.175781 167.757812 L 205.324219 168.453125 L 205.449219 169.164062 L 205.554688 169.882812 L 205.625 170.605469 L 205.667969 171.335938 L 205.691406 172.121094 L 205.675781 172.894531 L 205.632812 173.664062 L 205.554688 174.421875 L 205.449219 175.167969 L 205.316406 175.910156 L 205.15625 176.640625 L 204.964844 177.359375 L 204.746094 178.070312 L 204.5 178.773438 L 204.226562 179.453125 L 203.933594 180.128906 L 203.609375 180.78125 L 203.265625 181.429688 L 202.890625 182.0625 L 202.5 182.671875 L 202.085938 183.269531 L 201.648438 183.851562 L 201.183594 184.414062 L 200.707031 184.957031 L 200.207031 185.484375 L 199.679688 185.988281 L 199.140625 186.480469 L 198.585938 186.945312 L 198.007812 187.386719 L 197.410156 187.808594 L 196.800781 188.210938 L 196.167969 188.589844 L 195.527344 188.941406 L 194.867188 189.273438 L 194.191406 189.574219 L 193.503906 189.855469 L 192.800781 190.109375 L 192.089844 190.332031 L 191.359375 190.53125 L 190.621094 190.699219 L 189.875 190.839844 L 189.109375 190.953125 L 188.34375 191.027344 L 187.5625 191.078125 L 175.6875 191.078125 L 175.6875 218.53125 L 175.65625 218.8125 L 175.617188 219.09375 L 175.511719 219.492188 L 175.460938 219.625 L 175.414062 219.753906 L 175.355469 219.871094 L 175.292969 220 L 175.230469 220.117188 L 175.160156 220.230469 L 175.089844 220.351562 L 175.011719 220.457031 L 174.925781 220.566406 L 174.84375 220.667969 L 174.75 220.773438 L 174.660156 220.871094 L 174.5625 220.960938 L 174.457031 221.054688 L 174.359375 221.136719 L 174.246094 221.222656 L 174.140625 221.300781 L 174.019531 221.371094 L 173.90625 221.441406 L 173.789062 221.503906 L 173.664062 221.566406 L 173.542969 221.621094 L 173.417969 221.671875 L 173.28125 221.722656 L 172.882812 221.828125 L 172.601562 221.867188 L 172.320312 221.898438 L 172.023438 221.898438 L 171.742188 221.867188 L 171.460938 221.828125 L 171.0625 221.722656 L 170.929688 221.671875 L 170.800781 221.621094 L 170.683594 221.566406 L 170.554688 221.503906 L 170.4375 221.441406 L 170.324219 221.371094 L 170.203125 221.300781 L 170.097656 221.222656 L 169.988281 221.136719 L 169.886719 221.054688 L 169.78125 220.960938 L 169.683594 220.871094 L 169.59375 220.773438 L 169.5 220.667969 L 169.417969 220.566406 L 169.332031 220.457031 L 169.253906 220.351562 L 169.183594 220.230469 L 169.113281 220.117188 L 169.050781 220 L 168.988281 219.871094 L 168.933594 219.753906 L 168.882812 219.625 L 168.832031 219.492188 L 168.726562 219.09375 L 168.6875 218.8125 L 168.65625 218.53125 L 168.65625 156.597656 L 168.6875 156.316406 L 168.726562 156.035156 L 168.832031 155.636719 L 168.882812 155.5 L 168.933594 155.375 L 168.988281 155.253906 L 169.050781 155.128906 L 169.113281 155.007812 L 169.183594 154.898438 L 169.253906 154.777344 L 169.332031 154.671875 L 169.417969 154.558594 L 169.5 154.460938 L 169.59375 154.355469 L 169.683594 154.257812 L 169.78125 154.164062 L 169.886719 154.074219 L 169.988281 153.988281 L 170.097656 153.90625 L 170.203125 153.828125 L 170.324219 153.757812 L 170.4375 153.6875 L 170.554688 153.625 L 170.683594 153.5625 L 170.800781 153.503906 L 170.929688 153.457031 L 171.0625 153.40625 L 171.460938 153.300781 L 171.601562 153.28125 L 171.742188 153.257812 L 171.882812 153.246094 L 172.023438 153.230469 L 187.5625 153.230469 Z M 314.070312 192.835938 L 342.183594 192.835938 L 342.183594 182.292969 L 314.070312 182.292969 Z M 32.945312 192.835938 L 61.054688 192.835938 L 61.054688 182.292969 L 32.945312 182.292969 Z M 175.6875 184.050781 L 187.5625 184.050781 L 188.351562 183.980469 L 189.117188 183.859375 L 189.871094 183.699219 L 190.601562 183.488281 L 191.316406 183.226562 L 192.003906 182.925781 L 192.671875 182.589844 L 193.3125 182.203125 L 193.929688 181.785156 L 194.515625 181.328125 L 195.078125 180.839844 L 195.597656 180.3125 L 196.089844 179.753906 L 196.546875 179.164062 L 196.96875 178.554688 L 197.347656 177.914062 L 197.691406 177.246094 L 197.992188 176.550781 L 198.246094 175.839844 L 198.457031 175.109375 L 198.625 174.359375 L 198.746094 173.585938 L 198.808594 172.804688 L 198.832031 171.945312 L 198.789062 171.109375 L 198.683594 170.289062 L 198.527344 169.480469 L 198.316406 168.691406 L 198.058594 167.933594 L 197.746094 167.1875 L 197.390625 166.472656 L 196.988281 165.785156 L 196.539062 165.128906 L 196.046875 164.503906 L 195.511719 163.90625 L 194.945312 163.351562 L 194.339844 162.839844 L 193.699219 162.359375 L 193.023438 161.925781 L 192.320312 161.539062 L 191.589844 161.195312 L 190.832031 160.898438 L 190.042969 160.660156 L 189.242188 160.46875 L 188.414062 160.335938 L 187.5625 160.257812 L 175.6875 160.257812 Z M 314.070312 122.554688 L 342.183594 122.554688 L 342.183594 112.011719 L 314.070312 112.011719 Z M 32.945312 122.554688 L 61.054688 122.554688 L 61.054688 112.011719 L 32.945312 112.011719 Z M 112.011719 61.054688 L 122.554688 61.054688 L 122.554688 32.945312 L 112.011719 32.945312 Z M 182.292969 61.054688 L 192.835938 61.054688 L 192.835938 32.945312 L 182.292969 32.945312 Z M 252.574219 61.054688 L 263.117188 61.054688 L 263.117188 32.945312 L 252.574219 32.945312 Z M 252.574219 61.054688 " clip-rule="nonzero"/></clipPath><linearGradient x1="250" gradientTransform="matrix(0.70282, 0, 0, 0.70282, 11.858924, 11.85892)" y1="19.999999" x2="250" gradientUnits="userSpaceOnUse" y2="479.999985" id="id3"><stop stop-opacity="1" stop-color="rgb(17.298889%, 92.498779%, 100%)" offset="0"/><stop stop-opacity="1" stop-color="rgb(17.611694%, 92.3172%, 100%)" offset="0.00390625"/><stop stop-opacity="1" stop-color="rgb(17.926025%, 92.13562%, 100%)" offset="0.0078125"/><stop stop-opacity="1" stop-color="rgb(18.238831%, 91.952515%, 100%)" offset="0.0117187"/><stop stop-opacity="1" stop-color="rgb(18.553162%, 91.770935%, 100%)" offset="0.015625"/><stop stop-opacity="1" stop-color="rgb(18.867493%, 91.589355%, 100%)" offset="0.0195312"/><stop stop-opacity="1" stop-color="rgb(19.181824%, 91.407776%, 100%)" offset="0.0234375"/><stop stop-opacity="1" stop-color="rgb(19.494629%, 91.22467%, 100%)" offset="0.0273437"/><stop stop-opacity="1" stop-color="rgb(19.80896%, 91.043091%, 100%)" offset="0.03125"/><stop stop-opacity="1" stop-color="rgb(20.121765%, 90.859985%, 100%)" offset="0.0351562"/><stop stop-opacity="1" stop-color="rgb(20.436096%, 90.678406%, 100%)" offset="0.0390625"/><stop stop-opacity="1" stop-color="rgb(20.748901%, 90.496826%, 100%)" offset="0.0429688"/><stop stop-opacity="1" stop-color="rgb(21.063232%, 90.315247%, 100%)" offset="0.046875"/><stop stop-opacity="1" stop-color="rgb(21.376038%, 90.132141%, 100%)" offset="0.0507812"/><stop stop-opacity="1" stop-color="rgb(21.690369%, 89.950562%, 100%)" offset="0.0546875"/><stop stop-opacity="1" stop-color="rgb(22.003174%, 89.768982%, 100%)" offset="0.0585938"/><stop stop-opacity="1" stop-color="rgb(22.317505%, 89.587402%, 100%)" offset="0.0625"/><stop stop-opacity="1" stop-color="rgb(22.63031%, 89.404297%, 100%)" offset="0.0664062"/><stop stop-opacity="1" stop-color="rgb(22.944641%, 89.222717%, 100%)" offset="0.0703125"/><stop stop-opacity="1" stop-color="rgb(23.258972%, 89.039612%, 100%)" offset="0.0742188"/><stop stop-opacity="1" stop-color="rgb(23.573303%, 88.858032%, 100%)" offset="0.078125"/><stop stop-opacity="1" stop-color="rgb(23.886108%, 88.676453%, 100%)" offset="0.0820312"/><stop stop-opacity="1" stop-color="rgb(24.200439%, 88.494873%, 100%)" offset="0.0859375"/><stop stop-opacity="1" stop-color="rgb(24.513245%, 88.311768%, 100%)" offset="0.0898438"/><stop stop-opacity="1" stop-color="rgb(24.827576%, 88.130188%, 100%)" offset="0.09375"/><stop stop-opacity="1" stop-color="rgb(25.140381%, 87.948608%, 100%)" offset="0.0976562"/><stop stop-opacity="1" stop-color="rgb(25.454712%, 87.767029%, 100%)" offset="0.101562"/><stop stop-opacity="1" stop-color="rgb(25.767517%, 87.583923%, 100%)" offset="0.105469"/><stop stop-opacity="1" stop-color="rgb(26.081848%, 87.402344%, 100%)" offset="0.109375"/><stop stop-opacity="1" stop-color="rgb(26.394653%, 87.219238%, 100%)" offset="0.113281"/><stop stop-opacity="1" stop-color="rgb(26.708984%, 87.037659%, 100%)" offset="0.117188"/><stop stop-opacity="1" stop-color="rgb(27.02179%, 86.856079%, 100%)" offset="0.121094"/><stop stop-opacity="1" stop-color="rgb(27.336121%, 86.6745%, 100%)" offset="0.125"/><stop stop-opacity="1" stop-color="rgb(27.650452%, 86.491394%, 100%)" offset="0.128906"/><stop stop-opacity="1" stop-color="rgb(27.964783%, 86.309814%, 100%)" offset="0.132812"/><stop stop-opacity="1" stop-color="rgb(28.277588%, 86.128235%, 100%)" offset="0.136719"/><stop stop-opacity="1" stop-color="rgb(28.591919%, 85.946655%, 100%)" offset="0.140625"/><stop stop-opacity="1" stop-color="rgb(28.904724%, 85.76355%, 100%)" offset="0.144531"/><stop stop-opacity="1" stop-color="rgb(29.219055%, 85.58197%, 100%)" offset="0.148438"/><stop stop-opacity="1" stop-color="rgb(29.53186%, 85.398865%, 100%)" offset="0.152344"/><stop stop-opacity="1" stop-color="rgb(29.846191%, 85.217285%, 100%)" offset="0.15625"/><stop stop-opacity="1" stop-color="rgb(30.158997%, 85.035706%, 100%)" offset="0.160156"/><stop stop-opacity="1" stop-color="rgb(30.473328%, 84.854126%, 100%)" offset="0.164062"/><stop stop-opacity="1" stop-color="rgb(30.786133%, 84.671021%, 100%)" offset="0.167969"/><stop stop-opacity="1" stop-color="rgb(31.100464%, 84.489441%, 100%)" offset="0.171875"/><stop stop-opacity="1" stop-color="rgb(31.413269%, 84.307861%, 100%)" offset="0.175781"/><stop stop-opacity="1" stop-color="rgb(31.7276%, 84.126282%, 100%)" offset="0.179688"/><stop stop-opacity="1" stop-color="rgb(32.040405%, 83.943176%, 100%)" offset="0.183594"/><stop stop-opacity="1" stop-color="rgb(32.354736%, 83.761597%, 100%)" offset="0.1875"/><stop stop-opacity="1" stop-color="rgb(32.669067%, 83.580017%, 100%)" offset="0.191406"/><stop stop-opacity="1" stop-color="rgb(32.983398%, 83.398438%, 100%)" offset="0.195312"/><stop stop-opacity="1" stop-color="rgb(33.296204%, 83.215332%, 100%)" offset="0.199219"/><stop stop-opacity="1" stop-color="rgb(33.610535%, 83.033752%, 100%)" offset="0.203125"/><stop stop-opacity="1" stop-color="rgb(33.92334%, 82.850647%, 100%)" offset="0.207031"/><stop stop-opacity="1" stop-color="rgb(34.237671%, 82.669067%, 100%)" offset="0.210938"/><stop stop-opacity="1" stop-color="rgb(34.550476%, 82.487488%, 100%)" offset="0.214844"/><stop stop-opacity="1" stop-color="rgb(34.864807%, 82.305908%, 100%)" offset="0.21875"/><stop stop-opacity="1" stop-color="rgb(35.177612%, 82.122803%, 100%)" offset="0.222656"/><stop stop-opacity="1" stop-color="rgb(35.491943%, 81.941223%, 100%)" offset="0.226562"/><stop stop-opacity="1" stop-color="rgb(35.804749%, 81.759644%, 100%)" offset="0.230469"/><stop stop-opacity="1" stop-color="rgb(36.11908%, 81.578064%, 100%)" offset="0.234375"/><stop stop-opacity="1" stop-color="rgb(36.431885%, 81.394958%, 100%)" offset="0.238281"/><stop stop-opacity="1" stop-color="rgb(36.746216%, 81.213379%, 100%)" offset="0.242188"/><stop stop-opacity="1" stop-color="rgb(37.060547%, 81.030273%, 100%)" offset="0.246094"/><stop stop-opacity="1" stop-color="rgb(37.374878%, 80.848694%, 100%)" offset="0.25"/><stop stop-opacity="1" stop-color="rgb(37.687683%, 80.667114%, 100%)" offset="0.253906"/><stop stop-opacity="1" stop-color="rgb(38.002014%, 80.485535%, 100%)" offset="0.257812"/><stop stop-opacity="1" stop-color="rgb(38.314819%, 80.302429%, 100%)" offset="0.261719"/><stop stop-opacity="1" stop-color="rgb(38.62915%, 80.12085%, 100%)" offset="0.265625"/><stop stop-opacity="1" stop-color="rgb(38.941956%, 79.93927%, 100%)" offset="0.269531"/><stop stop-opacity="1" stop-color="rgb(39.256287%, 79.75769%, 100%)" offset="0.273438"/><stop stop-opacity="1" stop-color="rgb(39.569092%, 79.574585%, 100%)" offset="0.277344"/><stop stop-opacity="1" stop-color="rgb(39.883423%, 79.393005%, 100%)" offset="0.28125"/><stop stop-opacity="1" stop-color="rgb(40.196228%, 79.2099%, 100%)" offset="0.285156"/><stop stop-opacity="1" stop-color="rgb(40.510559%, 79.02832%, 100%)" offset="0.289062"/><stop stop-opacity="1" stop-color="rgb(40.823364%, 78.846741%, 100%)" offset="0.292969"/><stop stop-opacity="1" stop-color="rgb(41.137695%, 78.665161%, 100%)" offset="0.296875"/><stop stop-opacity="1" stop-color="rgb(41.452026%, 78.482056%, 100%)" offset="0.300781"/><stop stop-opacity="1" stop-color="rgb(41.766357%, 78.300476%, 100%)" offset="0.304687"/><stop stop-opacity="1" stop-color="rgb(42.079163%, 78.118896%, 100%)" offset="0.308594"/><stop stop-opacity="1" stop-color="rgb(42.393494%, 77.937317%, 100%)" offset="0.3125"/><stop stop-opacity="1" stop-color="rgb(42.706299%, 77.754211%, 100%)" offset="0.316406"/><stop stop-opacity="1" stop-color="rgb(43.02063%, 77.572632%, 100%)" offset="0.320312"/><stop stop-opacity="1" stop-color="rgb(43.333435%, 77.389526%, 100%)" offset="0.324219"/><stop stop-opacity="1" stop-color="rgb(43.647766%, 77.207947%, 100%)" offset="0.328125"/><stop stop-opacity="1" stop-color="rgb(43.960571%, 77.026367%, 100%)" offset="0.332031"/><stop stop-opacity="1" stop-color="rgb(44.274902%, 76.844788%, 100%)" offset="0.335938"/><stop stop-opacity="1" stop-color="rgb(44.587708%, 76.661682%, 100%)" offset="0.339844"/><stop stop-opacity="1" stop-color="rgb(44.902039%, 76.480103%, 100%)" offset="0.34375"/><stop stop-opacity="1" stop-color="rgb(45.214844%, 76.298523%, 100%)" offset="0.347656"/><stop stop-opacity="1" stop-color="rgb(45.529175%, 76.116943%, 100%)" offset="0.351562"/><stop stop-opacity="1" stop-color="rgb(45.84198%, 75.933838%, 100%)" offset="0.355469"/><stop stop-opacity="1" stop-color="rgb(46.156311%, 75.752258%, 100%)" offset="0.359375"/><stop stop-opacity="1" stop-color="rgb(46.470642%, 75.569153%, 100%)" offset="0.363281"/><stop stop-opacity="1" stop-color="rgb(46.784973%, 75.387573%, 100%)" offset="0.367188"/><stop stop-opacity="1" stop-color="rgb(47.097778%, 75.205994%, 100%)" offset="0.371094"/><stop stop-opacity="1" stop-color="rgb(47.412109%, 75.024414%, 100%)" offset="0.375"/><stop stop-opacity="1" stop-color="rgb(47.724915%, 74.841309%, 100%)" offset="0.378906"/><stop stop-opacity="1" stop-color="rgb(48.039246%, 74.659729%, 100%)" offset="0.382812"/><stop stop-opacity="1" stop-color="rgb(48.352051%, 74.478149%, 100%)" offset="0.386719"/><stop stop-opacity="1" stop-color="rgb(48.666382%, 74.29657%, 100%)" offset="0.390625"/><stop stop-opacity="1" stop-color="rgb(48.979187%, 74.113464%, 100%)" offset="0.394531"/><stop stop-opacity="1" stop-color="rgb(49.293518%, 73.931885%, 100%)" offset="0.398438"/><stop stop-opacity="1" stop-color="rgb(49.606323%, 73.750305%, 100%)" offset="0.402344"/><stop stop-opacity="1" stop-color="rgb(49.920654%, 73.568726%, 100%)" offset="0.40625"/><stop stop-opacity="1" stop-color="rgb(50.233459%, 73.38562%, 100%)" offset="0.410156"/><stop stop-opacity="1" stop-color="rgb(50.547791%, 73.204041%, 100%)" offset="0.414062"/><stop stop-opacity="1" stop-color="rgb(50.862122%, 73.020935%, 100%)" offset="0.417969"/><stop stop-opacity="1" stop-color="rgb(51.176453%, 72.839355%, 100%)" offset="0.421875"/><stop stop-opacity="1" stop-color="rgb(51.489258%, 72.657776%, 100%)" offset="0.425781"/><stop stop-opacity="1" stop-color="rgb(51.803589%, 72.476196%, 100%)" offset="0.429687"/><stop stop-opacity="1" stop-color="rgb(52.116394%, 72.293091%, 100%)" offset="0.433594"/><stop stop-opacity="1" stop-color="rgb(52.430725%, 72.111511%, 100%)" offset="0.4375"/><stop stop-opacity="1" stop-color="rgb(52.74353%, 71.929932%, 100%)" offset="0.441406"/><stop stop-opacity="1" stop-color="rgb(53.057861%, 71.748352%, 100%)" offset="0.445312"/><stop stop-opacity="1" stop-color="rgb(53.370667%, 71.565247%, 100%)" offset="0.449219"/><stop stop-opacity="1" stop-color="rgb(53.684998%, 71.383667%, 100%)" offset="0.453125"/><stop stop-opacity="1" stop-color="rgb(53.997803%, 71.200562%, 100%)" offset="0.457031"/><stop stop-opacity="1" stop-color="rgb(54.312134%, 71.018982%, 100%)" offset="0.460937"/><stop stop-opacity="1" stop-color="rgb(54.624939%, 70.837402%, 100%)" offset="0.464844"/><stop stop-opacity="1" stop-color="rgb(54.93927%, 70.655823%, 100%)" offset="0.46875"/><stop stop-opacity="1" stop-color="rgb(55.253601%, 70.472717%, 100%)" offset="0.472656"/><stop stop-opacity="1" stop-color="rgb(55.567932%, 70.291138%, 100%)" offset="0.476562"/><stop stop-opacity="1" stop-color="rgb(55.880737%, 70.109558%, 100%)" offset="0.480469"/><stop stop-opacity="1" stop-color="rgb(56.195068%, 69.927979%, 100%)" offset="0.484375"/><stop stop-opacity="1" stop-color="rgb(56.507874%, 69.744873%, 100%)" offset="0.488281"/><stop stop-opacity="1" stop-color="rgb(56.822205%, 69.563293%, 100%)" offset="0.492188"/><stop stop-opacity="1" stop-color="rgb(57.13501%, 69.380188%, 100%)" offset="0.496094"/><stop stop-opacity="1" stop-color="rgb(57.449341%, 69.198608%, 100%)" offset="0.5"/><stop stop-opacity="1" stop-color="rgb(57.762146%, 69.017029%, 100%)" offset="0.503906"/><stop stop-opacity="1" stop-color="rgb(58.076477%, 68.835449%, 100%)" offset="0.507813"/><stop stop-opacity="1" stop-color="rgb(58.389282%, 68.652344%, 100%)" offset="0.511719"/><stop stop-opacity="1" stop-color="rgb(58.703613%, 68.470764%, 100%)" offset="0.515625"/><stop stop-opacity="1" stop-color="rgb(59.016418%, 68.289185%, 100%)" offset="0.519531"/><stop stop-opacity="1" stop-color="rgb(59.33075%, 68.107605%, 100%)" offset="0.523438"/><stop stop-opacity="1" stop-color="rgb(59.643555%, 67.9245%, 100%)" offset="0.527344"/><stop stop-opacity="1" stop-color="rgb(59.957886%, 67.74292%, 100%)" offset="0.53125"/><stop stop-opacity="1" stop-color="rgb(60.272217%, 67.559814%, 100%)" offset="0.535156"/><stop stop-opacity="1" stop-color="rgb(60.586548%, 67.378235%, 100%)" offset="0.539062"/><stop stop-opacity="1" stop-color="rgb(60.899353%, 67.196655%, 100%)" offset="0.542969"/><stop stop-opacity="1" stop-color="rgb(61.213684%, 67.015076%, 100%)" offset="0.546875"/><stop stop-opacity="1" stop-color="rgb(61.526489%, 66.83197%, 100%)" offset="0.550781"/><stop stop-opacity="1" stop-color="rgb(61.84082%, 66.650391%, 100%)" offset="0.554688"/><stop stop-opacity="1" stop-color="rgb(62.153625%, 66.468811%, 100%)" offset="0.558594"/><stop stop-opacity="1" stop-color="rgb(62.467957%, 66.287231%, 100%)" offset="0.5625"/><stop stop-opacity="1" stop-color="rgb(62.780762%, 66.104126%, 100%)" offset="0.566406"/><stop stop-opacity="1" stop-color="rgb(63.095093%, 65.922546%, 100%)" offset="0.570312"/><stop stop-opacity="1" stop-color="rgb(63.407898%, 65.739441%, 100%)" offset="0.574219"/><stop stop-opacity="1" stop-color="rgb(63.722229%, 65.557861%, 100%)" offset="0.578125"/><stop stop-opacity="1" stop-color="rgb(64.035034%, 65.376282%, 100%)" offset="0.582031"/><stop stop-opacity="1" stop-color="rgb(64.349365%, 65.194702%, 100%)" offset="0.585937"/><stop stop-opacity="1" stop-color="rgb(64.663696%, 65.011597%, 100%)" offset="0.589844"/><stop stop-opacity="1" stop-color="rgb(64.978027%, 64.830017%, 100%)" offset="0.59375"/><stop stop-opacity="1" stop-color="rgb(65.290833%, 64.648438%, 100%)" offset="0.597656"/><stop stop-opacity="1" stop-color="rgb(65.605164%, 64.466858%, 100%)" offset="0.601563"/><stop stop-opacity="1" stop-color="rgb(65.917969%, 64.283752%, 100%)" offset="0.605469"/><stop stop-opacity="1" stop-color="rgb(66.2323%, 64.102173%, 100%)" offset="0.609375"/><stop stop-opacity="1" stop-color="rgb(66.545105%, 63.920593%, 100%)" offset="0.613281"/><stop stop-opacity="1" stop-color="rgb(66.859436%, 63.739014%, 100%)" offset="0.617188"/><stop stop-opacity="1" stop-color="rgb(67.172241%, 63.555908%, 100%)" offset="0.621094"/><stop stop-opacity="1" stop-color="rgb(67.486572%, 63.374329%, 100%)" offset="0.625"/><stop stop-opacity="1" stop-color="rgb(67.799377%, 63.191223%, 100%)" offset="0.628906"/><stop stop-opacity="1" stop-color="rgb(68.113708%, 63.009644%, 100%)" offset="0.632812"/><stop stop-opacity="1" stop-color="rgb(68.426514%, 62.828064%, 100%)" offset="0.636719"/><stop stop-opacity="1" stop-color="rgb(68.740845%, 62.646484%, 100%)" offset="0.640625"/><stop stop-opacity="1" stop-color="rgb(69.055176%, 62.463379%, 100%)" offset="0.644531"/><stop stop-opacity="1" stop-color="rgb(69.369507%, 62.281799%, 100%)" offset="0.648438"/><stop stop-opacity="1" stop-color="rgb(69.682312%, 62.10022%, 100%)" offset="0.652344"/><stop stop-opacity="1" stop-color="rgb(69.996643%, 61.91864%, 100%)" offset="0.65625"/><stop stop-opacity="1" stop-color="rgb(70.309448%, 61.735535%, 100%)" offset="0.660156"/><stop stop-opacity="1" stop-color="rgb(70.623779%, 61.553955%, 100%)" offset="0.664062"/><stop stop-opacity="1" stop-color="rgb(70.936584%, 61.37085%, 100%)" offset="0.667969"/><stop stop-opacity="1" stop-color="rgb(71.250916%, 61.18927%, 100%)" offset="0.671875"/><stop stop-opacity="1" stop-color="rgb(71.563721%, 61.00769%, 100%)" offset="0.675781"/><stop stop-opacity="1" stop-color="rgb(71.878052%, 60.826111%, 100%)" offset="0.679687"/><stop stop-opacity="1" stop-color="rgb(72.190857%, 60.643005%, 100%)" offset="0.683594"/><stop stop-opacity="1" stop-color="rgb(72.505188%, 60.461426%, 100%)" offset="0.6875"/><stop stop-opacity="1" stop-color="rgb(72.817993%, 60.279846%, 100%)" offset="0.691406"/><stop stop-opacity="1" stop-color="rgb(73.132324%, 60.098267%, 100%)" offset="0.695313"/><stop stop-opacity="1" stop-color="rgb(73.445129%, 59.915161%, 100%)" offset="0.699219"/><stop stop-opacity="1" stop-color="rgb(73.75946%, 59.733582%, 100%)" offset="0.703125"/><stop stop-opacity="1" stop-color="rgb(74.073792%, 59.550476%, 100%)" offset="0.707031"/><stop stop-opacity="1" stop-color="rgb(74.388123%, 59.368896%, 100%)" offset="0.710938"/><stop stop-opacity="1" stop-color="rgb(74.700928%, 59.187317%, 100%)" offset="0.714844"/><stop stop-opacity="1" stop-color="rgb(75.015259%, 59.005737%, 100%)" offset="0.71875"/><stop stop-opacity="1" stop-color="rgb(75.328064%, 58.822632%, 100%)" offset="0.722656"/><stop stop-opacity="1" stop-color="rgb(75.642395%, 58.641052%, 100%)" offset="0.726562"/><stop stop-opacity="1" stop-color="rgb(75.9552%, 58.459473%, 100%)" offset="0.730469"/><stop stop-opacity="1" stop-color="rgb(76.269531%, 58.277893%, 100%)" offset="0.734375"/><stop stop-opacity="1" stop-color="rgb(76.582336%, 58.094788%, 100%)" offset="0.738281"/><stop stop-opacity="1" stop-color="rgb(76.896667%, 57.913208%, 100%)" offset="0.742188"/><stop stop-opacity="1" stop-color="rgb(77.209473%, 57.730103%, 100%)" offset="0.746094"/><stop stop-opacity="1" stop-color="rgb(77.523804%, 57.548523%, 100%)" offset="0.75"/><stop stop-opacity="1" stop-color="rgb(77.836609%, 57.366943%, 100%)" offset="0.753906"/><stop stop-opacity="1" stop-color="rgb(78.15094%, 57.185364%, 100%)" offset="0.757812"/><stop stop-opacity="1" stop-color="rgb(78.465271%, 57.002258%, 100%)" offset="0.761719"/><stop stop-opacity="1" stop-color="rgb(78.779602%, 56.820679%, 100%)" offset="0.765625"/><stop stop-opacity="1" stop-color="rgb(79.092407%, 56.639099%, 100%)" offset="0.769531"/><stop stop-opacity="1" stop-color="rgb(79.406738%, 56.45752%, 100%)" offset="0.773438"/><stop stop-opacity="1" stop-color="rgb(79.719543%, 56.274414%, 100%)" offset="0.777344"/><stop stop-opacity="1" stop-color="rgb(80.033875%, 56.092834%, 100%)" offset="0.78125"/><stop stop-opacity="1" stop-color="rgb(80.34668%, 55.911255%, 100%)" offset="0.785156"/><stop stop-opacity="1" stop-color="rgb(80.661011%, 55.729675%, 100%)" offset="0.789063"/><stop stop-opacity="1" stop-color="rgb(80.973816%, 55.54657%, 100%)" offset="0.792969"/><stop stop-opacity="1" stop-color="rgb(81.288147%, 55.36499%, 100%)" offset="0.796875"/><stop stop-opacity="1" stop-color="rgb(81.600952%, 55.181885%, 100%)" offset="0.800781"/><stop stop-opacity="1" stop-color="rgb(81.915283%, 55.000305%, 100%)" offset="0.804688"/><stop stop-opacity="1" stop-color="rgb(82.228088%, 54.818726%, 100%)" offset="0.808594"/><stop stop-opacity="1" stop-color="rgb(82.542419%, 54.637146%, 100%)" offset="0.8125"/><stop stop-opacity="1" stop-color="rgb(82.85675%, 54.454041%, 100%)" offset="0.816406"/><stop stop-opacity="1" stop-color="rgb(83.171082%, 54.272461%, 100%)" offset="0.820312"/><stop stop-opacity="1" stop-color="rgb(83.483887%, 54.090881%, 100%)" offset="0.824219"/><stop stop-opacity="1" stop-color="rgb(83.798218%, 53.909302%, 100%)" offset="0.828125"/><stop stop-opacity="1" stop-color="rgb(84.111023%, 53.726196%, 100%)" offset="0.832031"/><stop stop-opacity="1" stop-color="rgb(84.425354%, 53.544617%, 100%)" offset="0.835938"/><stop stop-opacity="1" stop-color="rgb(84.738159%, 53.361511%, 100%)" offset="0.839844"/><stop stop-opacity="1" stop-color="rgb(85.05249%, 53.179932%, 100%)" offset="0.84375"/><stop stop-opacity="1" stop-color="rgb(85.365295%, 52.998352%, 100%)" offset="0.847656"/><stop stop-opacity="1" stop-color="rgb(85.679626%, 52.816772%, 100%)" offset="0.851562"/><stop stop-opacity="1" stop-color="rgb(85.992432%, 52.633667%, 100%)" offset="0.855469"/><stop stop-opacity="1" stop-color="rgb(86.306763%, 52.452087%, 100%)" offset="0.859375"/><stop stop-opacity="1" stop-color="rgb(86.619568%, 52.270508%, 100%)" offset="0.863281"/><stop stop-opacity="1" stop-color="rgb(86.933899%, 52.088928%, 100%)" offset="0.867188"/><stop stop-opacity="1" stop-color="rgb(87.246704%, 51.905823%, 100%)" offset="0.871094"/><stop stop-opacity="1" stop-color="rgb(87.561035%, 51.724243%, 100%)" offset="0.875"/><stop stop-opacity="1" stop-color="rgb(87.875366%, 51.541138%, 100%)" offset="0.878906"/><stop stop-opacity="1" stop-color="rgb(88.189697%, 51.359558%, 100%)" offset="0.882813"/><stop stop-opacity="1" stop-color="rgb(88.502502%, 51.177979%, 100%)" offset="0.886719"/><stop stop-opacity="1" stop-color="rgb(88.816833%, 50.996399%, 100%)" offset="0.890625"/><stop stop-opacity="1" stop-color="rgb(89.129639%, 50.813293%, 100%)" offset="0.894531"/><stop stop-opacity="1" stop-color="rgb(89.44397%, 50.631714%, 100%)" offset="0.898438"/><stop stop-opacity="1" stop-color="rgb(89.756775%, 50.450134%, 100%)" offset="0.902344"/><stop stop-opacity="1" stop-color="rgb(90.071106%, 50.268555%, 100%)" offset="0.90625"/><stop stop-opacity="1" stop-color="rgb(90.383911%, 50.085449%, 100%)" offset="0.910156"/><stop stop-opacity="1" stop-color="rgb(90.698242%, 49.90387%, 100%)" offset="0.914062"/><stop stop-opacity="1" stop-color="rgb(91.011047%, 49.720764%, 100%)" offset="0.917969"/><stop stop-opacity="1" stop-color="rgb(91.325378%, 49.539185%, 100%)" offset="0.921875"/><stop stop-opacity="1" stop-color="rgb(91.638184%, 49.357605%, 100%)" offset="0.925781"/><stop stop-opacity="1" stop-color="rgb(91.952515%, 49.176025%, 100%)" offset="0.929688"/><stop stop-opacity="1" stop-color="rgb(92.266846%, 48.99292%, 100%)" offset="0.933594"/><stop stop-opacity="1" stop-color="rgb(92.581177%, 48.81134%, 100%)" offset="0.9375"/><stop stop-opacity="1" stop-color="rgb(92.893982%, 48.629761%, 100%)" offset="0.941406"/><stop stop-opacity="1" stop-color="rgb(93.208313%, 48.448181%, 100%)" offset="0.945312"/><stop stop-opacity="1" stop-color="rgb(93.521118%, 48.265076%, 100%)" offset="0.949219"/><stop stop-opacity="1" stop-color="rgb(93.835449%, 48.083496%, 100%)" offset="0.953125"/><stop stop-opacity="1" stop-color="rgb(94.148254%, 47.900391%, 100%)" offset="0.957031"/><stop stop-opacity="1" stop-color="rgb(94.462585%, 47.718811%, 100%)" offset="0.960938"/><stop stop-opacity="1" stop-color="rgb(94.775391%, 47.537231%, 100%)" offset="0.964844"/><stop stop-opacity="1" stop-color="rgb(95.089722%, 47.355652%, 100%)" offset="0.96875"/><stop stop-opacity="1" stop-color="rgb(95.402527%, 47.172546%, 100%)" offset="0.972656"/><stop stop-opacity="1" stop-color="rgb(95.716858%, 46.990967%, 100%)" offset="0.976563"/><stop stop-opacity="1" stop-color="rgb(96.029663%, 46.809387%, 100%)" offset="0.980469"/><stop stop-opacity="1" stop-color="rgb(96.343994%, 46.627808%, 100%)" offset="0.984375"/><stop stop-opacity="1" stop-color="rgb(96.656799%, 46.444702%, 100%)" offset="0.988281"/><stop stop-opacity="1" stop-color="rgb(96.97113%, 46.263123%, 100%)" offset="0.992188"/><stop stop-opacity="1" stop-color="rgb(97.285461%, 46.081543%, 100%)" offset="0.996094"/><stop stop-opacity="1" stop-color="rgb(97.599792%, 45.899963%, 100%)" offset="1"/></linearGradient></defs><g clip-path="url(#id1)"><g clip-path="url(#id2)"><path fill="url(#id3)" d="M 25.914062 25.914062 L 25.914062 349.210938 L 349.210938 349.210938 L 349.210938 25.914062 Z M 25.914062 25.914062 " fill-rule="nonzero"/></g></g></svg>