<svg xmlns="http://www.w3.org/2000/svg" xmlns:xlink="http://www.w3.org/1999/xlink" width="500" zoomAndPan="magnify" viewBox="0 0 375 374.999991" height="500" preserveAspectRatio="xMidYMid meet" version="1.0"><defs><clipPath id="id1"><path d="M 19.453125 19.453125 L 355.453125 19.453125 L 355.453125 355.453125 L 19.453125 355.453125 Z M 19.453125 19.453125 " clip-rule="nonzero"/></clipPath><clipPath id="id2"><path d="M 178.140625 355.082031 L 178.140625 323.417969 L 196.765625 323.417969 L 196.765625 355.082031 Z M 252.644531 355.082031 L 252.644531 323.417969 L 271.269531 323.417969 L 271.269531 355.082031 Z M 103.640625 355.082031 L 103.640625 323.417969 L 122.265625 323.417969 L 122.265625 355.082031 Z M 286.066406 57.191406 L 287.457031 57.332031 L 288.835938 57.53125 L 290.199219 57.777344 L 291.539062 58.082031 L 292.867188 58.441406 L 294.164062 58.84375 L 295.445312 59.296875 L 296.695312 59.796875 L 297.925781 60.347656 L 299.132812 60.9375 L 300.308594 61.578125 L 301.457031 62.261719 L 302.574219 62.984375 L 303.660156 63.753906 L 304.71875 64.566406 L 305.746094 65.40625 L 306.738281 66.292969 L 307.699219 67.210938 L 308.617188 68.171875 L 309.503906 69.160156 L 310.34375 70.191406 L 311.15625 71.246094 L 311.925781 72.335938 L 312.648438 73.453125 L 313.332031 74.601562 L 313.972656 75.777344 L 314.5625 76.984375 L 315.113281 78.214844 L 315.613281 79.464844 L 316.066406 80.746094 L 316.46875 82.042969 L 316.824219 83.371094 L 317.132812 84.710938 L 317.378906 86.074219 L 317.578125 87.453125 L 317.71875 88.84375 L 317.800781 90.261719 L 317.832031 91.683594 L 317.832031 283.226562 L 317.800781 284.648438 L 317.71875 286.066406 L 317.578125 287.457031 L 317.378906 288.835938 L 317.132812 290.199219 L 316.824219 291.539062 L 316.46875 292.867188 L 316.066406 294.164062 L 315.613281 295.445312 L 315.113281 296.695312 L 314.5625 297.925781 L 313.972656 299.132812 L 313.332031 300.308594 L 312.648438 301.457031 L 311.925781 302.574219 L 311.15625 303.660156 L 310.34375 304.71875 L 309.503906 305.746094 L 308.617188 306.738281 L 307.699219 307.699219 L 306.738281 308.617188 L 305.746094 309.503906 L 304.71875 310.34375 L 303.660156 311.15625 L 302.574219 311.925781 L 301.457031 312.648438 L 300.308594 313.332031 L 299.132812 313.972656 L 297.925781 314.5625 L 296.695312 315.113281 L 295.445312 315.613281 L 294.164062 316.066406 L 292.867188 316.46875 L 291.539062 316.824219 L 290.199219 317.132812 L 288.835938 317.378906 L 287.457031 317.578125 L 286.066406 317.71875 L 284.648438 317.800781 L 283.226562 317.832031 L 91.683594 317.832031 L 90.261719 317.800781 L 88.84375 317.71875 L 87.453125 317.578125 L 86.074219 317.378906 L 84.710938 317.132812 L 83.371094 316.824219 L 82.042969 316.46875 L 80.746094 316.066406 L 79.464844 315.613281 L 78.214844 315.113281 L 76.984375 314.5625 L 75.777344 313.972656 L 74.601562 313.332031 L 73.453125 312.648438 L 72.335938 311.925781 L 71.25 311.15625 L 70.191406 310.34375 L 69.160156 309.503906 L 68.171875 308.617188 L 67.210938 307.699219 L 66.292969 306.738281 L 65.40625 305.746094 L 64.566406 304.71875 L 63.753906 303.660156 L 62.984375 302.574219 L 62.261719 301.457031 L 61.578125 300.308594 L 60.9375 299.132812 L 60.347656 297.925781 L 59.796875 296.695312 L 59.296875 295.445312 L 58.84375 294.164062 L 58.441406 292.867188 L 58.082031 291.539062 L 57.777344 290.199219 L 57.53125 288.835938 L 57.332031 287.457031 L 57.191406 286.066406 L 57.109375 284.648438 L 57.078125 283.226562 L 57.078125 91.683594 L 57.109375 90.261719 L 57.191406 88.84375 L 57.332031 87.453125 L 57.53125 86.074219 L 57.777344 84.710938 L 58.082031 83.371094 L 58.441406 82.042969 L 58.84375 80.746094 L 59.296875 79.464844 L 59.796875 78.214844 L 60.347656 76.984375 L 60.9375 75.777344 L 61.578125 74.601562 L 62.261719 73.453125 L 62.984375 72.335938 L 63.753906 71.246094 L 64.566406 70.191406 L 65.40625 69.160156 L 66.292969 68.171875 L 67.210938 67.210938 L 68.171875 66.292969 L 69.160156 65.40625 L 70.191406 64.566406 L 71.25 63.753906 L 72.335938 62.984375 L 73.453125 62.261719 L 74.601562 61.578125 L 75.777344 60.9375 L 76.984375 60.347656 L 78.214844 59.796875 L 79.464844 59.296875 L 80.746094 58.84375 L 82.042969 58.441406 L 83.371094 58.082031 L 84.710938 57.777344 L 86.074219 57.53125 L 87.453125 57.332031 L 88.84375 57.191406 L 90.261719 57.109375 L 91.683594 57.078125 L 283.226562 57.078125 L 284.648438 57.109375 Z M 116.539062 91.558594 L 115.480469 91.617188 L 114.4375 91.726562 L 113.402344 91.871094 L 112.378906 92.054688 L 111.375 92.289062 L 110.382812 92.546875 L 109.40625 92.851562 L 108.445312 93.1875 L 107.507812 93.5625 L 106.582031 93.972656 L 105.675781 94.417969 L 104.796875 94.894531 L 103.933594 95.410156 L 103.089844 95.945312 L 102.269531 96.519531 L 101.472656 97.121094 L 100.707031 97.753906 L 99.960938 98.417969 L 99.238281 99.105469 L 98.546875 99.820312 L 97.875 100.5625 L 97.242188 101.332031 L 96.628906 102.121094 L 96.050781 102.933594 L 95.503906 103.773438 L 94.984375 104.632812 L 94.507812 105.511719 L 94.054688 106.414062 L 93.636719 107.335938 L 93.253906 108.273438 L 92.914062 109.230469 L 92.601562 110.203125 L 92.332031 111.195312 L 92.09375 112.203125 L 91.898438 113.214844 L 91.75 114.25 L 91.640625 115.292969 L 91.566406 116.351562 L 91.535156 117.421875 L 91.535156 257.484375 L 91.558594 258.558594 L 91.617188 259.617188 L 91.726562 260.660156 L 91.871094 261.695312 L 92.054688 262.714844 L 92.289062 263.722656 L 92.546875 264.710938 L 92.851562 265.6875 L 93.1875 266.648438 L 93.5625 267.589844 L 93.972656 268.511719 L 94.417969 269.421875 L 94.894531 270.300781 L 95.410156 271.164062 L 95.945312 272.007812 L 96.519531 272.824219 L 97.121094 273.621094 L 97.753906 274.390625 L 98.417969 275.136719 L 99.105469 275.859375 L 99.820312 276.550781 L 100.5625 277.222656 L 101.332031 277.855469 L 102.121094 278.464844 L 102.933594 279.046875 L 103.773438 279.589844 L 104.632812 280.113281 L 105.511719 280.589844 L 106.414062 281.042969 L 107.335938 281.460938 L 108.273438 281.839844 L 109.230469 282.183594 L 110.203125 282.496094 L 111.195312 282.765625 L 112.203125 283.003906 L 113.214844 283.195312 L 114.25 283.34375 L 115.292969 283.457031 L 116.351562 283.53125 L 117.425781 283.5625 L 257.152344 283.5625 L 258.222656 283.539062 L 259.289062 283.472656 L 260.339844 283.367188 L 261.382812 283.21875 L 262.402344 283.03125 L 263.417969 282.800781 L 264.414062 282.53125 L 265.390625 282.234375 L 266.359375 281.890625 L 267.296875 281.511719 L 268.230469 281.09375 L 269.128906 280.648438 L 270.015625 280.171875 L 270.886719 279.65625 L 271.730469 279.105469 L 272.550781 278.53125 L 273.347656 277.921875 L 274.121094 277.28125 L 274.867188 276.617188 L 275.589844 275.925781 L 276.28125 275.203125 L 276.945312 274.457031 L 277.585938 273.683594 L 278.195312 272.886719 L 278.769531 272.066406 L 279.320312 271.222656 L 279.835938 270.351562 L 280.3125 269.464844 L 280.761719 268.5625 L 281.175781 267.632812 L 281.558594 266.695312 L 281.898438 265.726562 L 282.199219 264.75 L 282.464844 263.75 L 282.695312 262.738281 L 282.882812 261.71875 L 283.03125 260.675781 L 283.136719 259.625 L 283.203125 258.558594 L 283.226562 257.484375 L 283.5625 117.609375 L 283.539062 116.539062 L 283.472656 115.472656 L 283.367188 114.421875 L 283.21875 113.378906 L 283.03125 112.359375 L 282.800781 111.34375 L 282.53125 110.347656 L 282.234375 109.371094 L 281.890625 108.402344 L 281.511719 107.464844 L 281.09375 106.53125 L 280.648438 105.628906 L 280.171875 104.742188 L 279.65625 103.871094 L 279.105469 103.03125 L 278.53125 102.210938 L 277.921875 101.414062 L 277.28125 100.640625 L 276.617188 99.894531 L 275.925781 99.171875 L 275.203125 98.476562 L 274.457031 97.816406 L 273.683594 97.175781 L 272.886719 96.5625 L 272.066406 95.988281 L 271.222656 95.4375 L 270.351562 94.925781 L 269.464844 94.449219 L 268.5625 94 L 267.632812 93.582031 L 266.695312 93.203125 L 265.726562 92.859375 L 264.75 92.5625 L 263.75 92.292969 L 262.738281 92.0625 L 261.71875 91.878906 L 260.675781 91.726562 L 259.625 91.625 L 258.558594 91.558594 L 257.484375 91.535156 L 117.609375 91.535156 Z M 259.148438 97.1875 L 259.964844 97.277344 L 260.777344 97.390625 L 261.574219 97.539062 L 262.359375 97.71875 L 263.132812 97.925781 L 263.902344 98.164062 L 264.644531 98.433594 L 265.382812 98.722656 L 266.105469 99.050781 L 266.804688 99.402344 L 267.5 99.773438 L 268.167969 100.175781 L 268.824219 100.601562 L 269.464844 101.046875 L 270.085938 101.523438 L 270.6875 102.015625 L 271.269531 102.539062 L 271.828125 103.082031 L 272.371094 103.640625 L 272.894531 104.222656 L 273.382812 104.824219 L 273.859375 105.445312 L 274.308594 106.085938 L 274.734375 106.742188 L 275.136719 107.410156 L 275.507812 108.105469 L 275.859375 108.804688 L 276.1875 109.527344 L 276.476562 110.265625 L 276.746094 111.007812 L 276.984375 111.777344 L 277.191406 112.550781 L 277.371094 113.332031 L 277.519531 114.128906 L 277.632812 114.941406 L 277.71875 115.761719 L 277.773438 116.589844 L 277.789062 117.421875 L 277.789062 257.484375 L 277.773438 258.320312 L 277.71875 259.148438 L 277.632812 259.964844 L 277.519531 260.777344 L 277.371094 261.574219 L 277.191406 262.359375 L 276.984375 263.132812 L 276.746094 263.902344 L 276.476562 264.644531 L 276.1875 265.382812 L 275.859375 266.105469 L 275.507812 266.804688 L 275.136719 267.5 L 274.734375 268.167969 L 274.308594 268.824219 L 273.859375 269.464844 L 273.382812 270.085938 L 272.894531 270.6875 L 272.371094 271.269531 L 271.828125 271.828125 L 271.269531 272.371094 L 270.6875 272.894531 L 270.085938 273.382812 L 269.464844 273.859375 L 268.824219 274.308594 L 268.167969 274.734375 L 267.5 275.136719 L 266.804688 275.507812 L 266.105469 275.859375 L 265.382812 276.1875 L 264.644531 276.476562 L 263.902344 276.746094 L 263.132812 276.984375 L 262.359375 277.191406 L 261.574219 277.371094 L 260.777344 277.519531 L 259.964844 277.632812 L 259.148438 277.71875 L 258.320312 277.773438 L 257.484375 277.789062 L 117.425781 277.789062 L 116.589844 277.773438 L 115.761719 277.71875 L 114.941406 277.632812 L 114.132812 277.519531 L 113.332031 277.371094 L 112.550781 277.191406 L 111.777344 276.984375 L 111.007812 276.746094 L 110.265625 276.476562 L 109.527344 276.1875 L 108.804688 275.859375 L 108.105469 275.507812 L 107.410156 275.136719 L 106.742188 274.734375 L 106.085938 274.308594 L 105.445312 273.859375 L 104.824219 273.382812 L 104.222656 272.894531 L 103.640625 272.371094 L 103.082031 271.828125 L 102.539062 271.269531 L 102.015625 270.6875 L 101.523438 270.085938 L 101.046875 269.464844 L 100.601562 268.824219 L 100.175781 268.167969 L 99.773438 267.5 L 99.402344 266.804688 L 99.050781 266.105469 L 98.722656 265.382812 L 98.433594 264.644531 L 98.164062 263.902344 L 97.925781 263.132812 L 97.71875 262.359375 L 97.539062 261.574219 L 97.390625 260.777344 L 97.277344 259.964844 L 97.1875 259.148438 L 97.136719 258.320312 L 97.121094 257.484375 L 97.121094 117.421875 L 97.136719 116.589844 L 97.1875 115.761719 L 97.277344 114.941406 L 97.390625 114.128906 L 97.539062 113.332031 L 97.71875 112.550781 L 97.925781 111.777344 L 98.164062 111.007812 L 98.433594 110.265625 L 98.722656 109.527344 L 99.050781 108.804688 L 99.402344 108.105469 L 99.773438 107.410156 L 100.175781 106.742188 L 100.601562 106.085938 L 101.046875 105.445312 L 101.523438 104.824219 L 102.015625 104.222656 L 102.539062 103.640625 L 103.082031 103.082031 L 103.640625 102.539062 L 104.222656 102.015625 L 104.824219 101.523438 L 105.445312 101.046875 L 106.085938 100.601562 L 106.742188 100.175781 L 107.410156 99.773438 L 108.105469 99.402344 L 108.804688 99.050781 L 109.527344 98.722656 L 110.265625 98.433594 L 111.007812 98.164062 L 111.777344 97.925781 L 112.550781 97.71875 L 113.332031 97.539062 L 114.132812 97.390625 L 114.941406 97.277344 L 115.761719 97.1875 L 116.589844 97.136719 L 117.425781 97.121094 L 257.484375 97.121094 L 258.320312 97.136719 Z M 19.828125 271.269531 L 19.828125 252.644531 L 51.492188 252.644531 L 51.492188 271.269531 Z M 323.417969 271.269531 L 323.417969 252.644531 L 355.082031 252.644531 L 355.082031 271.269531 Z M 252.5625 152 L 252.335938 152.03125 L 252.226562 152.050781 L 252.121094 152.074219 L 252.015625 152.105469 L 251.90625 152.132812 L 251.808594 152.171875 L 251.703125 152.207031 L 251.609375 152.253906 L 251.414062 152.355469 L 251.316406 152.410156 L 251.226562 152.46875 L 251.144531 152.527344 L 251.054688 152.597656 L 250.972656 152.664062 L 250.890625 152.738281 L 250.742188 152.886719 L 250.667969 152.96875 L 250.601562 153.050781 L 250.535156 153.140625 L 250.476562 153.222656 L 250.414062 153.3125 L 250.363281 153.40625 L 250.3125 153.503906 L 250.257812 153.601562 L 250.214844 153.699219 L 250.175781 153.800781 L 250.140625 153.898438 L 250.109375 154.011719 L 250.082031 154.117188 L 250.058594 154.21875 L 250.035156 154.332031 L 250.019531 154.445312 L 250.007812 154.554688 L 250 154.675781 L 250 203.84375 L 250.007812 203.875 L 250.007812 204.015625 L 250.011719 204.054688 L 250.011719 204.910156 L 250.007812 204.941406 L 250.007812 205.082031 L 250 205.117188 L 250 205.195312 L 249.960938 205.753906 L 249.894531 206.296875 L 249.8125 206.839844 L 249.707031 207.375 L 249.582031 207.90625 L 249.433594 208.425781 L 249.269531 208.933594 L 249.082031 209.433594 L 248.882812 209.925781 L 248.65625 210.410156 L 248.417969 210.878906 L 248.160156 211.332031 L 247.882812 211.78125 L 247.59375 212.21875 L 247.285156 212.644531 L 246.964844 213.054688 L 246.632812 213.449219 L 246.273438 213.835938 L 245.910156 214.199219 L 245.527344 214.558594 L 245.132812 214.902344 L 244.730469 215.222656 L 244.3125 215.535156 L 243.882812 215.832031 L 243.441406 216.109375 L 242.988281 216.367188 L 242.527344 216.605469 L 242.050781 216.839844 L 241.566406 217.046875 L 241.074219 217.234375 L 240.574219 217.402344 L 240.058594 217.554688 L 239.546875 217.6875 L 239.023438 217.800781 L 238.488281 217.886719 L 237.953125 217.964844 L 237.40625 218.007812 L 236.863281 218.039062 L 236.304688 218.039062 L 235.746094 218.023438 L 235.1875 217.976562 L 234.636719 217.917969 L 234.09375 217.835938 L 233.5625 217.730469 L 233.035156 217.605469 L 232.511719 217.457031 L 232.007812 217.292969 L 231.507812 217.105469 L 231.015625 216.90625 L 230.53125 216.679688 L 230.0625 216.441406 L 229.609375 216.183594 L 229.152344 215.90625 L 228.722656 215.617188 L 228.296875 215.3125 L 227.886719 214.992188 L 227.492188 214.65625 L 227.105469 214.296875 L 226.738281 213.933594 L 226.382812 213.550781 L 226.039062 213.15625 L 225.710938 212.753906 L 225.40625 212.339844 L 225.109375 211.90625 L 224.832031 211.460938 L 224.570312 211.011719 L 224.324219 210.542969 L 224.101562 210.074219 L 223.894531 209.589844 L 223.707031 209.097656 L 223.535156 208.597656 L 223.386719 208.085938 L 223.253906 207.570312 L 223.140625 207.046875 L 223.050781 206.511719 L 222.976562 205.976562 L 222.933594 205.433594 L 222.902344 204.878906 L 222.902344 204.328125 L 222.917969 203.769531 L 222.917969 154.675781 L 222.910156 154.554688 L 222.894531 154.445312 L 222.878906 154.332031 L 222.859375 154.21875 L 222.835938 154.117188 L 222.804688 154.011719 L 222.777344 153.898438 L 222.738281 153.800781 L 222.703125 153.699219 L 222.65625 153.601562 L 222.605469 153.503906 L 222.550781 153.40625 L 222.5 153.3125 L 222.441406 153.222656 L 222.382812 153.140625 L 222.3125 153.050781 L 222.246094 152.96875 L 222.171875 152.886719 L 222.023438 152.738281 L 221.941406 152.664062 L 221.859375 152.597656 L 221.769531 152.527344 L 221.6875 152.46875 L 221.597656 152.410156 L 221.5 152.355469 L 221.40625 152.304688 L 221.308594 152.253906 L 221.210938 152.207031 L 221.105469 152.171875 L 221.011719 152.132812 L 220.898438 152.105469 L 220.792969 152.074219 L 220.691406 152.050781 L 220.578125 152.03125 L 220.464844 152.015625 L 220.355469 152 L 220.234375 151.992188 L 220.011719 151.992188 L 219.894531 152 L 219.667969 152.03125 L 219.558594 152.050781 L 219.453125 152.074219 L 219.347656 152.105469 L 219.238281 152.132812 L 219.140625 152.171875 L 219.035156 152.207031 L 218.9375 152.253906 L 218.84375 152.304688 L 218.746094 152.355469 L 218.648438 152.410156 L 218.558594 152.46875 L 218.476562 152.527344 L 218.386719 152.597656 L 218.304688 152.664062 L 218.222656 152.738281 L 218.074219 152.886719 L 218 152.96875 L 217.933594 153.050781 L 217.867188 153.140625 L 217.804688 153.222656 L 217.746094 153.3125 L 217.695312 153.40625 L 217.644531 153.503906 L 217.589844 153.601562 L 217.546875 153.699219 L 217.507812 153.800781 L 217.472656 153.898438 L 217.441406 154.011719 L 217.410156 154.117188 L 217.390625 154.21875 L 217.367188 154.332031 L 217.351562 154.445312 L 217.335938 154.554688 L 217.328125 154.675781 L 217.328125 203.851562 L 217.324219 203.898438 L 217.324219 204.070312 L 217.316406 204.105469 L 217.316406 205.117188 L 217.324219 205.164062 L 217.324219 205.335938 L 217.328125 205.371094 L 217.328125 205.460938 L 217.382812 206.242188 L 217.464844 207.027344 L 217.574219 207.792969 L 217.71875 208.554688 L 217.886719 209.296875 L 218.089844 210.027344 L 218.3125 210.75 L 218.574219 211.460938 L 218.855469 212.160156 L 219.164062 212.835938 L 219.496094 213.507812 L 219.855469 214.15625 L 220.234375 214.789062 L 220.636719 215.40625 L 221.070312 216.011719 L 221.515625 216.59375 L 221.992188 217.160156 L 222.484375 217.703125 L 223 218.230469 L 223.527344 218.738281 L 224.078125 219.222656 L 224.652344 219.691406 L 225.234375 220.132812 L 225.84375 220.546875 L 226.464844 220.949219 L 227.097656 221.324219 L 227.753906 221.671875 L 228.414062 221.992188 L 229.101562 222.292969 L 229.792969 222.566406 L 230.496094 222.8125 L 231.21875 223.035156 L 231.941406 223.230469 L 232.683594 223.386719 L 233.429688 223.527344 L 234.1875 223.632812 L 234.957031 223.707031 L 235.730469 223.75 L 236.515625 223.757812 L 237.304688 223.746094 L 238.09375 223.691406 L 238.867188 223.609375 L 239.636719 223.5 L 240.394531 223.355469 L 241.140625 223.1875 L 241.878906 222.984375 L 242.59375 222.753906 L 243.308594 222.5 L 244 222.21875 L 244.679688 221.910156 L 245.351562 221.578125 L 245.996094 221.21875 L 246.632812 220.839844 L 247.25 220.429688 L 247.851562 220.003906 L 248.433594 219.558594 L 249 219.082031 L 249.542969 218.589844 L 250.074219 218.074219 L 250.578125 217.546875 L 251.0625 216.996094 L 251.535156 216.421875 L 251.972656 215.832031 L 252.398438 215.230469 L 252.792969 214.609375 L 253.164062 213.96875 L 253.515625 213.320312 L 253.84375 212.660156 L 254.140625 211.972656 L 254.410156 211.28125 L 254.65625 210.578125 L 254.878906 209.855469 L 255.070312 209.132812 L 255.234375 208.390625 L 255.371094 207.644531 L 255.472656 206.882812 L 255.550781 206.117188 L 255.59375 205.34375 L 255.609375 204.558594 L 255.585938 203.769531 L 255.585938 154.675781 L 255.578125 154.554688 L 255.5625 154.445312 L 255.550781 154.332031 L 255.527344 154.21875 L 255.503906 154.117188 L 255.472656 154.011719 L 255.445312 153.898438 L 255.40625 153.800781 L 255.371094 153.699219 L 255.324219 153.601562 L 255.222656 153.40625 L 255.167969 153.3125 L 255.109375 153.222656 L 255.050781 153.140625 L 254.984375 153.050781 L 254.914062 152.96875 L 254.839844 152.886719 L 254.691406 152.738281 L 254.609375 152.664062 L 254.527344 152.597656 L 254.4375 152.527344 L 254.355469 152.46875 L 254.265625 152.410156 L 254.171875 152.355469 L 253.976562 152.253906 L 253.878906 152.207031 L 253.777344 152.171875 L 253.679688 152.132812 L 253.566406 152.105469 L 253.460938 152.074219 L 253.359375 152.050781 L 253.246094 152.03125 L 253.136719 152.015625 L 253.023438 152 L 252.902344 151.992188 L 252.679688 151.992188 Z M 136.816406 151.21875 L 136.042969 151.300781 L 135.273438 151.410156 L 134.515625 151.554688 L 133.769531 151.722656 L 133.03125 151.925781 L 132.316406 152.15625 L 131.601562 152.410156 L 130.910156 152.691406 L 130.230469 153 L 129.558594 153.332031 L 128.910156 153.691406 L 128.277344 154.070312 L 127.660156 154.480469 L 127.058594 154.90625 L 126.476562 155.351562 L 125.910156 155.828125 L 125.367188 156.320312 L 124.835938 156.835938 L 124.332031 157.363281 L 123.847656 157.914062 L 123.375 158.488281 L 122.9375 159.078125 L 122.511719 159.679688 L 122.117188 160.300781 L 121.746094 160.941406 L 121.394531 161.589844 L 121.066406 162.25 L 120.769531 162.9375 L 120.5 163.628906 L 120.253906 164.328125 L 120.03125 165.050781 L 119.835938 165.773438 L 119.671875 166.519531 L 119.539062 167.265625 L 119.433594 168.023438 L 119.359375 168.792969 L 119.316406 169.566406 L 119.300781 170.347656 L 119.324219 171.140625 L 119.324219 203.777344 L 119.316406 203.824219 L 119.316406 203.992188 L 119.308594 204.03125 L 119.308594 205.042969 L 119.316406 205.089844 L 119.316406 205.261719 L 119.324219 205.296875 L 119.324219 205.386719 L 119.375 206.167969 L 119.457031 206.953125 L 119.570312 207.71875 L 119.710938 208.480469 L 119.882812 209.222656 L 120.082031 209.953125 L 120.308594 210.675781 L 120.566406 211.382812 L 120.851562 212.085938 L 121.15625 212.761719 L 121.492188 213.433594 L 121.847656 214.082031 L 122.230469 214.714844 L 122.632812 215.332031 L 123.0625 215.9375 L 123.511719 216.519531 L 123.988281 217.082031 L 124.480469 217.628906 L 124.992188 218.15625 L 125.523438 218.664062 L 126.074219 219.148438 L 126.648438 219.617188 L 127.226562 220.054688 L 127.839844 220.472656 L 128.457031 220.875 L 129.089844 221.25 L 129.746094 221.597656 L 130.410156 221.917969 L 131.09375 222.21875 L 131.789062 222.492188 L 132.488281 222.738281 L 133.210938 222.960938 L 133.933594 223.15625 L 134.679688 223.3125 L 135.421875 223.453125 L 136.183594 223.558594 L 136.949219 223.632812 L 137.726562 223.675781 L 138.507812 223.683594 L 139.296875 223.667969 L 140.085938 223.617188 L 140.863281 223.535156 L 141.628906 223.425781 L 142.390625 223.28125 L 143.132812 223.109375 L 143.871094 222.910156 L 144.585938 222.679688 L 145.300781 222.425781 L 145.996094 222.140625 L 146.671875 221.835938 L 147.34375 221.5 L 147.992188 221.144531 L 148.625 220.765625 L 149.242188 220.355469 L 149.847656 219.929688 L 150.429688 219.484375 L 150.992188 219.007812 L 151.539062 218.515625 L 152.066406 218 L 152.574219 217.472656 L 153.058594 216.921875 L 153.527344 216.347656 L 153.964844 215.757812 L 154.390625 215.15625 L 154.785156 214.535156 L 155.160156 213.894531 L 155.507812 213.246094 L 155.835938 212.585938 L 156.132812 211.898438 L 156.402344 211.207031 L 156.648438 210.503906 L 156.871094 209.78125 L 157.066406 209.058594 L 157.230469 208.316406 L 157.363281 207.570312 L 157.46875 206.808594 L 157.542969 206.042969 L 157.585938 205.269531 L 157.601562 204.484375 L 157.578125 203.695312 L 157.578125 203.585938 L 157.574219 203.464844 L 157.558594 203.351562 L 157.542969 203.242188 L 157.519531 203.128906 L 157.496094 203.027344 L 157.46875 202.921875 L 157.4375 202.808594 L 157.402344 202.710938 L 157.363281 202.609375 L 157.320312 202.511719 L 157.265625 202.414062 L 157.214844 202.316406 L 157.164062 202.222656 L 157.101562 202.132812 L 157.042969 202.050781 L 156.976562 201.960938 L 156.910156 201.878906 L 156.835938 201.796875 L 156.6875 201.648438 L 156.605469 201.574219 L 156.523438 201.503906 L 156.433594 201.4375 L 156.351562 201.378906 L 156.261719 201.320312 L 156.164062 201.265625 L 156.066406 201.214844 L 155.972656 201.164062 L 155.875 201.117188 L 155.769531 201.082031 L 155.671875 201.042969 L 155.5625 201.015625 L 155.457031 200.984375 L 155.351562 200.960938 L 155.242188 200.941406 L 155.015625 200.910156 L 154.898438 200.902344 L 154.675781 200.902344 L 154.554688 200.910156 L 154.445312 200.925781 L 154.332031 200.941406 L 154.21875 200.960938 L 154.117188 200.984375 L 154.011719 201.015625 L 153.898438 201.042969 L 153.800781 201.082031 L 153.699219 201.117188 L 153.601562 201.164062 L 153.40625 201.265625 L 153.3125 201.320312 L 153.222656 201.378906 L 153.140625 201.4375 L 153.050781 201.503906 L 152.96875 201.574219 L 152.886719 201.648438 L 152.738281 201.796875 L 152.664062 201.878906 L 152.597656 201.960938 L 152.527344 202.050781 L 152.46875 202.132812 L 152.410156 202.222656 L 152.355469 202.316406 L 152.253906 202.511719 L 152.207031 202.609375 L 152.171875 202.710938 L 152.132812 202.808594 L 152.105469 202.921875 L 152.074219 203.027344 L 152.050781 203.128906 L 152.03125 203.242188 L 152.015625 203.351562 L 152 203.464844 L 151.992188 203.585938 L 151.992188 203.695312 L 151.976562 204.253906 L 151.949219 204.804688 L 151.894531 205.351562 L 151.8125 205.894531 L 151.714844 206.421875 L 151.597656 206.953125 L 151.464844 207.464844 L 151.308594 207.972656 L 151.128906 208.472656 L 150.925781 208.964844 L 150.71875 209.449219 L 150.488281 209.917969 L 150.234375 210.378906 L 149.964844 210.824219 L 149.683594 211.265625 L 149.386719 211.691406 L 149.070312 212.105469 L 148.738281 212.507812 L 148.394531 212.898438 L 148.035156 213.269531 L 147.664062 213.632812 L 147.277344 213.976562 L 146.875 214.3125 L 146.457031 214.625 L 146.03125 214.921875 L 145.59375 215.214844 L 145.144531 215.480469 L 144.683594 215.726562 L 144.214844 215.964844 L 143.738281 216.183594 L 143.246094 216.375 L 142.746094 216.554688 L 142.238281 216.710938 L 141.71875 216.851562 L 141.195312 216.972656 L 140.667969 217.070312 L 140.125 217.152344 L 139.582031 217.210938 L 139.027344 217.242188 L 138.46875 217.253906 L 137.910156 217.242188 L 137.359375 217.210938 L 136.816406 217.160156 L 136.28125 217.078125 L 135.75 216.980469 L 135.222656 216.859375 L 134.707031 216.726562 L 134.203125 216.570312 L 133.703125 216.390625 L 133.210938 216.199219 L 132.734375 215.980469 L 132.257812 215.75 L 131.800781 215.503906 L 131.347656 215.234375 L 130.914062 214.953125 L 130.484375 214.65625 L 130.074219 214.34375 L 129.671875 214.015625 L 129.285156 213.671875 L 128.910156 213.308594 L 128.546875 212.933594 L 128.203125 212.554688 L 127.867188 212.152344 L 127.554688 211.742188 L 127.25 211.316406 L 126.96875 210.878906 L 126.699219 210.429688 L 126.445312 209.976562 L 126.214844 209.507812 L 126 209.023438 L 125.796875 208.539062 L 125.617188 208.039062 L 125.460938 207.53125 L 125.320312 207.011719 L 125.203125 206.488281 L 125.097656 205.960938 L 125.023438 205.425781 L 124.964844 204.878906 L 124.925781 204.328125 L 124.910156 203.769531 L 124.910156 171.066406 L 124.902344 171.035156 L 124.902344 170.894531 L 124.894531 170.855469 L 124.894531 170 L 124.902344 169.96875 L 124.902344 169.828125 L 124.910156 169.789062 L 124.910156 169.714844 L 124.949219 169.15625 L 125.015625 168.613281 L 125.097656 168.070312 L 125.203125 167.535156 L 125.328125 167.003906 L 125.476562 166.484375 L 125.640625 165.976562 L 125.828125 165.476562 L 126.027344 164.984375 L 126.253906 164.5 L 126.492188 164.03125 L 126.75 163.578125 L 127.027344 163.128906 L 127.316406 162.691406 L 127.621094 162.265625 L 127.945312 161.855469 L 128.277344 161.460938 L 128.636719 161.074219 L 129 160.707031 L 129.382812 160.351562 L 129.777344 160.007812 L 130.179688 159.6875 L 130.59375 159.375 L 131.027344 159.078125 L 131.46875 158.800781 L 131.921875 158.539062 L 132.382812 158.300781 L 132.859375 158.070312 L 133.34375 157.863281 L 133.835938 157.675781 L 134.335938 157.503906 L 134.851562 157.355469 L 135.363281 157.222656 L 135.886719 157.109375 L 136.421875 157.019531 L 136.957031 156.945312 L 137.5 156.902344 L 138.046875 156.871094 L 138.605469 156.871094 L 139.164062 156.886719 L 139.722656 156.933594 L 140.273438 156.992188 L 140.816406 157.074219 L 141.347656 157.175781 L 141.875 157.304688 L 142.398438 157.453125 L 142.902344 157.617188 L 143.402344 157.804688 L 143.894531 158.003906 L 144.378906 158.226562 L 144.847656 158.464844 L 145.300781 158.726562 L 145.757812 159.003906 L 146.1875 159.292969 L 146.613281 159.597656 L 147.023438 159.917969 L 147.417969 160.253906 L 147.804688 160.613281 L 148.171875 160.976562 L 148.527344 161.355469 L 148.871094 161.753906 L 149.199219 162.152344 L 149.503906 162.570312 L 149.800781 163.003906 L 150.078125 163.449219 L 150.339844 163.898438 L 150.585938 164.367188 L 150.808594 164.835938 L 151.015625 165.320312 L 151.203125 165.8125 L 151.375 166.3125 L 151.523438 166.824219 L 151.65625 167.339844 L 151.769531 167.859375 L 151.859375 168.398438 L 151.933594 168.933594 L 151.976562 169.476562 L 152.007812 170.027344 L 152.007812 170.582031 L 151.992188 171.140625 L 151.992188 171.25 L 152 171.371094 L 152.015625 171.480469 L 152.03125 171.59375 L 152.050781 171.707031 L 152.074219 171.808594 L 152.105469 171.914062 L 152.132812 172.027344 L 152.171875 172.121094 L 152.207031 172.226562 L 152.253906 172.324219 L 152.304688 172.421875 L 152.355469 172.515625 L 152.410156 172.613281 L 152.46875 172.703125 L 152.527344 172.785156 L 152.597656 172.875 L 152.664062 172.957031 L 152.738281 173.039062 L 152.886719 173.1875 L 152.96875 173.261719 L 153.050781 173.328125 L 153.140625 173.394531 L 153.222656 173.457031 L 153.3125 173.515625 L 153.40625 173.566406 L 153.503906 173.621094 L 153.601562 173.671875 L 153.699219 173.71875 L 153.800781 173.753906 L 153.898438 173.792969 L 154.011719 173.820312 L 154.117188 173.851562 L 154.21875 173.875 L 154.332031 173.894531 L 154.445312 173.910156 L 154.554688 173.925781 L 154.675781 173.933594 L 154.898438 173.933594 L 155.015625 173.925781 L 155.242188 173.894531 L 155.351562 173.875 L 155.457031 173.851562 L 155.5625 173.820312 L 155.671875 173.792969 L 155.769531 173.753906 L 155.875 173.71875 L 155.972656 173.671875 L 156.066406 173.621094 L 156.164062 173.566406 L 156.261719 173.515625 L 156.351562 173.457031 L 156.433594 173.394531 L 156.523438 173.328125 L 156.605469 173.261719 L 156.6875 173.1875 L 156.835938 173.039062 L 156.910156 172.957031 L 156.976562 172.875 L 157.042969 172.785156 L 157.101562 172.703125 L 157.164062 172.613281 L 157.214844 172.515625 L 157.265625 172.421875 L 157.320312 172.324219 L 157.363281 172.226562 L 157.402344 172.121094 L 157.4375 172.027344 L 157.46875 171.914062 L 157.496094 171.808594 L 157.519531 171.707031 L 157.542969 171.59375 L 157.558594 171.480469 L 157.574219 171.371094 L 157.578125 171.25 L 157.578125 171.058594 L 157.585938 171.011719 L 157.585938 170.839844 L 157.59375 170.804688 L 157.59375 170.335938 L 157.601562 170.296875 L 157.59375 170.253906 L 157.59375 169.789062 L 157.585938 169.746094 L 157.585938 169.574219 L 157.578125 169.539062 L 157.578125 169.449219 L 157.527344 168.664062 L 157.445312 167.882812 L 157.335938 167.117188 L 157.191406 166.355469 L 157.019531 165.609375 L 156.820312 164.882812 L 156.597656 164.160156 L 156.335938 163.449219 L 156.050781 162.75 L 155.746094 162.074219 L 155.410156 161.402344 L 155.054688 160.753906 L 154.675781 160.121094 L 154.273438 159.503906 L 153.839844 158.898438 L 153.394531 158.316406 L 152.917969 157.75 L 152.425781 157.207031 L 151.910156 156.679688 L 151.382812 156.171875 L 150.832031 155.6875 L 150.257812 155.21875 L 149.675781 154.777344 L 149.066406 154.363281 L 148.445312 153.960938 L 147.8125 153.585938 L 147.15625 153.238281 L 146.496094 152.917969 L 145.808594 152.617188 L 145.117188 152.34375 L 144.414062 152.097656 L 143.691406 151.875 L 142.96875 151.679688 L 142.226562 151.523438 L 141.480469 151.382812 L 140.71875 151.277344 L 139.953125 151.203125 L 139.179688 151.15625 L 138.394531 151.152344 L 137.605469 151.164062 Z M 171.027344 151.992188 L 170.90625 152 L 170.796875 152.015625 L 170.683594 152.03125 L 170.574219 152.050781 L 170.46875 152.074219 L 170.363281 152.105469 L 170.253906 152.132812 L 170.15625 152.171875 L 170.050781 152.207031 L 169.953125 152.253906 L 169.859375 152.304688 L 169.761719 152.355469 L 169.664062 152.410156 L 169.574219 152.46875 L 169.492188 152.527344 L 169.402344 152.597656 L 169.320312 152.664062 L 169.238281 152.738281 L 169.089844 152.886719 L 169.015625 152.96875 L 168.949219 153.050781 L 168.882812 153.140625 L 168.820312 153.222656 L 168.761719 153.3125 L 168.710938 153.40625 L 168.660156 153.503906 L 168.605469 153.601562 L 168.5625 153.699219 L 168.523438 153.800781 L 168.488281 153.898438 L 168.457031 154.011719 L 168.425781 154.117188 L 168.40625 154.21875 L 168.382812 154.332031 L 168.367188 154.445312 L 168.351562 154.554688 L 168.34375 154.675781 L 168.34375 220.160156 L 168.351562 220.28125 L 168.367188 220.390625 L 168.382812 220.503906 L 168.40625 220.617188 L 168.425781 220.71875 L 168.457031 220.824219 L 168.488281 220.9375 L 168.523438 221.03125 L 168.5625 221.136719 L 168.605469 221.234375 L 168.660156 221.332031 L 168.710938 221.425781 L 168.761719 221.523438 L 168.820312 221.613281 L 168.882812 221.695312 L 168.949219 221.785156 L 169.015625 221.867188 L 169.089844 221.949219 L 169.238281 222.097656 L 169.320312 222.171875 L 169.402344 222.238281 L 169.492188 222.304688 L 169.574219 222.367188 L 169.664062 222.425781 L 169.761719 222.476562 L 169.859375 222.53125 L 169.953125 222.582031 L 170.050781 222.625 L 170.15625 222.664062 L 170.253906 222.703125 L 170.363281 222.730469 L 170.46875 222.761719 L 170.574219 222.785156 L 170.683594 222.804688 L 170.796875 222.820312 L 170.90625 222.835938 L 171.027344 222.84375 L 171.25 222.84375 L 171.371094 222.835938 L 171.480469 222.820312 L 171.59375 222.804688 L 171.707031 222.785156 L 171.808594 222.761719 L 171.914062 222.730469 L 172.027344 222.703125 L 172.121094 222.664062 L 172.226562 222.625 L 172.324219 222.582031 L 172.421875 222.53125 L 172.515625 222.476562 L 172.613281 222.425781 L 172.703125 222.367188 L 172.785156 222.304688 L 172.875 222.238281 L 172.957031 222.171875 L 173.039062 222.097656 L 173.1875 221.949219 L 173.261719 221.867188 L 173.328125 221.785156 L 173.398438 221.695312 L 173.457031 221.613281 L 173.515625 221.523438 L 173.566406 221.425781 L 173.621094 221.332031 L 173.671875 221.234375 L 173.71875 221.136719 L 173.753906 221.03125 L 173.792969 220.9375 L 173.820312 220.824219 L 173.851562 220.71875 L 173.875 220.617188 L 173.894531 220.503906 L 173.910156 220.390625 L 173.925781 220.28125 L 173.933594 220.160156 L 173.933594 190.25 L 187.453125 190.25 L 188.191406 190.203125 L 188.921875 190.128906 L 189.652344 190.023438 L 190.359375 189.898438 L 191.066406 189.742188 L 191.761719 189.5625 L 192.445312 189.363281 L 193.117188 189.132812 L 193.78125 188.878906 L 194.429688 188.601562 L 195.070312 188.304688 L 195.695312 187.976562 L 196.304688 187.632812 L 196.902344 187.269531 L 197.484375 186.882812 L 198.050781 186.480469 L 198.601562 186.054688 L 199.128906 185.605469 L 199.652344 185.144531 L 200.148438 184.660156 L 200.632812 184.160156 L 201.097656 183.640625 L 201.542969 183.105469 L 201.96875 182.550781 L 202.378906 181.988281 L 202.757812 181.40625 L 203.121094 180.808594 L 203.472656 180.207031 L 203.792969 179.578125 L 204.089844 178.9375 L 204.367188 178.292969 L 204.621094 177.628906 L 204.851562 176.957031 L 205.050781 176.273438 L 205.230469 175.578125 L 205.386719 174.871094 L 205.515625 174.15625 L 205.617188 173.433594 L 205.691406 172.703125 L 205.738281 171.964844 L 205.761719 171.175781 L 205.746094 170.394531 L 205.699219 169.621094 L 205.625 168.851562 L 205.519531 168.09375 L 205.386719 167.347656 L 205.222656 166.601562 L 205.03125 165.878906 L 204.8125 165.15625 L 204.566406 164.457031 L 204.292969 163.761719 L 203.992188 163.078125 L 203.667969 162.414062 L 203.316406 161.757812 L 202.945312 161.125 L 202.546875 160.507812 L 202.125 159.898438 L 201.683594 159.316406 L 201.222656 158.742188 L 200.730469 158.191406 L 200.222656 157.660156 L 199.703125 157.148438 L 199.152344 156.65625 L 198.585938 156.179688 L 198.003906 155.730469 L 197.402344 155.300781 L 196.78125 154.898438 L 196.148438 154.519531 L 195.5 154.160156 L 194.832031 153.824219 L 194.152344 153.519531 L 193.460938 153.238281 L 192.75 152.976562 L 192.027344 152.753906 L 191.292969 152.550781 L 190.546875 152.378906 L 189.785156 152.238281 L 189.019531 152.125 L 188.246094 152.042969 L 187.453125 151.992188 Z M 323.417969 196.765625 L 323.417969 178.140625 L 355.082031 178.140625 L 355.082031 196.765625 Z M 19.828125 196.765625 L 19.828125 178.140625 L 51.492188 178.140625 L 51.492188 196.765625 Z M 189.085938 157.839844 L 189.882812 158.003906 L 190.660156 158.214844 L 191.417969 158.464844 L 192.148438 158.757812 L 192.863281 159.09375 L 193.554688 159.472656 L 194.21875 159.882812 L 194.859375 160.328125 L 195.472656 160.8125 L 196.050781 161.335938 L 196.605469 161.886719 L 197.125 162.46875 L 197.609375 163.078125 L 198.054688 163.71875 L 198.472656 164.382812 L 198.847656 165.074219 L 199.179688 165.789062 L 199.480469 166.527344 L 199.726562 167.28125 L 199.933594 168.054688 L 200.097656 168.851562 L 200.21875 169.65625 L 200.285156 170.484375 L 200.304688 171.378906 L 200.261719 172.257812 L 200.171875 173.121094 L 200.023438 173.96875 L 199.820312 174.796875 L 199.570312 175.609375 L 199.269531 176.398438 L 198.921875 177.167969 L 198.527344 177.902344 L 198.09375 178.617188 L 197.617188 179.304688 L 197.09375 179.953125 L 196.535156 180.570312 L 195.941406 181.160156 L 195.316406 181.703125 L 194.652344 182.210938 L 193.957031 182.679688 L 193.230469 183.105469 L 192.476562 183.484375 L 191.703125 183.820312 L 190.898438 184.109375 L 190.0625 184.339844 L 189.214844 184.527344 L 188.339844 184.660156 L 187.453125 184.734375 L 173.933594 184.734375 L 173.933594 157.65625 L 187.453125 157.65625 L 188.28125 157.722656 Z M 19.828125 122.265625 L 19.828125 103.640625 L 51.492188 103.640625 L 51.492188 122.265625 Z M 323.417969 122.265625 L 323.417969 103.640625 L 355.082031 103.640625 L 355.082031 122.265625 Z M 103.640625 51.492188 L 103.640625 19.828125 L 122.265625 19.828125 L 122.265625 51.492188 Z M 252.644531 51.492188 L 252.644531 19.828125 L 271.269531 19.828125 L 271.269531 51.492188 Z M 178.140625 51.492188 L 178.140625 19.828125 L 196.765625 19.828125 L 196.765625 51.492188 Z M 178.140625 51.492188 " clip-rule="nonzero"/></clipPath><linearGradient x1="250" gradientTransform="matrix(0.745011, 0, 0, 0.745011, 1.202119, 1.20209)" y1="24.999989" x2="250" gradientUnits="userSpaceOnUse" y2="474.999996" id="id3"><stop stop-opacity="1" stop-color="rgb(17.298889%, 92.498779%, 100%)" offset="0"/><stop stop-opacity="1" stop-color="rgb(17.611694%, 92.3172%, 100%)" offset="0.00390625"/><stop stop-opacity="1" stop-color="rgb(17.926025%, 92.13562%, 100%)" offset="0.0078125"/><stop stop-opacity="1" stop-color="rgb(18.238831%, 91.952515%, 100%)" offset="0.0117187"/><stop stop-opacity="1" stop-color="rgb(18.553162%, 91.770935%, 100%)" offset="0.015625"/><stop stop-opacity="1" stop-color="rgb(18.867493%, 91.589355%, 100%)" offset="0.0195312"/><stop stop-opacity="1" stop-color="rgb(19.181824%, 91.407776%, 100%)" offset="0.0234375"/><stop stop-opacity="1" stop-color="rgb(19.494629%, 91.22467%, 100%)" offset="0.0273438"/><stop stop-opacity="1" stop-color="rgb(19.80896%, 91.043091%, 100%)" offset="0.03125"/><stop stop-opacity="1" stop-color="rgb(20.121765%, 90.859985%, 100%)" offset="0.0351562"/><stop stop-opacity="1" stop-color="rgb(20.436096%, 90.678406%, 100%)" offset="0.0390625"/><stop stop-opacity="1" stop-color="rgb(20.748901%, 90.496826%, 100%)" offset="0.0429688"/><stop stop-opacity="1" stop-color="rgb(21.063232%, 90.315247%, 100%)" offset="0.046875"/><stop stop-opacity="1" stop-color="rgb(21.376038%, 90.132141%, 100%)" offset="0.0507812"/><stop stop-opacity="1" stop-color="rgb(21.690369%, 89.950562%, 100%)" offset="0.0546875"/><stop stop-opacity="1" stop-color="rgb(22.003174%, 89.768982%, 100%)" offset="0.0585938"/><stop stop-opacity="1" stop-color="rgb(22.317505%, 89.587402%, 100%)" offset="0.0625"/><stop stop-opacity="1" stop-color="rgb(22.63031%, 89.404297%, 100%)" offset="0.0664063"/><stop stop-opacity="1" stop-color="rgb(22.944641%, 89.222717%, 100%)" offset="0.0703125"/><stop stop-opacity="1" stop-color="rgb(23.258972%, 89.039612%, 100%)" offset="0.0742188"/><stop stop-opacity="1" stop-color="rgb(23.573303%, 88.858032%, 100%)" offset="0.078125"/><stop stop-opacity="1" stop-color="rgb(23.886108%, 88.676453%, 100%)" offset="0.0820312"/><stop stop-opacity="1" stop-color="rgb(24.200439%, 88.494873%, 100%)" offset="0.0859375"/><stop stop-opacity="1" stop-color="rgb(24.513245%, 88.311768%, 100%)" offset="0.0898437"/><stop stop-opacity="1" stop-color="rgb(24.827576%, 88.130188%, 100%)" offset="0.09375"/><stop stop-opacity="1" stop-color="rgb(25.140381%, 87.948608%, 100%)" offset="0.0976563"/><stop stop-opacity="1" stop-color="rgb(25.454712%, 87.767029%, 100%)" offset="0.101562"/><stop stop-opacity="1" stop-color="rgb(25.767517%, 87.583923%, 100%)" offset="0.105469"/><stop stop-opacity="1" stop-color="rgb(26.081848%, 87.402344%, 100%)" offset="0.109375"/><stop stop-opacity="1" stop-color="rgb(26.394653%, 87.219238%, 100%)" offset="0.113281"/><stop stop-opacity="1" stop-color="rgb(26.708984%, 87.037659%, 100%)" offset="0.117188"/><stop stop-opacity="1" stop-color="rgb(27.02179%, 86.856079%, 100%)" offset="0.121094"/><stop stop-opacity="1" stop-color="rgb(27.336121%, 86.6745%, 100%)" offset="0.125"/><stop stop-opacity="1" stop-color="rgb(27.650452%, 86.491394%, 100%)" offset="0.128906"/><stop stop-opacity="1" stop-color="rgb(27.964783%, 86.309814%, 100%)" offset="0.132812"/><stop stop-opacity="1" stop-color="rgb(28.277588%, 86.128235%, 100%)" offset="0.136719"/><stop stop-opacity="1" stop-color="rgb(28.591919%, 85.946655%, 100%)" offset="0.140625"/><stop stop-opacity="1" stop-color="rgb(28.904724%, 85.76355%, 100%)" offset="0.144531"/><stop stop-opacity="1" stop-color="rgb(29.219055%, 85.58197%, 100%)" offset="0.148437"/><stop stop-opacity="1" stop-color="rgb(29.53186%, 85.398865%, 100%)" offset="0.152344"/><stop stop-opacity="1" stop-color="rgb(29.846191%, 85.217285%, 100%)" offset="0.15625"/><stop stop-opacity="1" stop-color="rgb(30.158997%, 85.035706%, 100%)" offset="0.160156"/><stop stop-opacity="1" stop-color="rgb(30.473328%, 84.854126%, 100%)" offset="0.164062"/><stop stop-opacity="1" stop-color="rgb(30.786133%, 84.671021%, 100%)" offset="0.167969"/><stop stop-opacity="1" stop-color="rgb(31.100464%, 84.489441%, 100%)" offset="0.171875"/><stop stop-opacity="1" stop-color="rgb(31.413269%, 84.307861%, 100%)" offset="0.175781"/><stop stop-opacity="1" stop-color="rgb(31.7276%, 84.126282%, 100%)" offset="0.179687"/><stop stop-opacity="1" stop-color="rgb(32.040405%, 83.943176%, 100%)" offset="0.183594"/><stop stop-opacity="1" stop-color="rgb(32.354736%, 83.761597%, 100%)" offset="0.1875"/><stop stop-opacity="1" stop-color="rgb(32.669067%, 83.580017%, 100%)" offset="0.191406"/><stop stop-opacity="1" stop-color="rgb(32.983398%, 83.398438%, 100%)" offset="0.195312"/><stop stop-opacity="1" stop-color="rgb(33.296204%, 83.215332%, 100%)" offset="0.199219"/><stop stop-opacity="1" stop-color="rgb(33.610535%, 83.033752%, 100%)" offset="0.203125"/><stop stop-opacity="1" stop-color="rgb(33.92334%, 82.850647%, 100%)" offset="0.207031"/><stop stop-opacity="1" stop-color="rgb(34.237671%, 82.669067%, 100%)" offset="0.210937"/><stop stop-opacity="1" stop-color="rgb(34.550476%, 82.487488%, 100%)" offset="0.214844"/><stop stop-opacity="1" stop-color="rgb(34.864807%, 82.305908%, 100%)" offset="0.21875"/><stop stop-opacity="1" stop-color="rgb(35.177612%, 82.122803%, 100%)" offset="0.222656"/><stop stop-opacity="1" stop-color="rgb(35.491943%, 81.941223%, 100%)" offset="0.226562"/><stop stop-opacity="1" stop-color="rgb(35.804749%, 81.759644%, 100%)" offset="0.230469"/><stop stop-opacity="1" stop-color="rgb(36.11908%, 81.578064%, 100%)" offset="0.234375"/><stop stop-opacity="1" stop-color="rgb(36.431885%, 81.394958%, 100%)" offset="0.238281"/><stop stop-opacity="1" stop-color="rgb(36.746216%, 81.213379%, 100%)" offset="0.242187"/><stop stop-opacity="1" stop-color="rgb(37.060547%, 81.030273%, 100%)" offset="0.246094"/><stop stop-opacity="1" stop-color="rgb(37.374878%, 80.848694%, 100%)" offset="0.25"/><stop stop-opacity="1" stop-color="rgb(37.687683%, 80.667114%, 100%)" offset="0.253906"/><stop stop-opacity="1" stop-color="rgb(38.002014%, 80.485535%, 100%)" offset="0.257813"/><stop stop-opacity="1" stop-color="rgb(38.314819%, 80.302429%, 100%)" offset="0.261719"/><stop stop-opacity="1" stop-color="rgb(38.62915%, 80.12085%, 100%)" offset="0.265625"/><stop stop-opacity="1" stop-color="rgb(38.941956%, 79.93927%, 100%)" offset="0.269531"/><stop stop-opacity="1" stop-color="rgb(39.256287%, 79.75769%, 100%)" offset="0.273438"/><stop stop-opacity="1" stop-color="rgb(39.569092%, 79.574585%, 100%)" offset="0.277344"/><stop stop-opacity="1" stop-color="rgb(39.883423%, 79.393005%, 100%)" offset="0.28125"/><stop stop-opacity="1" stop-color="rgb(40.196228%, 79.2099%, 100%)" offset="0.285156"/><stop stop-opacity="1" stop-color="rgb(40.510559%, 79.02832%, 100%)" offset="0.289062"/><stop stop-opacity="1" stop-color="rgb(40.823364%, 78.846741%, 100%)" offset="0.292969"/><stop stop-opacity="1" stop-color="rgb(41.137695%, 78.665161%, 100%)" offset="0.296875"/><stop stop-opacity="1" stop-color="rgb(41.452026%, 78.482056%, 100%)" offset="0.300781"/><stop stop-opacity="1" stop-color="rgb(41.766357%, 78.300476%, 100%)" offset="0.304688"/><stop stop-opacity="1" stop-color="rgb(42.079163%, 78.118896%, 100%)" offset="0.308594"/><stop stop-opacity="1" stop-color="rgb(42.393494%, 77.937317%, 100%)" offset="0.3125"/><stop stop-opacity="1" stop-color="rgb(42.706299%, 77.754211%, 100%)" offset="0.316406"/><stop stop-opacity="1" stop-color="rgb(43.02063%, 77.572632%, 100%)" offset="0.320312"/><stop stop-opacity="1" stop-color="rgb(43.333435%, 77.389526%, 100%)" offset="0.324219"/><stop stop-opacity="1" stop-color="rgb(43.647766%, 77.207947%, 100%)" offset="0.328125"/><stop stop-opacity="1" stop-color="rgb(43.960571%, 77.026367%, 100%)" offset="0.332031"/><stop stop-opacity="1" stop-color="rgb(44.274902%, 76.844788%, 100%)" offset="0.335938"/><stop stop-opacity="1" stop-color="rgb(44.587708%, 76.661682%, 100%)" offset="0.339844"/><stop stop-opacity="1" stop-color="rgb(44.902039%, 76.480103%, 100%)" offset="0.34375"/><stop stop-opacity="1" stop-color="rgb(45.214844%, 76.298523%, 100%)" offset="0.347656"/><stop stop-opacity="1" stop-color="rgb(45.529175%, 76.116943%, 100%)" offset="0.351562"/><stop stop-opacity="1" stop-color="rgb(45.84198%, 75.933838%, 100%)" offset="0.355469"/><stop stop-opacity="1" stop-color="rgb(46.156311%, 75.752258%, 100%)" offset="0.359375"/><stop stop-opacity="1" stop-color="rgb(46.470642%, 75.569153%, 100%)" offset="0.363281"/><stop stop-opacity="1" stop-color="rgb(46.784973%, 75.387573%, 100%)" offset="0.367187"/><stop stop-opacity="1" stop-color="rgb(47.097778%, 75.205994%, 100%)" offset="0.371094"/><stop stop-opacity="1" stop-color="rgb(47.412109%, 75.024414%, 100%)" offset="0.375"/><stop stop-opacity="1" stop-color="rgb(47.724915%, 74.841309%, 100%)" offset="0.378906"/><stop stop-opacity="1" stop-color="rgb(48.039246%, 74.659729%, 100%)" offset="0.382813"/><stop stop-opacity="1" stop-color="rgb(48.352051%, 74.478149%, 100%)" offset="0.386719"/><stop stop-opacity="1" stop-color="rgb(48.666382%, 74.29657%, 100%)" offset="0.390625"/><stop stop-opacity="1" stop-color="rgb(48.979187%, 74.113464%, 100%)" offset="0.394531"/><stop stop-opacity="1" stop-color="rgb(49.293518%, 73.931885%, 100%)" offset="0.398438"/><stop stop-opacity="1" stop-color="rgb(49.606323%, 73.750305%, 100%)" offset="0.402344"/><stop stop-opacity="1" stop-color="rgb(49.920654%, 73.568726%, 100%)" offset="0.40625"/><stop stop-opacity="1" stop-color="rgb(50.233459%, 73.38562%, 100%)" offset="0.410156"/><stop stop-opacity="1" stop-color="rgb(50.547791%, 73.204041%, 100%)" offset="0.414062"/><stop stop-opacity="1" stop-color="rgb(50.862122%, 73.020935%, 100%)" offset="0.417969"/><stop stop-opacity="1" stop-color="rgb(51.176453%, 72.839355%, 100%)" offset="0.421875"/><stop stop-opacity="1" stop-color="rgb(51.489258%, 72.657776%, 100%)" offset="0.425781"/><stop stop-opacity="1" stop-color="rgb(51.803589%, 72.476196%, 100%)" offset="0.429688"/><stop stop-opacity="1" stop-color="rgb(52.116394%, 72.293091%, 100%)" offset="0.433594"/><stop stop-opacity="1" stop-color="rgb(52.430725%, 72.111511%, 100%)" offset="0.4375"/><stop stop-opacity="1" stop-color="rgb(52.74353%, 71.929932%, 100%)" offset="0.441406"/><stop stop-opacity="1" stop-color="rgb(53.057861%, 71.748352%, 100%)" offset="0.445312"/><stop stop-opacity="1" stop-color="rgb(53.370667%, 71.565247%, 100%)" offset="0.449219"/><stop stop-opacity="1" stop-color="rgb(53.684998%, 71.383667%, 100%)" offset="0.453125"/><stop stop-opacity="1" stop-color="rgb(53.997803%, 71.200562%, 100%)" offset="0.457031"/><stop stop-opacity="1" stop-color="rgb(54.312134%, 71.018982%, 100%)" offset="0.460938"/><stop stop-opacity="1" stop-color="rgb(54.624939%, 70.837402%, 100%)" offset="0.464844"/><stop stop-opacity="1" stop-color="rgb(54.93927%, 70.655823%, 100%)" offset="0.46875"/><stop stop-opacity="1" stop-color="rgb(55.253601%, 70.472717%, 100%)" offset="0.472656"/><stop stop-opacity="1" stop-color="rgb(55.567932%, 70.291138%, 100%)" offset="0.476562"/><stop stop-opacity="1" stop-color="rgb(55.880737%, 70.109558%, 100%)" offset="0.480469"/><stop stop-opacity="1" stop-color="rgb(56.195068%, 69.927979%, 100%)" offset="0.484375"/><stop stop-opacity="1" stop-color="rgb(56.507874%, 69.744873%, 100%)" offset="0.488281"/><stop stop-opacity="1" stop-color="rgb(56.822205%, 69.563293%, 100%)" offset="0.492187"/><stop stop-opacity="1" stop-color="rgb(57.13501%, 69.380188%, 100%)" offset="0.496094"/><stop stop-opacity="1" stop-color="rgb(57.449341%, 69.198608%, 100%)" offset="0.5"/><stop stop-opacity="1" stop-color="rgb(57.762146%, 69.017029%, 100%)" offset="0.503906"/><stop stop-opacity="1" stop-color="rgb(58.076477%, 68.835449%, 100%)" offset="0.507812"/><stop stop-opacity="1" stop-color="rgb(58.389282%, 68.652344%, 100%)" offset="0.511719"/><stop stop-opacity="1" stop-color="rgb(58.703613%, 68.470764%, 100%)" offset="0.515625"/><stop stop-opacity="1" stop-color="rgb(59.016418%, 68.289185%, 100%)" offset="0.519531"/><stop stop-opacity="1" stop-color="rgb(59.33075%, 68.107605%, 100%)" offset="0.523438"/><stop stop-opacity="1" stop-color="rgb(59.643555%, 67.9245%, 100%)" offset="0.527344"/><stop stop-opacity="1" stop-color="rgb(59.957886%, 67.74292%, 100%)" offset="0.53125"/><stop stop-opacity="1" stop-color="rgb(60.272217%, 67.559814%, 100%)" offset="0.535156"/><stop stop-opacity="1" stop-color="rgb(60.586548%, 67.378235%, 100%)" offset="0.539062"/><stop stop-opacity="1" stop-color="rgb(60.899353%, 67.196655%, 100%)" offset="0.542969"/><stop stop-opacity="1" stop-color="rgb(61.213684%, 67.015076%, 100%)" offset="0.546875"/><stop stop-opacity="1" stop-color="rgb(61.526489%, 66.83197%, 100%)" offset="0.550781"/><stop stop-opacity="1" stop-color="rgb(61.84082%, 66.650391%, 100%)" offset="0.554688"/><stop stop-opacity="1" stop-color="rgb(62.153625%, 66.468811%, 100%)" offset="0.558594"/><stop stop-opacity="1" stop-color="rgb(62.467957%, 66.287231%, 100%)" offset="0.5625"/><stop stop-opacity="1" stop-color="rgb(62.780762%, 66.104126%, 100%)" offset="0.566406"/><stop stop-opacity="1" stop-color="rgb(63.095093%, 65.922546%, 100%)" offset="0.570312"/><stop stop-opacity="1" stop-color="rgb(63.407898%, 65.739441%, 100%)" offset="0.574219"/><stop stop-opacity="1" stop-color="rgb(63.722229%, 65.557861%, 100%)" offset="0.578125"/><stop stop-opacity="1" stop-color="rgb(64.035034%, 65.376282%, 100%)" offset="0.582031"/><stop stop-opacity="1" stop-color="rgb(64.349365%, 65.194702%, 100%)" offset="0.585937"/><stop stop-opacity="1" stop-color="rgb(64.663696%, 65.011597%, 100%)" offset="0.589844"/><stop stop-opacity="1" stop-color="rgb(64.978027%, 64.830017%, 100%)" offset="0.59375"/><stop stop-opacity="1" stop-color="rgb(65.290833%, 64.648438%, 100%)" offset="0.597656"/><stop stop-opacity="1" stop-color="rgb(65.605164%, 64.466858%, 100%)" offset="0.601562"/><stop stop-opacity="1" stop-color="rgb(65.917969%, 64.283752%, 100%)" offset="0.605469"/><stop stop-opacity="1" stop-color="rgb(66.2323%, 64.102173%, 100%)" offset="0.609375"/><stop stop-opacity="1" stop-color="rgb(66.545105%, 63.920593%, 100%)" offset="0.613281"/><stop stop-opacity="1" stop-color="rgb(66.859436%, 63.739014%, 100%)" offset="0.617187"/><stop stop-opacity="1" stop-color="rgb(67.172241%, 63.555908%, 100%)" offset="0.621094"/><stop stop-opacity="1" stop-color="rgb(67.486572%, 63.374329%, 100%)" offset="0.625"/><stop stop-opacity="1" stop-color="rgb(67.799377%, 63.191223%, 100%)" offset="0.628906"/><stop stop-opacity="1" stop-color="rgb(68.113708%, 63.009644%, 100%)" offset="0.632812"/><stop stop-opacity="1" stop-color="rgb(68.426514%, 62.828064%, 100%)" offset="0.636719"/><stop stop-opacity="1" stop-color="rgb(68.740845%, 62.646484%, 100%)" offset="0.640625"/><stop stop-opacity="1" stop-color="rgb(69.055176%, 62.463379%, 100%)" offset="0.644531"/><stop stop-opacity="1" stop-color="rgb(69.369507%, 62.281799%, 100%)" offset="0.648438"/><stop stop-opacity="1" stop-color="rgb(69.682312%, 62.10022%, 100%)" offset="0.652344"/><stop stop-opacity="1" stop-color="rgb(69.996643%, 61.91864%, 100%)" offset="0.65625"/><stop stop-opacity="1" stop-color="rgb(70.309448%, 61.735535%, 100%)" offset="0.660156"/><stop stop-opacity="1" stop-color="rgb(70.623779%, 61.553955%, 100%)" offset="0.664062"/><stop stop-opacity="1" stop-color="rgb(70.936584%, 61.37085%, 100%)" offset="0.667969"/><stop stop-opacity="1" stop-color="rgb(71.250916%, 61.18927%, 100%)" offset="0.671875"/><stop stop-opacity="1" stop-color="rgb(71.563721%, 61.00769%, 100%)" offset="0.675781"/><stop stop-opacity="1" stop-color="rgb(71.878052%, 60.826111%, 100%)" offset="0.679688"/><stop stop-opacity="1" stop-color="rgb(72.190857%, 60.643005%, 100%)" offset="0.683594"/><stop stop-opacity="1" stop-color="rgb(72.505188%, 60.461426%, 100%)" offset="0.6875"/><stop stop-opacity="1" stop-color="rgb(72.817993%, 60.279846%, 100%)" offset="0.691406"/><stop stop-opacity="1" stop-color="rgb(73.132324%, 60.098267%, 100%)" offset="0.695312"/><stop stop-opacity="1" stop-color="rgb(73.445129%, 59.915161%, 100%)" offset="0.699219"/><stop stop-opacity="1" stop-color="rgb(73.75946%, 59.733582%, 100%)" offset="0.703125"/><stop stop-opacity="1" stop-color="rgb(74.073792%, 59.550476%, 100%)" offset="0.707031"/><stop stop-opacity="1" stop-color="rgb(74.388123%, 59.368896%, 100%)" offset="0.710937"/><stop stop-opacity="1" stop-color="rgb(74.700928%, 59.187317%, 100%)" offset="0.714844"/><stop stop-opacity="1" stop-color="rgb(75.015259%, 59.005737%, 100%)" offset="0.71875"/><stop stop-opacity="1" stop-color="rgb(75.328064%, 58.822632%, 100%)" offset="0.722656"/><stop stop-opacity="1" stop-color="rgb(75.642395%, 58.641052%, 100%)" offset="0.726562"/><stop stop-opacity="1" stop-color="rgb(75.9552%, 58.459473%, 100%)" offset="0.730469"/><stop stop-opacity="1" stop-color="rgb(76.269531%, 58.277893%, 100%)" offset="0.734375"/><stop stop-opacity="1" stop-color="rgb(76.582336%, 58.094788%, 100%)" offset="0.738281"/><stop stop-opacity="1" stop-color="rgb(76.896667%, 57.913208%, 100%)" offset="0.742187"/><stop stop-opacity="1" stop-color="rgb(77.209473%, 57.730103%, 100%)" offset="0.746094"/><stop stop-opacity="1" stop-color="rgb(77.523804%, 57.548523%, 100%)" offset="0.75"/><stop stop-opacity="1" stop-color="rgb(77.836609%, 57.366943%, 100%)" offset="0.753906"/><stop stop-opacity="1" stop-color="rgb(78.15094%, 57.185364%, 100%)" offset="0.757812"/><stop stop-opacity="1" stop-color="rgb(78.465271%, 57.002258%, 100%)" offset="0.761719"/><stop stop-opacity="1" stop-color="rgb(78.779602%, 56.820679%, 100%)" offset="0.765625"/><stop stop-opacity="1" stop-color="rgb(79.092407%, 56.639099%, 100%)" offset="0.769531"/><stop stop-opacity="1" stop-color="rgb(79.406738%, 56.45752%, 100%)" offset="0.773437"/><stop stop-opacity="1" stop-color="rgb(79.719543%, 56.274414%, 100%)" offset="0.777344"/><stop stop-opacity="1" stop-color="rgb(80.033875%, 56.092834%, 100%)" offset="0.78125"/><stop stop-opacity="1" stop-color="rgb(80.34668%, 55.911255%, 100%)" offset="0.785156"/><stop stop-opacity="1" stop-color="rgb(80.661011%, 55.729675%, 100%)" offset="0.789062"/><stop stop-opacity="1" stop-color="rgb(80.973816%, 55.54657%, 100%)" offset="0.792969"/><stop stop-opacity="1" stop-color="rgb(81.288147%, 55.36499%, 100%)" offset="0.796875"/><stop stop-opacity="1" stop-color="rgb(81.600952%, 55.181885%, 100%)" offset="0.800781"/><stop stop-opacity="1" stop-color="rgb(81.915283%, 55.000305%, 100%)" offset="0.804687"/><stop stop-opacity="1" stop-color="rgb(82.228088%, 54.818726%, 100%)" offset="0.808594"/><stop stop-opacity="1" stop-color="rgb(82.542419%, 54.637146%, 100%)" offset="0.8125"/><stop stop-opacity="1" stop-color="rgb(82.85675%, 54.454041%, 100%)" offset="0.816406"/><stop stop-opacity="1" stop-color="rgb(83.171082%, 54.272461%, 100%)" offset="0.820312"/><stop stop-opacity="1" stop-color="rgb(83.483887%, 54.090881%, 100%)" offset="0.824219"/><stop stop-opacity="1" stop-color="rgb(83.798218%, 53.909302%, 100%)" offset="0.828125"/><stop stop-opacity="1" stop-color="rgb(84.111023%, 53.726196%, 100%)" offset="0.832031"/><stop stop-opacity="1" stop-color="rgb(84.425354%, 53.544617%, 100%)" offset="0.835937"/><stop stop-opacity="1" stop-color="rgb(84.738159%, 53.361511%, 100%)" offset="0.839844"/><stop stop-opacity="1" stop-color="rgb(85.05249%, 53.179932%, 100%)" offset="0.84375"/><stop stop-opacity="1" stop-color="rgb(85.365295%, 52.998352%, 100%)" offset="0.847656"/><stop stop-opacity="1" stop-color="rgb(85.679626%, 52.816772%, 100%)" offset="0.851562"/><stop stop-opacity="1" stop-color="rgb(85.992432%, 52.633667%, 100%)" offset="0.855469"/><stop stop-opacity="1" stop-color="rgb(86.306763%, 52.452087%, 100%)" offset="0.859375"/><stop stop-opacity="1" stop-color="rgb(86.619568%, 52.270508%, 100%)" offset="0.863281"/><stop stop-opacity="1" stop-color="rgb(86.933899%, 52.088928%, 100%)" offset="0.867187"/><stop stop-opacity="1" stop-color="rgb(87.246704%, 51.905823%, 100%)" offset="0.871094"/><stop stop-opacity="1" stop-color="rgb(87.561035%, 51.724243%, 100%)" offset="0.875"/><stop stop-opacity="1" stop-color="rgb(87.875366%, 51.541138%, 100%)" offset="0.878906"/><stop stop-opacity="1" stop-color="rgb(88.189697%, 51.359558%, 100%)" offset="0.882812"/><stop stop-opacity="1" stop-color="rgb(88.502502%, 51.177979%, 100%)" offset="0.886719"/><stop stop-opacity="1" stop-color="rgb(88.816833%, 50.996399%, 100%)" offset="0.890625"/><stop stop-opacity="1" stop-color="rgb(89.129639%, 50.813293%, 100%)" offset="0.894531"/><stop stop-opacity="1" stop-color="rgb(89.44397%, 50.631714%, 100%)" offset="0.898438"/><stop stop-opacity="1" stop-color="rgb(89.756775%, 50.450134%, 100%)" offset="0.902344"/><stop stop-opacity="1" stop-color="rgb(90.071106%, 50.268555%, 100%)" offset="0.90625"/><stop stop-opacity="1" stop-color="rgb(90.383911%, 50.085449%, 100%)" offset="0.910156"/><stop stop-opacity="1" stop-color="rgb(90.698242%, 49.90387%, 100%)" offset="0.914062"/><stop stop-opacity="1" stop-color="rgb(91.011047%, 49.720764%, 100%)" offset="0.917969"/><stop stop-opacity="1" stop-color="rgb(91.325378%, 49.539185%, 100%)" offset="0.921875"/><stop stop-opacity="1" stop-color="rgb(91.638184%, 49.357605%, 100%)" offset="0.925781"/><stop stop-opacity="1" stop-color="rgb(91.952515%, 49.176025%, 100%)" offset="0.929688"/><stop stop-opacity="1" stop-color="rgb(92.266846%, 48.99292%, 100%)" offset="0.933594"/><stop stop-opacity="1" stop-color="rgb(92.581177%, 48.81134%, 100%)" offset="0.9375"/><stop stop-opacity="1" stop-color="rgb(92.893982%, 48.629761%, 100%)" offset="0.941406"/><stop stop-opacity="1" stop-color="rgb(93.208313%, 48.448181%, 100%)" offset="0.945312"/><stop stop-opacity="1" stop-color="rgb(93.521118%, 48.265076%, 100%)" offset="0.949219"/><stop stop-opacity="1" stop-color="rgb(93.835449%, 48.083496%, 100%)" offset="0.953125"/><stop stop-opacity="1" stop-color="rgb(94.148254%, 47.900391%, 100%)" offset="0.957031"/><stop stop-opacity="1" stop-color="rgb(94.462585%, 47.718811%, 100%)" offset="0.960937"/><stop stop-opacity="1" stop-color="rgb(94.775391%, 47.537231%, 100%)" offset="0.964844"/><stop stop-opacity="1" stop-color="rgb(95.089722%, 47.355652%, 100%)" offset="0.96875"/><stop stop-opacity="1" stop-color="rgb(95.402527%, 47.172546%, 100%)" offset="0.972656"/><stop stop-opacity="1" stop-color="rgb(95.716858%, 46.990967%, 100%)" offset="0.976562"/><stop stop-opacity="1" stop-color="rgb(96.029663%, 46.809387%, 100%)" offset="0.980469"/><stop stop-opacity="1" stop-color="rgb(96.343994%, 46.627808%, 100%)" offset="0.984375"/><stop stop-opacity="1" stop-color="rgb(96.656799%, 46.444702%, 100%)" offset="0.988281"/><stop stop-opacity="1" stop-color="rgb(96.97113%, 46.263123%, 100%)" offset="0.992187"/><stop stop-opacity="1" stop-color="rgb(97.285461%, 46.081543%, 100%)" offset="0.996094"/><stop stop-opacity="1" stop-color="rgb(97.599792%, 45.899963%, 100%)" offset="1"/></linearGradient></defs><g clip-path="url(#id1)"><g clip-path="url(#id2)"><path fill="url(#id3)" d="M 19.828125 19.828125 L 19.828125 355.082031 L 355.082031 355.082031 L 355.082031 19.828125 Z M 19.828125 19.828125 " fill-rule="nonzero"/></g></g></svg>