<svg xmlns="http://www.w3.org/2000/svg" xmlns:xlink="http://www.w3.org/1999/xlink" width="500" zoomAndPan="magnify" viewBox="0 0 375 374.999991" height="500" preserveAspectRatio="xMidYMid meet" version="1.0"><defs><clipPath id="id1"><path d="M 63 30 L 333 30 L 333 344.917969 L 63 344.917969 Z M 63 30 " clip-rule="nonzero"/></clipPath><clipPath id="id2"><path d="M 42 30 L 312 30 L 312 344.917969 L 42 344.917969 Z M 42 30 " clip-rule="nonzero"/></clipPath><clipPath id="id3"><path d="M 91.730469 61.585938 L 221.671875 61.585938 L 221.671875 220.777344 L 91.730469 220.777344 Z M 91.730469 61.585938 " clip-rule="nonzero"/></clipPath><clipPath id="id4"><path d="M 131.523438 220.601562 C 106.121094 218.863281 69.53125 155.96875 109.878906 106.519531 C 134.964844 75.773438 160.816406 65.824219 176.78125 62.691406 C 180.097656 62.042969 183.414062 61.71875 186.675781 61.71875 C 194.890625 61.71875 202.769531 63.777344 209.480469 67.890625 C 214.328125 70.867188 218.898438 75.074219 221.113281 80.929688 C 227.019531 96.542969 155.710938 97.414062 134.578125 135.304688 C 113.445312 173.191406 131.523438 220.601562 131.523438 220.601562 " clip-rule="nonzero"/></clipPath><clipPath id="id5"><path d="M 131.523438 220.601562 C 106.121094 218.863281 69.53125 155.96875 109.878906 106.519531 C 134.964844 75.773438 160.816406 65.824219 176.78125 62.691406 C 180.097656 62.042969 183.414062 61.71875 186.675781 61.71875 C 194.890625 61.71875 202.769531 63.777344 209.480469 67.890625 C 214.328125 70.867188 218.898438 75.074219 221.113281 80.929688 C 227.019531 96.542969 155.710938 97.414062 134.578125 135.304688 C 113.445312 173.191406 131.523438 220.601562 131.523438 220.601562 " clip-rule="nonzero"/></clipPath><clipPath id="id6"><path d="M 69.53125 61.71875 L 50.097656 220.601562 L 227.019531 220.601562 L 246.453125 61.71875 Z M 69.53125 61.71875 " clip-rule="nonzero"/></clipPath><linearGradient x1="-0.0915696" gradientTransform="matrix(121.228177, 0, -14.814878, 121.116765, 93.114863, 141.158887)" y1="0" x2="1.140612" gradientUnits="userSpaceOnUse" y2="0" id="id7"><stop stop-opacity="1" stop-color="rgb(100%, 100%, 100%)" offset="0"/><stop stop-opacity="1" stop-color="rgb(100%, 100%, 100%)" offset="0.25"/><stop stop-opacity="1" stop-color="rgb(100%, 100%, 100%)" offset="0.375"/><stop stop-opacity="1" stop-color="rgb(100%, 100%, 100%)" offset="0.4375"/><stop stop-opacity="1" stop-color="rgb(100%, 100%, 100%)" offset="0.46875"/><stop stop-opacity="1" stop-color="rgb(100%, 100%, 100%)" offset="0.484375"/><stop stop-opacity="1" stop-color="rgb(100%, 99.897766%, 100%)" offset="0.492188"/><stop stop-opacity="1" stop-color="rgb(99.967957%, 99.467468%, 100%)" offset="0.496094"/><stop stop-opacity="1" stop-color="rgb(99.937439%, 99.137878%, 100%)" offset="0.5"/><stop stop-opacity="1" stop-color="rgb(99.607849%, 98.968506%, 100%)" offset="0.503906"/><stop stop-opacity="1" stop-color="rgb(99.278259%, 98.799133%, 100%)" offset="0.507813"/><stop stop-opacity="1" stop-color="rgb(99.038696%, 98.599243%, 100%)" offset="0.511719"/><stop stop-opacity="1" stop-color="rgb(98.799133%, 98.399353%, 100%)" offset="0.515625"/><stop stop-opacity="1" stop-color="rgb(98.672485%, 98.272705%, 100%)" offset="0.523438"/><stop stop-opacity="1" stop-color="rgb(98.472595%, 98.072815%, 100%)" offset="0.53125"/><stop stop-opacity="1" stop-color="rgb(98.33374%, 97.93396%, 100%)" offset="0.539063"/><stop stop-opacity="1" stop-color="rgb(98.104858%, 97.712708%, 100%)" offset="0.546875"/><stop stop-opacity="1" stop-color="rgb(97.775269%, 97.431946%, 100%)" offset="0.554688"/><stop stop-opacity="1" stop-color="rgb(97.485352%, 97.143555%, 100%)" offset="0.5625"/><stop stop-opacity="1" stop-color="rgb(97.032166%, 96.641541%, 100%)" offset="0.566406"/><stop stop-opacity="1" stop-color="rgb(96.704102%, 96.302795%, 100%)" offset="0.570312"/><stop stop-opacity="1" stop-color="rgb(96.401978%, 96.000671%, 100%)" offset="0.574219"/><stop stop-opacity="1" stop-color="rgb(96.099854%, 95.698547%, 100%)" offset="0.578125"/><stop stop-opacity="1" stop-color="rgb(96.020508%, 95.619202%, 100%)" offset="0.585937"/><stop stop-opacity="1" stop-color="rgb(95.776367%, 95.376587%, 100%)" offset="0.59375"/><stop stop-opacity="1" stop-color="rgb(95.454407%, 95.054626%, 100%)" offset="0.609375"/><stop stop-opacity="1" stop-color="rgb(94.996643%, 94.596863%, 100%)" offset="0.613281"/><stop stop-opacity="1" stop-color="rgb(94.696045%, 94.296265%, 100%)" offset="0.617188"/><stop stop-opacity="1" stop-color="rgb(94.541931%, 94.142151%, 100%)" offset="0.625"/><stop stop-opacity="1" stop-color="rgb(94.242859%, 93.843079%, 100%)" offset="0.632812"/><stop stop-opacity="1" stop-color="rgb(94.041443%, 93.641663%, 100%)" offset="0.640625"/><stop stop-opacity="1" stop-color="rgb(93.818665%, 93.418884%, 100%)" offset="0.648438"/><stop stop-opacity="1" stop-color="rgb(93.489075%, 93.089294%, 100%)" offset="0.65625"/><stop stop-opacity="1" stop-color="rgb(93.159485%, 92.759705%, 100%)" offset="0.664062"/><stop stop-opacity="1" stop-color="rgb(92.945862%, 92.546082%, 100%)" offset="0.671875"/><stop stop-opacity="1" stop-color="rgb(92.687988%, 92.33551%, 100%)" offset="0.675781"/><stop stop-opacity="1" stop-color="rgb(92.478943%, 92.172241%, 100%)" offset="0.679688"/><stop stop-opacity="1" stop-color="rgb(92.338562%, 91.986084%, 100%)" offset="0.6875"/><stop stop-opacity="1" stop-color="rgb(91.999817%, 91.598511%, 100%)" offset="0.691406"/><stop stop-opacity="1" stop-color="rgb(91.799927%, 91.398621%, 100%)" offset="0.695313"/><stop stop-opacity="1" stop-color="rgb(91.798401%, 91.397095%, 100%)" offset="0.703125"/><stop stop-opacity="1" stop-color="rgb(91.63208%, 91.2323%, 100%)" offset="0.710938"/><stop stop-opacity="1" stop-color="rgb(91.282654%, 90.882874%, 100%)" offset="0.71875"/><stop stop-opacity="1" stop-color="rgb(90.92865%, 90.52887%, 100%)" offset="0.726563"/><stop stop-opacity="1" stop-color="rgb(90.507507%, 90.107727%, 100%)" offset="0.730469"/><stop stop-opacity="1" stop-color="rgb(90.257263%, 89.857483%, 100%)" offset="0.734375"/><stop stop-opacity="1" stop-color="rgb(90.127563%, 89.727783%, 100%)" offset="0.742188"/><stop stop-opacity="1" stop-color="rgb(89.883423%, 89.483643%, 100%)" offset="0.75"/><stop stop-opacity="1" stop-color="rgb(89.584351%, 89.18457%, 100%)" offset="0.765625"/><stop stop-opacity="1" stop-color="rgb(89.263916%, 88.864136%, 100%)" offset="0.773437"/><stop stop-opacity="1" stop-color="rgb(88.964844%, 88.565063%, 100%)" offset="0.78125"/><stop stop-opacity="1" stop-color="rgb(88.635254%, 88.235474%, 100%)" offset="0.789062"/><stop stop-opacity="1" stop-color="rgb(88.334656%, 87.934875%, 100%)" offset="0.796875"/><stop stop-opacity="1" stop-color="rgb(88.040161%, 87.680054%, 100%)" offset="0.8125"/><stop stop-opacity="1" stop-color="rgb(87.733459%, 87.388611%, 100%)" offset="0.820312"/><stop stop-opacity="1" stop-color="rgb(87.542725%, 87.156677%, 100%)" offset="0.828125"/><stop stop-opacity="1" stop-color="rgb(87.420654%, 87.020874%, 100%)" offset="0.835938"/><stop stop-opacity="1" stop-color="rgb(87.17804%, 86.778259%, 100%)" offset="0.84375"/><stop stop-opacity="1" stop-color="rgb(86.839294%, 86.439514%, 100%)" offset="0.851562"/><stop stop-opacity="1" stop-color="rgb(86.33728%, 85.9375%, 100%)" offset="0.855469"/><stop stop-opacity="1" stop-color="rgb(86.00769%, 85.60791%, 100%)" offset="0.859375"/><stop stop-opacity="1" stop-color="rgb(85.888672%, 85.488892%, 100%)" offset="0.875"/><stop stop-opacity="1" stop-color="rgb(85.635376%, 85.235596%, 100%)" offset="1"/></linearGradient></defs><g clip-path="url(#id1)"><path fill="#614cd4" d="M 267.523438 344.769531 L 89.933594 344.769531 C 73.261719 344.769531 61.402344 331.269531 63.4375 314.617188 L 94.554688 60.21875 C 96.59375 43.566406 111.757812 30.0625 128.425781 30.0625 L 306.019531 30.0625 C 322.6875 30.0625 334.546875 43.566406 332.511719 60.21875 L 301.394531 314.617188 C 299.355469 331.269531 284.191406 344.769531 267.523438 344.769531 " fill-opacity="1" fill-rule="nonzero"/></g><g clip-path="url(#id2)"><path fill="#b1a9ff" d="M 246.679688 344.769531 L 69.089844 344.769531 C 52.421875 344.769531 40.558594 331.269531 42.597656 314.617188 L 73.714844 60.21875 C 75.75 43.566406 90.914062 30.0625 107.582031 30.0625 L 285.175781 30.0625 C 301.84375 30.0625 313.707031 43.566406 311.667969 60.21875 L 280.550781 314.617188 C 278.515625 331.269531 263.347656 344.769531 246.679688 344.769531 " fill-opacity="1" fill-rule="nonzero"/></g><path fill="#614cd4" d="M 242.890625 213.109375 L 250.691406 221.730469 C 259.234375 231.171875 263.121094 244.128906 261.464844 257.65625 L 256.070312 301.769531 C 254.710938 312.863281 244.609375 321.855469 233.503906 321.855469 L 198.179688 321.855469 C 187.90625 321.855469 179.128906 316.277344 175.265625 307.292969 C 169.117188 293.007812 155.160156 284.136719 138.824219 284.136719 L 120.972656 284.136719 C 110.964844 284.136719 101.816406 280.273438 95.433594 273.355469 L 85.617188 262.714844 C 82.609375 259.449219 81.484375 254.785156 82.578125 250.097656 L 88.148438 226.214844 L 88.769531 221.136719 C 89.472656 215.367188 94.730469 210.6875 100.503906 210.6875 L 119.574219 210.6875 L 242.890625 213.109375 " fill-opacity="1" fill-rule="nonzero"/><path fill="#dad9ff" d="M 274.53125 150.8125 C 268.261719 202.085938 221.574219 243.652344 170.253906 243.652344 C 118.933594 243.652344 82.414062 202.085938 88.6875 150.8125 C 94.957031 99.542969 141.644531 57.976562 192.964844 57.976562 C 244.285156 57.976562 280.804688 99.542969 274.53125 150.8125 " fill-opacity="1" fill-rule="nonzero"/><path fill="#b1a9ff" d="M 202.453125 150.8125 C 201.046875 162.3125 190.574219 171.636719 179.0625 171.636719 C 167.550781 171.636719 159.359375 162.3125 160.765625 150.8125 C 162.171875 139.3125 172.644531 129.992188 184.15625 129.992188 C 195.667969 129.992188 203.859375 139.3125 202.453125 150.8125 " fill-opacity="1" fill-rule="nonzero"/><path fill="#dad9ff" d="M 182.941406 139.929688 C 176.933594 139.929688 171.449219 144.8125 170.714844 150.8125 C 169.980469 156.816406 174.269531 161.699219 180.277344 161.699219 C 186.285156 161.699219 191.769531 156.816406 192.503906 150.8125 C 193.238281 144.8125 188.945312 139.929688 182.941406 139.929688 Z M 179.710938 166.324219 C 171.152344 166.324219 165.039062 159.367188 166.085938 150.8125 C 167.128906 142.261719 174.945312 135.304688 183.507812 135.304688 C 192.066406 135.304688 198.179688 142.261719 197.136719 150.8125 C 196.089844 159.367188 188.273438 166.324219 179.710938 166.324219 " fill-opacity="1" fill-rule="nonzero"/><g clip-path="url(#id3)"><g clip-path="url(#id4)"><g clip-path="url(#id5)"><g clip-path="url(#id6)"><path fill="url(#id7)" d="M 91.730469 61.71875 L 72.296875 220.601562 L 221.671875 220.601562 L 241.105469 61.71875 Z M 91.730469 61.71875 " fill-rule="nonzero"/></g></g></g></g><path fill="#b1a9ff" d="M 105.722656 274.773438 L 90.199219 259.738281 C 88.015625 257.621094 88.464844 253.839844 91.15625 251.707031 C 95.628906 248.160156 102.796875 243.496094 110.902344 242.117188 C 121.109375 240.378906 162.238281 209.074219 182.105469 193.574219 C 183.402344 192.5625 184.847656 194.105469 183.75 195.335938 L 113.621094 273.902344 C 111.46875 276.40625 107.828125 276.808594 105.722656 274.773438 " fill-opacity="1" fill-rule="nonzero"/><path fill="#311e69" d="M 184.191406 296.417969 L 192.355469 310.296875 C 193.03125 311.441406 194.265625 312.121094 195.671875 312.121094 L 236.683594 312.121094 C 239.082031 312.121094 241.261719 310.179688 241.554688 307.785156 L 243.253906 293.90625 C 243.546875 291.507812 241.839844 289.566406 239.441406 289.566406 L 188.570312 289.566406 C 185.042969 289.566406 182.5 293.542969 184.191406 296.417969 " fill-opacity="1" fill-rule="nonzero"/><path fill="#311e69" d="M 240.199219 264.894531 L 235.5625 224.699219 L 242.519531 223.097656 L 247.15625 263.292969 L 240.199219 264.894531 " fill-opacity="1" fill-rule="nonzero"/><path fill="#311e69" d="M 246.378906 47.167969 C 253.179688 50.984375 275.050781 64.570312 290.109375 88.953125 C 292.210938 92.359375 297.84375 90.5625 298.359375 86.328125 L 303.035156 48.125 C 303.660156 43.003906 300.011719 38.855469 294.886719 38.855469 L 249.4375 38.855469 C 246.921875 38.855469 244.660156 40.953125 244.476562 43.460938 L 244.476562 43.484375 C 244.359375 45.042969 245.085938 46.441406 246.378906 47.167969 " fill-opacity="1" fill-rule="nonzero"/><path fill="#311e69" d="M 83.113281 112 C 82.667969 110.976562 82.507812 109.824219 82.648438 108.648438 L 89.707031 50.957031 C 90.171875 47.167969 93.625 44.09375 97.417969 44.09375 L 145.660156 44.09375 C 152.746094 44.09375 154.042969 53.511719 147.433594 56.953125 C 138.941406 61.375 129.9375 66.847656 122.296875 73.230469 C 109.960938 83.535156 101.128906 99.152344 95.765625 110.839844 C 93.175781 116.484375 85.390625 117.195312 83.113281 112 " fill-opacity="1" fill-rule="nonzero"/><path fill="#614cd4" d="M 159.046875 332.074219 L 76.207031 332.074219 C 61.605469 332.074219 51.175781 320.207031 52.960938 305.617188 L 55.582031 284.210938 C 56.996094 272.644531 67.5625 263.238281 79.136719 263.238281 L 92.011719 263.238281 C 93.6875 263.238281 94.882812 264.597656 94.679688 266.273438 C 94.472656 267.949219 92.945312 269.308594 91.269531 269.308594 L 78.394531 269.308594 C 70.171875 269.308594 62.664062 275.996094 61.660156 284.210938 L 59.039062 305.617188 C 57.664062 316.859375 65.699219 326.003906 76.953125 326.003906 L 159.792969 326.003906 C 169.128906 326.003906 177.652344 318.414062 178.792969 309.085938 C 179 307.410156 180.523438 306.050781 182.203125 306.050781 C 183.882812 306.050781 185.078125 307.410156 184.871094 309.085938 C 183.320312 321.765625 171.734375 332.074219 159.046875 332.074219 " fill-opacity="1" fill-rule="nonzero"/><path fill="#614cd4" d="M 76.394531 280.480469 C 76.230469 281.8125 75.019531 282.890625 73.6875 282.890625 C 72.355469 282.890625 71.40625 281.8125 71.570312 280.480469 C 71.734375 279.152344 72.945312 278.070312 74.277344 278.070312 C 75.609375 278.070312 76.558594 279.152344 76.394531 280.480469 " fill-opacity="1" fill-rule="nonzero"/><path fill="#614cd4" d="M 76.558594 315.953125 C 76.394531 317.285156 75.183594 318.363281 73.851562 318.363281 C 72.519531 318.363281 71.570312 317.285156 71.734375 315.953125 C 71.898438 314.621094 73.109375 313.546875 74.441406 313.546875 C 75.773438 313.546875 76.722656 314.621094 76.558594 315.953125 " fill-opacity="1" fill-rule="nonzero"/><path fill="#614cd4" d="M 105.695312 315.953125 C 105.535156 317.285156 104.320312 318.363281 102.988281 318.363281 C 101.65625 318.363281 100.707031 317.285156 100.871094 315.953125 C 101.035156 314.621094 102.246094 313.546875 103.578125 313.546875 C 104.910156 313.546875 105.859375 314.621094 105.695312 315.953125 " fill-opacity="1" fill-rule="nonzero"/><path fill="#614cd4" d="M 134.835938 315.953125 C 134.671875 317.285156 133.460938 318.363281 132.128906 318.363281 C 130.796875 318.363281 129.847656 317.285156 130.011719 315.953125 C 130.175781 314.621094 131.386719 313.546875 132.71875 313.546875 C 134.050781 313.546875 134.996094 314.621094 134.835938 315.953125 " fill-opacity="1" fill-rule="nonzero"/></svg>