<svg xmlns="http://www.w3.org/2000/svg" xmlns:xlink="http://www.w3.org/1999/xlink" width="500" zoomAndPan="magnify" viewBox="0 0 375 374.999991" height="500" preserveAspectRatio="xMidYMid meet" version="1.0"><defs><clipPath id="id1"><path d="M 61.410156 21.316406 L 313.410156 21.316406 L 313.410156 353.566406 L 61.410156 353.566406 Z M 61.410156 21.316406 " clip-rule="nonzero"/></clipPath><clipPath id="id2"><path d="M 61.410156 55 L 313.410156 55 L 313.410156 353.566406 L 61.410156 353.566406 Z M 61.410156 55 " clip-rule="nonzero"/></clipPath><clipPath id="id3"><path d="M 61.410156 21.316406 L 313.410156 21.316406 L 313.410156 353.566406 L 61.410156 353.566406 Z M 61.410156 21.316406 " clip-rule="nonzero"/></clipPath><clipPath id="id4"><path d="M 61.410156 238 L 199 238 L 199 353.566406 L 61.410156 353.566406 Z M 61.410156 238 " clip-rule="nonzero"/></clipPath><clipPath id="id5"><path d="M 221 296 L 274 296 L 274 353.566406 L 221 353.566406 Z M 221 296 " clip-rule="nonzero"/></clipPath><clipPath id="id6"><path d="M 61.410156 238 L 136 238 L 136 353.566406 L 61.410156 353.566406 Z M 61.410156 238 " clip-rule="nonzero"/></clipPath><clipPath id="id7"><path d="M 72 238 L 199 238 L 199 353.566406 L 72 353.566406 Z M 72 238 " clip-rule="nonzero"/></clipPath><clipPath id="id8"><path d="M 221 296 L 274 296 L 274 353.566406 L 221 353.566406 Z M 221 296 " clip-rule="nonzero"/></clipPath></defs><g clip-path="url(#id1)"><path fill="#646fbf" d="M 267.578125 353.566406 L 107.242188 353.566406 C 81.941406 353.566406 61.429688 333.046875 61.429688 307.738281 L 61.429688 67.144531 C 61.429688 41.835938 81.941406 21.316406 107.242188 21.316406 L 267.578125 21.316406 C 292.875 21.316406 313.386719 41.835938 313.386719 67.144531 L 313.386719 307.738281 C 313.386719 333.046875 292.875 353.566406 267.578125 353.566406 " fill-opacity="1" fill-rule="nonzero"/></g><g clip-path="url(#id2)"><path fill="#4f59b1" d="M 313.386719 84.21875 C 312 95.875 306.878906 108.070312 290.480469 101.515625 C 256.125 67.144531 198.859375 55.6875 198.859375 55.6875 L 198.859375 243.941406 C 195.101562 244.414062 191.300781 244.726562 187.410156 244.726562 C 186.78125 244.726562 186.179688 244.636719 185.550781 244.636719 L 162.085938 279.859375 C 161.460938 281.042969 158.621094 284.667969 158.621094 284.667969 C 152.3125 291 141.820312 293.128906 131.667969 286.527344 C 126.277344 283.011719 124.039062 276.546875 124.398438 270.125 C 124.664062 265.132812 122.785156 260.277344 119.273438 256.765625 L 101.582031 239.066406 C 101.535156 239.042969 101.46875 239.019531 101.425781 238.996094 L 61.652344 238.996094 C 61.542969 238.996094 61.429688 239.109375 61.429688 239.222656 L 61.429688 307.515625 C 61.429688 332.933594 82.03125 353.566406 107.464844 353.566406 L 267.578125 353.566406 C 292.875 353.566406 313.386719 333.046875 313.386719 307.738281 L 313.386719 84.21875 " fill-opacity="1" fill-rule="nonzero"/></g><path fill="#727475" d="M 284.753906 147.34375 C 284.753906 201.136719 241.183594 244.726562 187.410156 244.726562 C 133.636719 244.726562 90.0625 201.136719 90.0625 147.34375 C 90.0625 93.546875 133.636719 49.957031 187.410156 49.957031 C 241.183594 49.957031 284.753906 93.546875 284.753906 147.34375 " fill-opacity="1" fill-rule="nonzero"/><path fill="#b3b3b2" d="M 256.125 147.34375 C 256.125 185.316406 225.367188 216.082031 187.410156 216.082031 C 149.449219 216.082031 118.691406 185.316406 118.691406 147.34375 C 118.691406 109.371094 149.449219 78.601562 187.410156 78.601562 C 225.367188 78.601562 256.125 109.371094 256.125 147.34375 " fill-opacity="1" fill-rule="nonzero"/><path fill="#363c46" d="M 214.207031 53.785156 C 225.03125 67.257812 232.390625 82.671875 236.082031 98.828125 C 248.472656 111.269531 256.125 128.410156 256.125 147.34375 C 256.125 181.265625 231.539062 209.371094 199.261719 214.988281 C 193.292969 222.101562 186.894531 228.859375 180.09375 235.171875 L 171.324219 243.292969 C 176.558594 244.167969 181.90625 244.726562 187.410156 244.726562 C 241.183594 244.726562 284.753906 201.136719 284.753906 147.34375 C 284.753906 102.859375 254.914062 65.445312 214.207031 53.785156 " fill-opacity="1" fill-rule="nonzero"/><path fill="#727475" d="M 220.378906 185.695312 L 214.496094 194.625 C 209.820312 201.695312 204.699219 208.5 199.261719 214.988281 C 231.539062 209.371094 256.125 181.265625 256.125 147.34375 C 256.125 128.410156 248.472656 111.269531 236.082031 98.828125 C 242.769531 127.988281 237.714844 159.449219 220.378906 185.695312 " fill-opacity="1" fill-rule="nonzero"/><g clip-path="url(#id3)"><path fill="#878dcf" d="M 313.386719 67.144531 C 313.386719 41.835938 292.875 21.316406 267.578125 21.316406 L 107.242188 21.316406 C 81.941406 21.316406 61.429688 41.835938 61.429688 67.144531 L 61.429688 307.738281 C 61.429688 333.046875 81.941406 353.566406 107.242188 353.566406 L 135.871094 353.566406 C 99.390625 346.941406 72.882812 315.144531 72.882812 278.066406 L 72.882812 150.25 C 72.882812 88.089844 122.429688 37.25 184.546875 35.703125 L 265.71875 33.667969 C 287.238281 33.152344 306.585938 46.714844 313.386719 67.144531 " fill-opacity="1" fill-rule="nonzero"/></g><path fill="#f9a734" d="M 162.085938 279.859375 L 216.039062 198.898438 L 135.113281 252.871094 C 133.925781 253.496094 130.300781 256.339844 130.300781 256.339844 C 126.65625 259.941406 124.417969 264.953125 124.417969 270.503906 C 124.417969 281.582031 133.390625 290.554688 144.460938 290.554688 C 150.007812 290.554688 155.019531 288.316406 158.621094 284.667969 C 158.621094 284.667969 161.460938 281.042969 162.085938 279.859375 " fill-opacity="1" fill-rule="nonzero"/><g clip-path="url(#id4)"><path fill="#fabe60" d="M 198.859375 353.566406 L 198.859375 313.46875 L 135.871094 313.46875 C 116.902344 313.46875 101.515625 298.074219 101.515625 279.097656 L 101.515625 238.996094 L 61.429688 238.996094 L 61.429688 307.738281 C 61.429688 333.046875 81.941406 353.566406 107.242188 353.566406 L 198.859375 353.566406 " fill-opacity="1" fill-rule="nonzero"/></g><g clip-path="url(#id5)"><path fill="#c3ecfb" d="M 273.300781 353.566406 L 221.765625 353.566406 L 221.765625 296.28125 L 273.300781 296.28125 L 273.300781 353.566406 " fill-opacity="1" fill-rule="nonzero"/></g><path fill="#727475" d="M 221.765625 147.34375 C 221.765625 166.316406 206.375 181.714844 187.410156 181.714844 C 168.441406 181.714844 153.050781 166.316406 153.050781 147.34375 C 153.050781 128.367188 168.441406 112.972656 187.410156 112.972656 C 206.375 112.972656 221.765625 128.367188 221.765625 147.34375 " fill-opacity="1" fill-rule="nonzero"/><path fill="#fabe60" d="M 216.039062 147.34375 C 216.039062 163.164062 203.222656 175.984375 187.410156 175.984375 C 171.59375 175.984375 158.777344 163.164062 158.777344 147.34375 C 158.777344 131.523438 171.59375 118.699219 187.410156 118.699219 C 203.222656 118.699219 216.039062 131.523438 216.039062 147.34375 " fill-opacity="1" fill-rule="nonzero"/><g clip-path="url(#id6)"><path fill="#f6d67c" d="M 61.429688 307.738281 C 61.429688 333.046875 81.941406 353.566406 107.242188 353.566406 L 135.871094 353.566406 C 99.390625 346.941406 72.882812 315.144531 72.882812 278.066406 L 72.882812 238.996094 L 61.429688 238.996094 L 61.429688 307.738281 " fill-opacity="1" fill-rule="nonzero"/></g><path fill="#f79214" d="M 169.335938 261.21875 C 158.6875 275.40625 139.5625 279.320312 124.417969 271.421875 C 124.910156 282.050781 133.613281 290.554688 144.371094 290.554688 C 149.898438 290.554688 154.90625 288.316406 158.554688 284.667969 C 158.554688 284.667969 161.371094 281.042969 161.996094 279.859375 L 215.949219 198.898438 C 215.949219 198.898438 189.421875 234.386719 169.335938 261.21875 " fill-opacity="1" fill-rule="nonzero"/><g clip-path="url(#id7)"><path fill="#f9a734" d="M 72.882812 238.996094 L 101.515625 238.996094 L 101.515625 279.097656 C 101.515625 298.074219 116.902344 313.46875 135.871094 313.46875 L 198.859375 313.46875 L 198.859375 353.566406 L 135.871094 353.566406 L 172.511719 349.898438 C 184.210938 348.734375 193.132812 338.863281 193.132812 327.09375 C 193.132812 322.820312 189.535156 319.417969 185.238281 319.664062 L 132.160156 322.777344 C 112.429688 323.941406 95.789062 308.253906 95.789062 288.472656 L 95.789062 268.332031 C 95.789062 254.460938 86.347656 242.375 72.882812 238.996094 " fill-opacity="1" fill-rule="nonzero"/></g><g clip-path="url(#id8)"><path fill="#8bdaf8" d="M 273.300781 296.28125 L 273.300781 353.566406 L 221.765625 353.566406 L 221.765625 313.46875 L 225.613281 336.539062 C 226.640625 342.78125 232.546875 346.988281 238.789062 345.957031 C 252.789062 343.609375 264.085938 333.203125 267.507812 319.417969 L 273.300781 296.28125 " fill-opacity="1" fill-rule="nonzero"/></g><path fill="#b3b3b2" d="M 248.117188 113.441406 C 245.207031 114.695312 243.886719 118.074219 245.140625 120.984375 C 248.472656 128.679688 250.398438 138.300781 250.398438 147.34375 C 250.398438 162.9375 244.804688 177.863281 234.648438 189.386719 C 232.570312 191.761719 232.769531 195.363281 235.164062 197.464844 C 236.238281 198.429688 237.601562 198.898438 238.945312 198.898438 C 240.53125 198.898438 242.097656 198.25 243.238281 196.953125 C 255.230469 183.347656 261.851562 165.734375 261.851562 147.34375 C 261.851562 136.644531 259.636719 125.660156 255.652344 116.417969 C 254.402344 113.53125 251.046875 112.1875 248.117188 113.441406 " fill-opacity="1" fill-rule="nonzero"/><path fill="#d3d4d3" d="M 124.417969 147.34375 C 124.417969 112.589844 152.671875 84.328125 187.410156 84.328125 C 190.5625 84.328125 193.132812 81.757812 193.132812 78.601562 C 193.132812 75.445312 190.5625 72.871094 187.410156 72.871094 C 146.363281 72.871094 112.96875 106.28125 112.96875 147.34375 C 112.96875 150.496094 115.539062 153.070312 118.691406 153.070312 C 121.847656 153.070312 124.417969 150.496094 124.417969 147.34375 " fill-opacity="1" fill-rule="nonzero"/><path fill="#d3d4d3" d="M 124.417969 164.527344 C 121.265625 164.527344 118.691406 167.101562 118.691406 170.257812 C 118.691406 173.410156 121.265625 175.984375 124.417969 175.984375 C 127.574219 175.984375 130.144531 173.410156 130.144531 170.257812 C 130.144531 167.101562 127.574219 164.527344 124.417969 164.527344 " fill-opacity="1" fill-rule="nonzero"/><path fill="#d3d4d3" d="M 141.597656 187.441406 C 138.445312 187.441406 135.871094 190.015625 135.871094 193.171875 C 135.871094 196.324219 138.445312 198.898438 141.597656 198.898438 C 144.753906 198.898438 147.324219 196.324219 147.324219 193.171875 C 147.324219 190.015625 144.753906 187.441406 141.597656 187.441406 " fill-opacity="1" fill-rule="nonzero"/></svg>