<svg xmlns="http://www.w3.org/2000/svg" xmlns:xlink="http://www.w3.org/1999/xlink" width="500" zoomAndPan="magnify" viewBox="0 0 375 374.999991" height="500" preserveAspectRatio="xMidYMid meet" version="1.0"><defs><clipPath id="id1"><path d="M 10.839844 110.980469 L 361.089844 110.980469 L 361.089844 233.230469 L 10.839844 233.230469 Z M 10.839844 110.980469 " clip-rule="nonzero"/></clipPath></defs><path fill="#5ce1e6" d="M 344.757812 159.882812 C 344.757812 166.648438 350.210938 172.105469 356.972656 172.105469 L 356.972656 221.007812 C 356.972656 225.488281 353.304688 229.15625 348.828125 229.15625 L 218.535156 229.15625 L 218.535156 212.855469 C 218.535156 208.375 214.871094 204.707031 210.394531 204.707031 C 205.914062 204.707031 202.25 208.375 202.25 212.855469 L 202.25 229.15625 L 23.097656 229.15625 C 18.621094 229.15625 14.957031 225.488281 14.957031 221.007812 L 14.957031 172.105469 C 21.714844 172.105469 27.171875 166.648438 27.171875 159.882812 C 27.171875 153.117188 21.714844 147.65625 14.957031 147.65625 L 14.957031 123.207031 C 14.957031 118.722656 18.621094 115.058594 23.097656 115.058594 L 348.828125 115.058594 C 353.304688 115.058594 356.972656 118.722656 356.972656 123.207031 L 356.972656 147.65625 C 350.210938 147.65625 344.757812 153.117188 344.757812 159.882812 Z M 344.757812 159.882812 " fill-opacity="1" fill-rule="nonzero"/><g clip-path="url(#id1)"><path fill="#545454" d="M 348.828125 233.230469 L 218.535156 233.230469 C 216.285156 233.230469 214.464844 231.40625 214.464844 229.15625 L 214.464844 212.855469 C 214.464844 210.613281 212.640625 208.78125 210.394531 208.78125 C 208.144531 208.78125 206.320312 210.613281 206.320312 212.855469 L 206.320312 229.15625 C 206.320312 231.40625 204.5 233.230469 202.25 233.230469 L 23.097656 233.230469 C 16.363281 233.230469 10.882812 227.746094 10.882812 221.007812 L 10.882812 172.105469 C 10.882812 169.859375 12.703125 168.03125 14.957031 168.03125 C 19.445312 168.03125 23.097656 164.375 23.097656 159.882812 C 23.097656 155.386719 19.445312 151.730469 14.957031 151.730469 C 12.703125 151.730469 10.882812 149.90625 10.882812 147.65625 L 10.882812 123.207031 C 10.882812 116.46875 16.363281 110.980469 23.097656 110.980469 L 348.828125 110.980469 C 355.5625 110.980469 361.042969 116.46875 361.042969 123.207031 L 361.042969 147.65625 C 361.042969 149.90625 359.222656 151.730469 356.972656 151.730469 C 352.480469 151.730469 348.828125 155.386719 348.828125 159.882812 C 348.828125 164.375 352.480469 168.03125 356.972656 168.03125 C 359.222656 168.03125 361.042969 169.859375 361.042969 172.105469 L 361.042969 221.007812 C 361.042969 227.746094 355.5625 233.230469 348.828125 233.230469 Z M 222.609375 225.082031 L 348.828125 225.082031 C 351.074219 225.082031 352.898438 223.253906 352.898438 221.007812 L 352.898438 175.667969 C 345.878906 173.855469 340.683594 167.464844 340.683594 159.882812 C 340.683594 152.296875 345.878906 145.914062 352.898438 144.09375 L 352.898438 123.207031 C 352.898438 120.960938 351.074219 119.132812 348.828125 119.132812 L 23.097656 119.132812 C 20.851562 119.132812 19.027344 120.960938 19.027344 123.207031 L 19.027344 144.09375 C 26.046875 145.910156 31.242188 152.296875 31.242188 159.882812 C 31.242188 167.464844 26.046875 173.851562 19.027344 175.667969 L 19.027344 221.007812 C 19.027344 223.253906 20.851562 225.082031 23.097656 225.082031 L 198.179688 225.082031 L 198.179688 212.855469 C 198.179688 206.117188 203.660156 200.632812 210.394531 200.632812 C 217.128906 200.632812 222.609375 206.117188 222.609375 212.855469 Z M 222.609375 225.082031 " fill-opacity="1" fill-rule="nonzero"/></g><path fill="#c9e265" d="M 45.492188 206.746094 C 45.492188 207.28125 45.441406 207.808594 45.335938 208.335938 C 45.230469 208.859375 45.078125 209.367188 44.871094 209.863281 C 44.667969 210.359375 44.417969 210.828125 44.121094 211.273438 C 43.824219 211.71875 43.484375 212.128906 43.109375 212.507812 C 42.730469 212.886719 42.316406 213.222656 41.875 213.519531 C 41.429688 213.816406 40.960938 214.070312 40.464844 214.273438 C 39.972656 214.480469 39.460938 214.632812 38.9375 214.738281 C 38.414062 214.84375 37.882812 214.894531 37.347656 214.894531 C 36.816406 214.894531 36.285156 214.84375 35.761719 214.738281 C 35.238281 214.632812 34.726562 214.480469 34.234375 214.273438 C 33.738281 214.070312 33.269531 213.816406 32.824219 213.519531 C 32.378906 213.222656 31.96875 212.886719 31.589844 212.507812 C 31.214844 212.128906 30.875 211.71875 30.578125 211.273438 C 30.28125 210.828125 30.03125 210.359375 29.824219 209.863281 C 29.621094 209.367188 29.46875 208.859375 29.363281 208.335938 C 29.257812 207.808594 29.207031 207.28125 29.207031 206.746094 C 29.207031 206.210938 29.257812 205.679688 29.363281 205.15625 C 29.46875 204.628906 29.621094 204.121094 29.824219 203.625 C 30.03125 203.132812 30.28125 202.660156 30.578125 202.214844 C 30.875 201.773438 31.214844 201.359375 31.589844 200.980469 C 31.96875 200.601562 32.378906 200.265625 32.824219 199.96875 C 33.269531 199.671875 33.738281 199.417969 34.234375 199.214844 C 34.726562 199.011719 35.238281 198.855469 35.761719 198.75 C 36.285156 198.648438 36.816406 198.59375 37.347656 198.59375 C 37.882812 198.59375 38.414062 198.648438 38.9375 198.75 C 39.460938 198.855469 39.972656 199.011719 40.464844 199.214844 C 40.960938 199.417969 41.429688 199.671875 41.875 199.96875 C 42.316406 200.265625 42.730469 200.601562 43.109375 200.980469 C 43.484375 201.359375 43.824219 201.773438 44.121094 202.214844 C 44.417969 202.660156 44.667969 203.132812 44.871094 203.625 C 45.078125 204.121094 45.230469 204.628906 45.335938 205.15625 C 45.441406 205.679688 45.492188 206.210938 45.492188 206.746094 Z M 45.492188 206.746094 " fill-opacity="1" fill-rule="nonzero"/><path fill="#545454" d="M 37.347656 216.933594 C 31.734375 216.933594 27.171875 212.359375 27.171875 206.746094 C 27.171875 201.128906 31.734375 196.558594 37.347656 196.558594 C 42.964844 196.558594 47.527344 201.128906 47.527344 206.746094 C 47.527344 212.359375 42.964844 216.933594 37.347656 216.933594 Z M 37.347656 200.632812 C 33.980469 200.632812 31.242188 203.375 31.242188 206.746094 C 31.242188 210.113281 33.980469 212.855469 37.347656 212.855469 C 40.714844 212.855469 43.457031 210.113281 43.457031 206.746094 C 43.457031 203.375 40.714844 200.632812 37.347656 200.632812 Z M 37.347656 200.632812 " fill-opacity="1" fill-rule="nonzero"/><path fill="#c9e265" d="M 342.71875 206.746094 C 342.71875 207.28125 342.667969 207.808594 342.5625 208.335938 C 342.460938 208.859375 342.304688 209.367188 342.101562 209.863281 C 341.894531 210.359375 341.644531 210.828125 341.347656 211.273438 C 341.050781 211.71875 340.714844 212.128906 340.335938 212.507812 C 339.957031 212.886719 339.546875 213.222656 339.101562 213.519531 C 338.65625 213.816406 338.1875 214.070312 337.691406 214.273438 C 337.199219 214.480469 336.691406 214.632812 336.164062 214.738281 C 335.640625 214.84375 335.113281 214.894531 334.578125 214.894531 C 334.042969 214.894531 333.511719 214.84375 332.988281 214.738281 C 332.464844 214.632812 331.953125 214.480469 331.460938 214.273438 C 330.964844 214.070312 330.496094 213.816406 330.054688 213.519531 C 329.609375 213.222656 329.195312 212.886719 328.820312 212.507812 C 328.441406 212.128906 328.101562 211.71875 327.804688 211.273438 C 327.507812 210.828125 327.257812 210.359375 327.054688 209.863281 C 326.847656 209.367188 326.695312 208.859375 326.589844 208.335938 C 326.484375 207.808594 326.433594 207.28125 326.433594 206.746094 C 326.433594 206.210938 326.484375 205.679688 326.589844 205.15625 C 326.695312 204.628906 326.847656 204.121094 327.054688 203.625 C 327.257812 203.132812 327.507812 202.660156 327.804688 202.214844 C 328.101562 201.773438 328.441406 201.359375 328.820312 200.980469 C 329.195312 200.601562 329.609375 200.265625 330.054688 199.96875 C 330.496094 199.671875 330.964844 199.417969 331.460938 199.214844 C 331.953125 199.011719 332.464844 198.855469 332.988281 198.75 C 333.511719 198.648438 334.042969 198.59375 334.578125 198.59375 C 335.113281 198.59375 335.640625 198.648438 336.164062 198.75 C 336.691406 198.855469 337.199219 199.011719 337.691406 199.214844 C 338.1875 199.417969 338.65625 199.671875 339.101562 199.96875 C 339.546875 200.265625 339.957031 200.601562 340.335938 200.980469 C 340.714844 201.359375 341.050781 201.773438 341.347656 202.214844 C 341.644531 202.660156 341.894531 203.132812 342.101562 203.625 C 342.304688 204.121094 342.460938 204.628906 342.5625 205.15625 C 342.667969 205.679688 342.71875 206.210938 342.71875 206.746094 Z M 342.71875 206.746094 " fill-opacity="1" fill-rule="nonzero"/><path fill="#545454" d="M 334.578125 216.933594 C 328.960938 216.933594 324.398438 212.359375 324.398438 206.746094 C 324.398438 201.128906 328.960938 196.558594 334.578125 196.558594 C 340.191406 196.558594 344.757812 201.128906 344.757812 206.746094 C 344.757812 212.359375 340.191406 216.933594 334.578125 216.933594 Z M 334.578125 200.632812 C 331.210938 200.632812 328.46875 203.375 328.46875 206.746094 C 328.46875 210.113281 331.210938 212.855469 334.578125 212.855469 C 337.945312 212.855469 340.683594 210.113281 340.683594 206.746094 C 340.683594 203.375 337.945312 200.632812 334.578125 200.632812 Z M 334.578125 200.632812 " fill-opacity="1" fill-rule="nonzero"/><path fill="#ff66c4" d="M 65.851562 210.820312 L 200.214844 210.820312 L 200.214844 227.121094 L 65.851562 227.121094 Z M 65.851562 210.820312 " fill-opacity="1" fill-rule="nonzero"/><path fill="#545454" d="M 200.214844 229.15625 L 65.851562 229.15625 C 64.726562 229.15625 63.816406 228.246094 63.816406 227.121094 L 63.816406 210.820312 C 63.816406 209.695312 64.726562 208.78125 65.851562 208.78125 L 200.214844 208.78125 C 201.335938 208.78125 202.25 209.695312 202.25 210.820312 L 202.25 227.121094 C 202.25 228.246094 201.335938 229.15625 200.214844 229.15625 Z M 67.886719 225.082031 L 198.179688 225.082031 L 198.179688 212.855469 L 67.886719 212.855469 Z M 67.886719 225.082031 " fill-opacity="1" fill-rule="nonzero"/><path fill="#ff66c4" d="M 220.570312 210.820312 L 306.074219 210.820312 L 306.074219 227.121094 L 220.570312 227.121094 Z M 220.570312 210.820312 " fill-opacity="1" fill-rule="nonzero"/><path fill="#545454" d="M 306.074219 229.15625 L 220.570312 229.15625 C 219.449219 229.15625 218.535156 228.246094 218.535156 227.121094 L 218.535156 210.820312 C 218.535156 209.695312 219.449219 208.78125 220.570312 208.78125 L 306.074219 208.78125 C 307.199219 208.78125 308.113281 209.695312 308.113281 210.820312 L 308.113281 227.121094 C 308.113281 228.246094 307.199219 229.15625 306.074219 229.15625 Z M 222.609375 225.082031 L 304.039062 225.082031 L 304.039062 212.855469 L 222.609375 212.855469 Z M 222.609375 225.082031 " fill-opacity="1" fill-rule="nonzero"/><path fill="#545454" d="M 76.03125 210.820312 L 80.101562 210.820312 L 80.101562 227.121094 L 76.03125 227.121094 Z M 76.03125 210.820312 " fill-opacity="1" fill-rule="nonzero"/><path fill="#545454" d="M 88.246094 210.820312 L 92.316406 210.820312 L 92.316406 227.121094 L 88.246094 227.121094 Z M 88.246094 210.820312 " fill-opacity="1" fill-rule="nonzero"/><path fill="#545454" d="M 100.460938 210.820312 L 104.53125 210.820312 L 104.53125 227.121094 L 100.460938 227.121094 Z M 100.460938 210.820312 " fill-opacity="1" fill-rule="nonzero"/><path fill="#545454" d="M 112.675781 210.820312 L 116.746094 210.820312 L 116.746094 227.121094 L 112.675781 227.121094 Z M 112.675781 210.820312 " fill-opacity="1" fill-rule="nonzero"/><path fill="#545454" d="M 124.890625 210.820312 L 128.960938 210.820312 L 128.960938 227.121094 L 124.890625 227.121094 Z M 124.890625 210.820312 " fill-opacity="1" fill-rule="nonzero"/><path fill="#545454" d="M 137.105469 210.820312 L 141.175781 210.820312 L 141.175781 227.121094 L 137.105469 227.121094 Z M 137.105469 210.820312 " fill-opacity="1" fill-rule="nonzero"/><path fill="#545454" d="M 149.320312 210.820312 L 153.390625 210.820312 L 153.390625 227.121094 L 149.320312 227.121094 Z M 149.320312 210.820312 " fill-opacity="1" fill-rule="nonzero"/><path fill="#545454" d="M 161.535156 210.820312 L 165.605469 210.820312 L 165.605469 227.121094 L 161.535156 227.121094 Z M 161.535156 210.820312 " fill-opacity="1" fill-rule="nonzero"/><path fill="#545454" d="M 242.964844 210.820312 L 247.039062 210.820312 L 247.039062 227.121094 L 242.964844 227.121094 Z M 242.964844 210.820312 " fill-opacity="1" fill-rule="nonzero"/><path fill="#545454" d="M 230.75 210.820312 L 234.824219 210.820312 L 234.824219 227.121094 L 230.75 227.121094 Z M 230.75 210.820312 " fill-opacity="1" fill-rule="nonzero"/><path fill="#545454" d="M 255.179688 210.820312 L 259.253906 210.820312 L 259.253906 227.121094 L 255.179688 227.121094 Z M 255.179688 210.820312 " fill-opacity="1" fill-rule="nonzero"/><path fill="#545454" d="M 267.394531 210.820312 L 271.46875 210.820312 L 271.46875 227.121094 L 267.394531 227.121094 Z M 267.394531 210.820312 " fill-opacity="1" fill-rule="nonzero"/><path fill="#545454" d="M 279.609375 210.820312 L 283.683594 210.820312 L 283.683594 227.121094 L 279.609375 227.121094 Z M 279.609375 210.820312 " fill-opacity="1" fill-rule="nonzero"/><path fill="#545454" d="M 291.824219 210.820312 L 295.898438 210.820312 L 295.898438 227.121094 L 291.824219 227.121094 Z M 291.824219 210.820312 " fill-opacity="1" fill-rule="nonzero"/><path fill="#545454" d="M 173.75 210.820312 L 177.820312 210.820312 L 177.820312 227.121094 L 173.75 227.121094 Z M 173.75 210.820312 " fill-opacity="1" fill-rule="nonzero"/><path fill="#545454" d="M 185.964844 210.820312 L 190.035156 210.820312 L 190.035156 227.121094 L 185.964844 227.121094 Z M 185.964844 210.820312 " fill-opacity="1" fill-rule="nonzero"/><path fill="#ffffff" d="M 78.066406 190.445312 L 49.5625 190.445312 C 47.316406 190.445312 45.492188 188.617188 45.492188 186.371094 L 45.492188 133.394531 C 45.492188 131.144531 47.316406 129.320312 49.5625 129.320312 L 78.066406 129.320312 C 80.3125 129.320312 82.136719 131.144531 82.136719 133.394531 L 82.136719 186.371094 C 82.136719 188.617188 80.3125 190.445312 78.066406 190.445312 Z M 78.066406 190.445312 " fill-opacity="1" fill-rule="nonzero"/><path fill="#ffffff" d="M 126.925781 190.445312 L 98.421875 190.445312 C 96.175781 190.445312 94.351562 188.617188 94.351562 186.371094 L 94.351562 133.394531 C 94.351562 131.144531 96.175781 129.320312 98.421875 129.320312 L 126.925781 129.320312 C 129.171875 129.320312 130.996094 131.144531 130.996094 133.394531 L 130.996094 186.371094 C 130.996094 188.617188 129.171875 190.445312 126.925781 190.445312 Z M 126.925781 190.445312 " fill-opacity="1" fill-rule="nonzero"/><path fill="#ffffff" d="M 175.785156 190.445312 L 147.28125 190.445312 C 145.035156 190.445312 143.210938 188.617188 143.210938 186.371094 L 143.210938 133.394531 C 143.210938 131.144531 145.035156 129.320312 147.28125 129.320312 L 175.785156 129.320312 C 178.03125 129.320312 179.855469 131.144531 179.855469 133.394531 L 179.855469 186.371094 C 179.855469 188.617188 178.03125 190.445312 175.785156 190.445312 Z M 175.785156 190.445312 " fill-opacity="1" fill-rule="nonzero"/><path fill="#ffffff" d="M 224.644531 190.445312 L 196.140625 190.445312 C 193.894531 190.445312 192.070312 188.617188 192.070312 186.371094 L 192.070312 133.394531 C 192.070312 131.144531 193.894531 129.320312 196.140625 129.320312 L 224.644531 129.320312 C 226.890625 129.320312 228.714844 131.144531 228.714844 133.394531 L 228.714844 186.371094 C 228.714844 188.617188 226.890625 190.445312 224.644531 190.445312 Z M 224.644531 190.445312 " fill-opacity="1" fill-rule="nonzero"/><path fill="#ffffff" d="M 273.503906 190.445312 L 245 190.445312 C 242.753906 190.445312 240.929688 188.617188 240.929688 186.371094 L 240.929688 133.394531 C 240.929688 131.144531 242.753906 129.320312 245 129.320312 L 273.503906 129.320312 C 275.75 129.320312 277.574219 131.144531 277.574219 133.394531 L 277.574219 186.371094 C 277.574219 188.617188 275.75 190.445312 273.503906 190.445312 Z M 273.503906 190.445312 " fill-opacity="1" fill-rule="nonzero"/><path fill="#ffffff" d="M 322.363281 190.445312 L 293.859375 190.445312 C 291.613281 190.445312 289.789062 188.617188 289.789062 186.371094 L 289.789062 133.394531 C 289.789062 131.144531 291.613281 129.320312 293.859375 129.320312 L 322.363281 129.320312 C 324.609375 129.320312 326.433594 131.144531 326.433594 133.394531 L 326.433594 186.371094 C 326.433594 188.617188 324.609375 190.445312 322.363281 190.445312 Z M 322.363281 190.445312 " fill-opacity="1" fill-rule="nonzero"/><path fill="#545454" d="M 82.136719 159.882812 C 81.011719 159.882812 80.101562 158.96875 80.101562 157.84375 L 80.101562 149.695312 C 80.101562 148.570312 81.011719 147.65625 82.136719 147.65625 C 83.261719 147.65625 84.171875 148.570312 84.171875 149.695312 L 84.171875 157.84375 C 84.171875 158.96875 83.261719 159.882812 82.136719 159.882812 Z M 82.136719 159.882812 " fill-opacity="1" fill-rule="nonzero"/><path fill="#545454" d="M 78.066406 192.480469 L 49.5625 192.480469 C 46.195312 192.480469 43.457031 189.738281 43.457031 186.371094 L 43.457031 133.394531 C 43.457031 130.023438 46.195312 127.28125 49.5625 127.28125 L 78.066406 127.28125 C 81.433594 127.28125 84.171875 130.023438 84.171875 133.394531 L 84.171875 141.542969 C 84.171875 142.667969 83.261719 143.582031 82.136719 143.582031 C 81.011719 143.582031 80.101562 142.667969 80.101562 141.542969 L 80.101562 133.394531 C 80.101562 132.269531 79.183594 131.355469 78.066406 131.355469 L 49.5625 131.355469 C 48.445312 131.355469 47.527344 132.269531 47.527344 133.394531 L 47.527344 186.371094 C 47.527344 187.496094 48.445312 188.40625 49.5625 188.40625 L 78.066406 188.40625 C 79.183594 188.40625 80.101562 187.496094 80.101562 186.371094 L 80.101562 165.996094 C 80.101562 164.871094 81.011719 163.957031 82.136719 163.957031 C 83.261719 163.957031 84.171875 164.871094 84.171875 165.996094 L 84.171875 186.371094 C 84.171875 189.738281 81.433594 192.480469 78.066406 192.480469 Z M 78.066406 192.480469 " fill-opacity="1" fill-rule="nonzero"/><path fill="#545454" d="M 126.925781 192.480469 L 122.851562 192.480469 C 121.730469 192.480469 120.816406 191.570312 120.816406 190.445312 C 120.816406 189.320312 121.730469 188.40625 122.851562 188.40625 L 126.925781 188.40625 C 128.042969 188.40625 128.960938 187.496094 128.960938 186.371094 L 128.960938 133.394531 C 128.960938 132.269531 128.042969 131.355469 126.925781 131.355469 L 98.421875 131.355469 C 97.304688 131.355469 96.386719 132.269531 96.386719 133.394531 L 96.386719 186.371094 C 96.386719 187.496094 97.304688 188.40625 98.421875 188.40625 L 110.636719 188.40625 C 111.761719 188.40625 112.675781 189.320312 112.675781 190.445312 C 112.675781 191.570312 111.761719 192.480469 110.636719 192.480469 L 98.421875 192.480469 C 95.054688 192.480469 92.316406 189.738281 92.316406 186.371094 L 92.316406 133.394531 C 92.316406 130.023438 95.054688 127.28125 98.421875 127.28125 L 126.925781 127.28125 C 130.292969 127.28125 133.03125 130.023438 133.03125 133.394531 L 133.03125 186.371094 C 133.03125 189.738281 130.292969 192.480469 126.925781 192.480469 Z M 126.925781 192.480469 " fill-opacity="1" fill-rule="nonzero"/><path fill="#545454" d="M 175.785156 192.480469 L 147.28125 192.480469 C 143.914062 192.480469 141.175781 189.738281 141.175781 186.371094 L 141.175781 133.394531 C 141.175781 130.023438 143.914062 127.28125 147.28125 127.28125 L 175.785156 127.28125 C 179.152344 127.28125 181.890625 130.023438 181.890625 133.394531 L 181.890625 186.371094 C 181.890625 189.738281 179.152344 192.480469 175.785156 192.480469 Z M 147.28125 131.355469 C 146.164062 131.355469 145.246094 132.269531 145.246094 133.394531 L 145.246094 186.371094 C 145.246094 187.496094 146.164062 188.40625 147.28125 188.40625 L 175.785156 188.40625 C 176.902344 188.40625 177.820312 187.496094 177.820312 186.371094 L 177.820312 133.394531 C 177.820312 132.269531 176.902344 131.355469 175.785156 131.355469 Z M 147.28125 131.355469 " fill-opacity="1" fill-rule="nonzero"/><path fill="#545454" d="M 273.503906 192.480469 L 261.289062 192.480469 C 260.164062 192.480469 259.253906 191.570312 259.253906 190.445312 C 259.253906 189.320312 260.164062 188.40625 261.289062 188.40625 L 273.503906 188.40625 C 274.621094 188.40625 275.539062 187.496094 275.539062 186.371094 L 275.539062 133.394531 C 275.539062 132.269531 274.621094 131.355469 273.503906 131.355469 L 245 131.355469 C 243.882812 131.355469 242.964844 132.269531 242.964844 133.394531 L 242.964844 145.621094 C 242.964844 146.746094 242.054688 147.65625 240.929688 147.65625 C 239.804688 147.65625 238.894531 146.746094 238.894531 145.621094 L 238.894531 133.394531 C 238.894531 130.023438 241.632812 127.28125 245 127.28125 L 273.503906 127.28125 C 276.871094 127.28125 279.609375 130.023438 279.609375 133.394531 L 279.609375 186.371094 C 279.609375 189.738281 276.871094 192.480469 273.503906 192.480469 Z M 273.503906 192.480469 " fill-opacity="1" fill-rule="nonzero"/><path fill="#545454" d="M 240.929688 168.03125 C 239.804688 168.03125 238.894531 167.121094 238.894531 165.996094 L 238.894531 157.84375 C 238.894531 156.71875 239.804688 155.808594 240.929688 155.808594 C 242.054688 155.808594 242.964844 156.71875 242.964844 157.84375 L 242.964844 165.996094 C 242.964844 167.121094 242.054688 168.03125 240.929688 168.03125 Z M 240.929688 168.03125 " fill-opacity="1" fill-rule="nonzero"/><path fill="#545454" d="M 253.144531 192.480469 L 245 192.480469 C 241.632812 192.480469 238.894531 189.738281 238.894531 186.371094 L 238.894531 174.144531 C 238.894531 173.019531 239.804688 172.105469 240.929688 172.105469 C 242.054688 172.105469 242.964844 173.019531 242.964844 174.144531 L 242.964844 186.371094 C 242.964844 187.496094 243.882812 188.40625 245 188.40625 L 253.144531 188.40625 C 254.269531 188.40625 255.179688 189.320312 255.179688 190.445312 C 255.179688 191.570312 254.269531 192.480469 253.144531 192.480469 Z M 253.144531 192.480469 " fill-opacity="1" fill-rule="nonzero"/><path fill="#545454" d="M 224.644531 192.480469 L 196.140625 192.480469 C 192.773438 192.480469 190.035156 189.738281 190.035156 186.371094 L 190.035156 133.394531 C 190.035156 130.023438 192.773438 127.28125 196.140625 127.28125 L 224.644531 127.28125 C 228.011719 127.28125 230.75 130.023438 230.75 133.394531 L 230.75 186.371094 C 230.75 189.738281 228.011719 192.480469 224.644531 192.480469 Z M 196.140625 131.355469 C 195.023438 131.355469 194.105469 132.269531 194.105469 133.394531 L 194.105469 186.371094 C 194.105469 187.496094 195.023438 188.40625 196.140625 188.40625 L 224.644531 188.40625 C 225.761719 188.40625 226.679688 187.496094 226.679688 186.371094 L 226.679688 133.394531 C 226.679688 132.269531 225.761719 131.355469 224.644531 131.355469 Z M 196.140625 131.355469 " fill-opacity="1" fill-rule="nonzero"/><path fill="#545454" d="M 322.363281 192.480469 L 293.859375 192.480469 C 290.492188 192.480469 287.753906 189.738281 287.753906 186.371094 L 287.753906 133.394531 C 287.753906 130.023438 290.492188 127.28125 293.859375 127.28125 L 322.363281 127.28125 C 325.730469 127.28125 328.46875 130.023438 328.46875 133.394531 L 328.46875 186.371094 C 328.46875 189.738281 325.730469 192.480469 322.363281 192.480469 Z M 293.859375 131.355469 C 292.742188 131.355469 291.824219 132.269531 291.824219 133.394531 L 291.824219 186.371094 C 291.824219 187.496094 292.742188 188.40625 293.859375 188.40625 L 322.363281 188.40625 C 323.480469 188.40625 324.398438 187.496094 324.398438 186.371094 L 324.398438 133.394531 C 324.398438 132.269531 323.480469 131.355469 322.363281 131.355469 Z M 293.859375 131.355469 " fill-opacity="1" fill-rule="nonzero"/></svg>