<svg xmlns="http://www.w3.org/2000/svg" xmlns:xlink="http://www.w3.org/1999/xlink" width="500" zoomAndPan="magnify" viewBox="0 0 375 374.999991" height="500" preserveAspectRatio="xMidYMid meet" version="1.0"><defs><clipPath id="id1"><path d="M 21.398438 107.445312 L 353.648438 107.445312 L 353.648438 292.695312 L 21.398438 292.695312 Z M 21.398438 107.445312 " clip-rule="nonzero"/></clipPath><clipPath id="id2"><path d="M 350.25 107.8125 L 350.386719 107.828125 L 350.519531 107.847656 L 350.648438 107.871094 L 350.773438 107.898438 L 350.90625 107.929688 L 351.03125 107.972656 L 351.148438 108.015625 L 351.269531 108.0625 L 351.503906 108.171875 L 351.617188 108.234375 L 351.726562 108.296875 L 351.828125 108.363281 L 351.941406 108.441406 L 352.035156 108.515625 L 352.140625 108.597656 L 352.230469 108.679688 L 352.324219 108.769531 L 352.410156 108.859375 L 352.5 108.957031 L 352.574219 109.054688 L 352.65625 109.15625 L 352.726562 109.257812 L 352.792969 109.371094 L 352.863281 109.480469 L 352.925781 109.589844 L 353.035156 109.824219 L 353.085938 109.941406 L 353.125 110.066406 L 353.167969 110.1875 L 353.195312 110.320312 L 353.230469 110.441406 L 353.25 110.574219 L 353.269531 110.703125 L 353.285156 110.84375 L 353.292969 110.972656 L 353.292969 244.304688 L 353.285156 244.441406 L 353.269531 244.574219 L 353.25 244.710938 L 353.230469 244.839844 L 353.195312 244.964844 L 353.167969 245.097656 L 353.125 245.21875 L 353.085938 245.335938 L 353.035156 245.460938 L 352.925781 245.695312 L 352.863281 245.804688 L 352.792969 245.914062 L 352.726562 246.019531 L 352.65625 246.128906 L 352.574219 246.226562 L 352.5 246.328125 L 352.410156 246.417969 L 352.324219 246.515625 L 352.230469 246.597656 L 352.140625 246.6875 L 352.035156 246.761719 L 351.941406 246.84375 L 351.828125 246.914062 L 351.726562 246.980469 L 351.617188 247.050781 L 351.503906 247.113281 L 351.269531 247.222656 L 351.148438 247.269531 L 351.03125 247.3125 L 350.90625 247.351562 L 350.773438 247.382812 L 350.648438 247.414062 L 350.519531 247.4375 L 350.386719 247.457031 L 350.25 247.46875 L 350.117188 247.476562 L 340.03125 247.476562 L 340.03125 292.34375 L 35.019531 292.34375 L 35.019531 247.476562 L 24.929688 247.476562 L 24.800781 247.46875 L 24.660156 247.457031 L 24.53125 247.4375 L 24.398438 247.414062 L 24.277344 247.382812 L 24.144531 247.351562 L 24.019531 247.3125 L 23.902344 247.269531 L 23.777344 247.222656 L 23.542969 247.113281 L 23.433594 247.050781 L 23.324219 246.980469 L 23.21875 246.914062 L 23.109375 246.84375 L 23.011719 246.761719 L 22.910156 246.6875 L 22.820312 246.597656 L 22.722656 246.515625 L 22.640625 246.417969 L 22.550781 246.328125 L 22.476562 246.226562 L 22.394531 246.128906 L 22.324219 246.019531 L 22.253906 245.914062 L 22.1875 245.804688 L 22.125 245.695312 L 22.070312 245.578125 L 22.011719 245.460938 L 21.964844 245.335938 L 21.925781 245.21875 L 21.882812 245.097656 L 21.855469 244.964844 L 21.820312 244.839844 L 21.800781 244.710938 L 21.777344 244.574219 L 21.765625 244.441406 L 21.757812 244.304688 L 21.757812 110.972656 L 21.765625 110.84375 L 21.777344 110.703125 L 21.800781 110.574219 L 21.820312 110.441406 L 21.855469 110.320312 L 21.882812 110.1875 L 21.925781 110.066406 L 21.964844 109.941406 L 22.011719 109.824219 L 22.070312 109.707031 L 22.125 109.589844 L 22.1875 109.480469 L 22.253906 109.371094 L 22.324219 109.257812 L 22.394531 109.15625 L 22.476562 109.054688 L 22.550781 108.957031 L 22.640625 108.859375 L 22.722656 108.769531 L 22.820312 108.679688 L 22.910156 108.597656 L 23.011719 108.515625 L 23.109375 108.441406 L 23.21875 108.363281 L 23.324219 108.296875 L 23.542969 108.171875 L 23.777344 108.0625 L 23.902344 108.015625 L 24.019531 107.972656 L 24.144531 107.929688 L 24.277344 107.898438 L 24.398438 107.871094 L 24.53125 107.847656 L 24.660156 107.828125 L 24.800781 107.8125 L 24.929688 107.808594 L 25.070312 107.800781 L 349.980469 107.800781 L 350.117188 107.808594 Z M 41.648438 285.722656 L 66.777344 285.722656 L 66.777344 266.601562 L 73.410156 266.601562 L 73.410156 285.722656 L 96.082031 285.722656 L 96.082031 266.601562 L 102.71875 266.601562 L 102.71875 285.722656 L 125.425781 285.722656 L 125.425781 266.601562 L 132.058594 266.601562 L 132.058594 285.722656 L 154.769531 285.722656 L 154.769531 266.601562 L 161.402344 266.601562 L 161.402344 285.722656 L 184.109375 285.722656 L 184.109375 266.601562 L 190.738281 266.601562 L 190.738281 285.722656 L 213.453125 285.722656 L 213.453125 266.601562 L 220.082031 266.601562 L 220.082031 285.722656 L 242.789062 285.722656 L 242.789062 266.601562 L 249.421875 266.601562 L 249.421875 285.722656 L 272.132812 285.722656 L 272.132812 266.601562 L 278.765625 266.601562 L 278.765625 285.722656 L 301.472656 285.722656 L 301.472656 266.601562 L 308.109375 266.601562 L 308.109375 285.722656 L 333.402344 285.722656 L 333.402344 247.476562 L 41.648438 247.476562 Z M 28.386719 240.863281 L 346.664062 240.863281 L 346.664062 114.421875 L 28.386719 114.421875 Z M 100.433594 138.484375 L 100.574219 138.5 L 100.703125 138.511719 L 100.835938 138.539062 L 100.960938 138.566406 L 101.089844 138.601562 L 101.214844 138.640625 L 101.332031 138.683594 L 101.457031 138.730469 L 101.574219 138.78125 L 101.691406 138.84375 L 101.800781 138.902344 L 101.910156 138.964844 L 102.019531 139.035156 L 102.125 139.109375 L 102.222656 139.1875 L 102.324219 139.269531 L 102.414062 139.351562 L 102.511719 139.441406 L 102.59375 139.53125 L 102.683594 139.625 L 102.765625 139.722656 L 102.839844 139.824219 L 102.910156 139.929688 L 102.980469 140.039062 L 103.046875 140.148438 L 103.109375 140.257812 L 103.164062 140.375 L 103.222656 140.492188 L 103.269531 140.609375 L 103.3125 140.734375 L 103.351562 140.859375 L 103.386719 140.980469 L 103.414062 141.113281 L 103.433594 141.242188 L 103.457031 141.375 L 103.46875 141.503906 L 103.476562 141.644531 L 103.484375 141.78125 L 103.484375 213.539062 L 103.476562 213.675781 L 103.46875 213.808594 L 103.457031 213.945312 L 103.433594 214.074219 L 103.414062 214.207031 L 103.386719 214.328125 L 103.351562 214.460938 L 103.3125 214.585938 L 103.269531 214.703125 L 103.222656 214.824219 L 103.164062 214.941406 L 103.109375 215.058594 L 103.046875 215.167969 L 102.980469 215.28125 L 102.910156 215.390625 L 102.839844 215.492188 L 102.765625 215.589844 L 102.683594 215.691406 L 102.59375 215.78125 L 102.511719 215.878906 L 102.414062 215.960938 L 102.324219 216.050781 L 102.222656 216.132812 L 102.125 216.207031 L 102.019531 216.277344 L 101.910156 216.347656 L 101.800781 216.414062 L 101.691406 216.476562 L 101.457031 216.585938 L 101.332031 216.636719 L 101.214844 216.675781 L 101.089844 216.71875 L 100.960938 216.753906 L 100.835938 216.78125 L 100.703125 216.800781 L 100.574219 216.820312 L 100.433594 216.835938 L 100.304688 216.839844 L 100.167969 216.847656 L 55.210938 216.847656 L 55.074219 216.839844 L 54.933594 216.835938 L 54.804688 216.820312 L 54.671875 216.800781 L 54.542969 216.78125 L 54.410156 216.753906 L 54.285156 216.71875 L 54.164062 216.675781 L 54.039062 216.636719 L 53.914062 216.585938 L 53.796875 216.53125 L 53.6875 216.476562 L 53.570312 216.414062 L 53.460938 216.347656 L 53.355469 216.277344 L 53.253906 216.207031 L 53.148438 216.132812 L 53.050781 216.050781 L 52.957031 215.960938 L 52.867188 215.878906 L 52.777344 215.78125 L 52.6875 215.691406 L 52.609375 215.589844 L 52.527344 215.492188 L 52.460938 215.390625 L 52.390625 215.28125 L 52.320312 215.167969 L 52.257812 215.058594 L 52.203125 214.941406 L 52.15625 214.824219 L 52.109375 214.703125 L 52.058594 214.585938 L 52.023438 214.460938 L 51.992188 214.328125 L 51.957031 214.207031 L 51.933594 214.074219 L 51.914062 213.945312 L 51.902344 213.808594 L 51.894531 213.675781 L 51.894531 141.644531 L 51.902344 141.503906 L 51.914062 141.375 L 51.933594 141.242188 L 51.957031 141.113281 L 51.992188 140.980469 L 52.023438 140.859375 L 52.058594 140.734375 L 52.109375 140.609375 L 52.203125 140.375 L 52.257812 140.257812 L 52.320312 140.148438 L 52.460938 139.929688 L 52.527344 139.824219 L 52.609375 139.722656 L 52.6875 139.625 L 52.777344 139.53125 L 52.957031 139.351562 L 53.050781 139.269531 L 53.148438 139.1875 L 53.253906 139.109375 L 53.355469 139.035156 L 53.460938 138.964844 L 53.570312 138.902344 L 53.6875 138.84375 L 53.796875 138.78125 L 53.914062 138.730469 L 54.039062 138.683594 L 54.164062 138.640625 L 54.285156 138.601562 L 54.410156 138.566406 L 54.542969 138.539062 L 54.671875 138.511719 L 54.804688 138.5 L 54.933594 138.484375 L 55.074219 138.46875 L 100.304688 138.46875 Z M 247.246094 138.484375 L 247.375 138.5 L 247.507812 138.511719 L 247.636719 138.539062 L 247.769531 138.566406 L 247.890625 138.601562 L 248.015625 138.640625 L 248.140625 138.683594 L 248.257812 138.730469 L 248.375 138.78125 L 248.492188 138.84375 L 248.601562 138.902344 L 248.714844 138.964844 L 248.824219 139.035156 L 248.925781 139.109375 L 249.03125 139.1875 L 249.125 139.269531 L 249.222656 139.351562 L 249.402344 139.53125 L 249.484375 139.625 L 249.566406 139.722656 L 249.644531 139.824219 L 249.71875 139.929688 L 249.789062 140.039062 L 249.914062 140.257812 L 249.976562 140.375 L 250.070312 140.609375 L 250.15625 140.859375 L 250.1875 140.980469 L 250.214844 141.113281 L 250.242188 141.242188 L 250.257812 141.375 L 250.273438 141.503906 L 250.285156 141.644531 L 250.285156 213.675781 L 250.273438 213.808594 L 250.257812 213.945312 L 250.242188 214.074219 L 250.214844 214.207031 L 250.1875 214.328125 L 250.15625 214.460938 L 250.113281 214.585938 L 250.070312 214.703125 L 250.023438 214.824219 L 249.976562 214.941406 L 249.914062 215.058594 L 249.851562 215.167969 L 249.789062 215.28125 L 249.71875 215.390625 L 249.644531 215.492188 L 249.566406 215.589844 L 249.484375 215.691406 L 249.402344 215.78125 L 249.3125 215.878906 L 249.222656 215.960938 L 249.125 216.050781 L 249.03125 216.132812 L 248.925781 216.207031 L 248.824219 216.277344 L 248.714844 216.347656 L 248.601562 216.414062 L 248.492188 216.476562 L 248.257812 216.585938 L 248.140625 216.636719 L 248.015625 216.675781 L 247.890625 216.71875 L 247.769531 216.753906 L 247.636719 216.78125 L 247.507812 216.800781 L 247.375 216.820312 L 247.246094 216.835938 L 247.105469 216.839844 L 246.96875 216.847656 L 202.046875 216.847656 L 201.910156 216.839844 L 201.773438 216.835938 L 201.640625 216.820312 L 201.511719 216.800781 L 201.378906 216.78125 L 201.246094 216.753906 L 201.125 216.71875 L 201 216.675781 L 200.875 216.636719 L 200.757812 216.585938 L 200.523438 216.476562 L 200.40625 216.414062 L 200.304688 216.347656 L 200.191406 216.277344 L 200.089844 216.207031 L 199.984375 216.132812 L 199.890625 216.050781 L 199.792969 215.960938 L 199.703125 215.878906 L 199.613281 215.78125 L 199.53125 215.691406 L 199.449219 215.589844 L 199.371094 215.492188 L 199.296875 215.390625 L 199.226562 215.28125 L 199.164062 215.167969 L 199.101562 215.058594 L 199.042969 214.941406 L 198.992188 214.824219 L 198.945312 214.703125 L 198.902344 214.585938 L 198.863281 214.460938 L 198.828125 214.328125 L 198.800781 214.207031 L 198.773438 214.074219 L 198.757812 213.945312 L 198.746094 213.808594 L 198.730469 213.675781 L 198.730469 141.644531 L 198.746094 141.503906 L 198.757812 141.375 L 198.773438 141.242188 L 198.800781 141.113281 L 198.828125 140.980469 L 198.863281 140.859375 L 198.902344 140.734375 L 198.945312 140.609375 L 198.992188 140.492188 L 199.042969 140.375 L 199.101562 140.257812 L 199.226562 140.039062 L 199.296875 139.929688 L 199.371094 139.824219 L 199.449219 139.722656 L 199.53125 139.625 L 199.613281 139.53125 L 199.792969 139.351562 L 199.890625 139.269531 L 199.984375 139.1875 L 200.089844 139.109375 L 200.191406 139.035156 L 200.304688 138.964844 L 200.40625 138.902344 L 200.523438 138.84375 L 200.640625 138.78125 L 200.757812 138.730469 L 200.875 138.683594 L 201 138.640625 L 201.125 138.601562 L 201.246094 138.566406 L 201.511719 138.511719 L 201.640625 138.5 L 201.773438 138.484375 L 201.910156 138.46875 L 247.105469 138.46875 Z M 320.679688 138.484375 L 320.8125 138.5 L 320.941406 138.511719 L 321.074219 138.539062 L 321.203125 138.566406 L 321.328125 138.601562 L 321.453125 138.640625 L 321.578125 138.683594 L 321.695312 138.730469 L 321.8125 138.78125 L 321.929688 138.84375 L 322.046875 138.902344 L 322.148438 138.964844 L 322.257812 139.035156 L 322.363281 139.109375 L 322.464844 139.1875 L 322.660156 139.351562 L 322.839844 139.53125 L 322.921875 139.625 L 323.003906 139.722656 L 323.078125 139.824219 L 323.15625 139.929688 L 323.222656 140.039062 L 323.347656 140.257812 L 323.410156 140.375 L 323.460938 140.492188 L 323.507812 140.609375 L 323.546875 140.734375 L 323.589844 140.859375 L 323.625 140.980469 L 323.652344 141.113281 L 323.679688 141.242188 L 323.695312 141.375 L 323.707031 141.503906 L 323.722656 141.644531 L 323.722656 213.675781 L 323.707031 213.808594 L 323.695312 213.945312 L 323.679688 214.074219 L 323.652344 214.207031 L 323.625 214.328125 L 323.589844 214.460938 L 323.546875 214.585938 L 323.507812 214.703125 L 323.460938 214.824219 L 323.410156 214.941406 L 323.347656 215.058594 L 323.285156 215.167969 L 323.222656 215.28125 L 323.15625 215.390625 L 323.078125 215.492188 L 323.003906 215.589844 L 322.921875 215.691406 L 322.839844 215.78125 L 322.75 215.878906 L 322.660156 215.960938 L 322.5625 216.050781 L 322.464844 216.132812 L 322.363281 216.207031 L 322.257812 216.277344 L 322.148438 216.347656 L 322.046875 216.414062 L 321.929688 216.476562 L 321.695312 216.585938 L 321.578125 216.636719 L 321.453125 216.675781 L 321.328125 216.71875 L 321.203125 216.753906 L 321.074219 216.78125 L 320.941406 216.800781 L 320.8125 216.820312 L 320.679688 216.835938 L 320.542969 216.839844 L 320.402344 216.847656 L 275.449219 216.847656 L 275.3125 216.839844 L 275.179688 216.835938 L 275.042969 216.820312 L 274.910156 216.800781 L 274.78125 216.78125 L 274.648438 216.753906 L 274.523438 216.71875 L 274.402344 216.675781 L 274.277344 216.636719 L 274.160156 216.585938 L 273.925781 216.476562 L 273.816406 216.414062 L 273.703125 216.347656 L 273.59375 216.277344 L 273.492188 216.207031 L 273.386719 216.132812 L 273.289062 216.050781 L 273.195312 215.960938 L 273.105469 215.878906 L 273.015625 215.78125 L 272.933594 215.691406 L 272.847656 215.589844 L 272.773438 215.492188 L 272.699219 215.390625 L 272.628906 215.28125 L 272.566406 215.167969 L 272.503906 215.058594 L 272.394531 214.824219 L 272.347656 214.703125 L 272.304688 214.585938 L 272.261719 214.460938 L 272.230469 214.328125 L 272.199219 214.207031 L 272.179688 214.074219 L 272.160156 213.945312 L 272.144531 213.808594 L 272.140625 213.675781 L 272.132812 213.539062 L 272.132812 141.78125 L 272.140625 141.644531 L 272.144531 141.503906 L 272.160156 141.375 L 272.179688 141.242188 L 272.199219 141.113281 L 272.230469 140.980469 L 272.261719 140.859375 L 272.347656 140.609375 L 272.394531 140.492188 L 272.503906 140.257812 L 272.628906 140.039062 L 272.699219 139.929688 L 272.773438 139.824219 L 272.847656 139.722656 L 272.933594 139.625 L 273.015625 139.53125 L 273.195312 139.351562 L 273.289062 139.269531 L 273.386719 139.1875 L 273.492188 139.109375 L 273.59375 139.035156 L 273.703125 138.964844 L 273.816406 138.902344 L 273.925781 138.84375 L 274.042969 138.78125 L 274.160156 138.730469 L 274.277344 138.683594 L 274.402344 138.640625 L 274.523438 138.601562 L 274.648438 138.566406 L 274.78125 138.539062 L 274.910156 138.511719 L 275.042969 138.5 L 275.179688 138.484375 L 275.3125 138.46875 L 320.542969 138.46875 Z M 173.835938 138.484375 L 173.972656 138.5 L 174.105469 138.511719 L 174.234375 138.539062 L 174.359375 138.566406 L 174.492188 138.601562 L 174.617188 138.640625 L 174.738281 138.683594 L 174.855469 138.730469 L 174.972656 138.78125 L 175.089844 138.84375 L 175.203125 138.902344 L 175.3125 138.964844 L 175.421875 139.035156 L 175.527344 139.109375 L 175.628906 139.1875 L 175.824219 139.351562 L 175.910156 139.441406 L 176 139.53125 L 176.085938 139.625 L 176.167969 139.722656 L 176.242188 139.824219 L 176.320312 139.929688 L 176.386719 140.039062 L 176.511719 140.257812 L 176.621094 140.492188 L 176.671875 140.609375 L 176.710938 140.734375 L 176.753906 140.859375 L 176.789062 140.980469 L 176.816406 141.113281 L 176.835938 141.242188 L 176.855469 141.375 L 176.871094 141.503906 L 176.878906 141.644531 L 176.882812 141.78125 L 176.882812 213.539062 L 176.878906 213.675781 L 176.871094 213.808594 L 176.855469 213.945312 L 176.835938 214.074219 L 176.816406 214.207031 L 176.789062 214.328125 L 176.753906 214.460938 L 176.710938 214.585938 L 176.671875 214.703125 L 176.621094 214.824219 L 176.511719 215.058594 L 176.449219 215.167969 L 176.386719 215.28125 L 176.320312 215.390625 L 176.242188 215.492188 L 176.167969 215.589844 L 176.085938 215.691406 L 176 215.78125 L 175.910156 215.878906 L 175.824219 215.960938 L 175.726562 216.050781 L 175.628906 216.132812 L 175.527344 216.207031 L 175.421875 216.277344 L 175.3125 216.347656 L 175.203125 216.414062 L 175.089844 216.476562 L 174.855469 216.585938 L 174.738281 216.636719 L 174.617188 216.675781 L 174.492188 216.71875 L 174.359375 216.753906 L 174.234375 216.78125 L 174.105469 216.800781 L 173.972656 216.820312 L 173.835938 216.835938 L 173.707031 216.839844 L 173.566406 216.847656 L 128.648438 216.847656 L 128.507812 216.839844 L 128.371094 216.835938 L 128.238281 216.820312 L 128.109375 216.800781 L 127.976562 216.78125 L 127.847656 216.753906 L 127.722656 216.71875 L 127.597656 216.675781 L 127.472656 216.636719 L 127.351562 216.585938 L 127.234375 216.53125 L 127.121094 216.476562 L 127.003906 216.414062 L 126.894531 216.347656 L 126.792969 216.277344 L 126.6875 216.207031 L 126.585938 216.132812 L 126.488281 216.050781 L 126.390625 215.960938 L 126.300781 215.878906 L 126.210938 215.78125 L 126.121094 215.691406 L 126.046875 215.589844 L 125.972656 215.492188 L 125.894531 215.390625 L 125.824219 215.28125 L 125.757812 215.167969 L 125.695312 215.058594 L 125.640625 214.941406 L 125.589844 214.824219 L 125.542969 214.703125 L 125.496094 214.585938 L 125.460938 214.460938 L 125.425781 214.328125 L 125.398438 214.207031 L 125.371094 214.074219 L 125.351562 213.945312 L 125.335938 213.808594 L 125.328125 213.675781 L 125.328125 141.644531 L 125.335938 141.503906 L 125.351562 141.375 L 125.371094 141.242188 L 125.398438 141.113281 L 125.425781 140.980469 L 125.460938 140.859375 L 125.496094 140.734375 L 125.542969 140.609375 L 125.589844 140.492188 L 125.640625 140.375 L 125.695312 140.257812 L 125.757812 140.148438 L 125.824219 140.039062 L 125.894531 139.929688 L 125.972656 139.824219 L 126.046875 139.722656 L 126.121094 139.625 L 126.210938 139.53125 L 126.390625 139.351562 L 126.585938 139.1875 L 126.6875 139.109375 L 126.792969 139.035156 L 126.894531 138.964844 L 127.003906 138.902344 L 127.121094 138.84375 L 127.234375 138.78125 L 127.351562 138.730469 L 127.472656 138.683594 L 127.597656 138.640625 L 127.722656 138.601562 L 127.847656 138.566406 L 127.976562 138.539062 L 128.109375 138.511719 L 128.238281 138.5 L 128.371094 138.484375 L 128.507812 138.46875 L 173.707031 138.46875 Z M 58.519531 210.230469 L 96.847656 210.230469 L 96.847656 145.089844 L 58.519531 145.089844 Z M 205.363281 210.230469 L 243.652344 210.230469 L 243.652344 145.089844 L 205.363281 145.089844 Z M 278.765625 210.230469 L 317.085938 210.230469 L 317.085938 145.089844 L 278.765625 145.089844 Z M 131.957031 210.230469 L 170.25 210.230469 L 170.25 145.089844 L 131.957031 145.089844 Z M 131.957031 210.230469 " clip-rule="nonzero"/></clipPath><linearGradient x1="250" gradientTransform="matrix(0.689601, 0, 0, 0.68813, 15.124455, 28.039369)" y1="115.910001" x2="250" gradientUnits="userSpaceOnUse" y2="384.089984" id="id3"><stop stop-opacity="1" stop-color="rgb(17.298889%, 92.498779%, 100%)" offset="0"/><stop stop-opacity="1" stop-color="rgb(17.611694%, 92.3172%, 100%)" offset="0.00390625"/><stop stop-opacity="1" stop-color="rgb(17.926025%, 92.13562%, 100%)" offset="0.0078125"/><stop stop-opacity="1" stop-color="rgb(18.238831%, 91.952515%, 100%)" offset="0.0117188"/><stop stop-opacity="1" stop-color="rgb(18.553162%, 91.770935%, 100%)" offset="0.015625"/><stop stop-opacity="1" stop-color="rgb(18.867493%, 91.589355%, 100%)" offset="0.0195312"/><stop stop-opacity="1" stop-color="rgb(19.181824%, 91.407776%, 100%)" offset="0.0234375"/><stop stop-opacity="1" stop-color="rgb(19.494629%, 91.22467%, 100%)" offset="0.0273437"/><stop stop-opacity="1" stop-color="rgb(19.80896%, 91.043091%, 100%)" offset="0.03125"/><stop stop-opacity="1" stop-color="rgb(20.121765%, 90.859985%, 100%)" offset="0.0351562"/><stop stop-opacity="1" stop-color="rgb(20.436096%, 90.678406%, 100%)" offset="0.0390625"/><stop stop-opacity="1" stop-color="rgb(20.748901%, 90.496826%, 100%)" offset="0.0429687"/><stop stop-opacity="1" stop-color="rgb(21.063232%, 90.315247%, 100%)" offset="0.046875"/><stop stop-opacity="1" stop-color="rgb(21.376038%, 90.132141%, 100%)" offset="0.0507812"/><stop stop-opacity="1" stop-color="rgb(21.690369%, 89.950562%, 100%)" offset="0.0546875"/><stop stop-opacity="1" stop-color="rgb(22.003174%, 89.768982%, 100%)" offset="0.0585937"/><stop stop-opacity="1" stop-color="rgb(22.317505%, 89.587402%, 100%)" offset="0.0625"/><stop stop-opacity="1" stop-color="rgb(22.63031%, 89.404297%, 100%)" offset="0.0664062"/><stop stop-opacity="1" stop-color="rgb(22.944641%, 89.222717%, 100%)" offset="0.0703125"/><stop stop-opacity="1" stop-color="rgb(23.258972%, 89.039612%, 100%)" offset="0.0742188"/><stop stop-opacity="1" stop-color="rgb(23.573303%, 88.858032%, 100%)" offset="0.078125"/><stop stop-opacity="1" stop-color="rgb(23.886108%, 88.676453%, 100%)" offset="0.0820312"/><stop stop-opacity="1" stop-color="rgb(24.200439%, 88.494873%, 100%)" offset="0.0859375"/><stop stop-opacity="1" stop-color="rgb(24.513245%, 88.311768%, 100%)" offset="0.0898438"/><stop stop-opacity="1" stop-color="rgb(24.827576%, 88.130188%, 100%)" offset="0.09375"/><stop stop-opacity="1" stop-color="rgb(25.140381%, 87.948608%, 100%)" offset="0.0976562"/><stop stop-opacity="1" stop-color="rgb(25.454712%, 87.767029%, 100%)" offset="0.101562"/><stop stop-opacity="1" stop-color="rgb(25.767517%, 87.583923%, 100%)" offset="0.105469"/><stop stop-opacity="1" stop-color="rgb(26.081848%, 87.402344%, 100%)" offset="0.109375"/><stop stop-opacity="1" stop-color="rgb(26.394653%, 87.219238%, 100%)" offset="0.113281"/><stop stop-opacity="1" stop-color="rgb(26.708984%, 87.037659%, 100%)" offset="0.117188"/><stop stop-opacity="1" stop-color="rgb(27.02179%, 86.856079%, 100%)" offset="0.121094"/><stop stop-opacity="1" stop-color="rgb(27.336121%, 86.6745%, 100%)" offset="0.125"/><stop stop-opacity="1" stop-color="rgb(27.650452%, 86.491394%, 100%)" offset="0.128906"/><stop stop-opacity="1" stop-color="rgb(27.964783%, 86.309814%, 100%)" offset="0.132812"/><stop stop-opacity="1" stop-color="rgb(28.277588%, 86.128235%, 100%)" offset="0.136719"/><stop stop-opacity="1" stop-color="rgb(28.591919%, 85.946655%, 100%)" offset="0.140625"/><stop stop-opacity="1" stop-color="rgb(28.904724%, 85.76355%, 100%)" offset="0.144531"/><stop stop-opacity="1" stop-color="rgb(29.219055%, 85.58197%, 100%)" offset="0.148438"/><stop stop-opacity="1" stop-color="rgb(29.53186%, 85.398865%, 100%)" offset="0.152344"/><stop stop-opacity="1" stop-color="rgb(29.846191%, 85.217285%, 100%)" offset="0.15625"/><stop stop-opacity="1" stop-color="rgb(30.158997%, 85.035706%, 100%)" offset="0.160156"/><stop stop-opacity="1" stop-color="rgb(30.473328%, 84.854126%, 100%)" offset="0.164062"/><stop stop-opacity="1" stop-color="rgb(30.786133%, 84.671021%, 100%)" offset="0.167969"/><stop stop-opacity="1" stop-color="rgb(31.100464%, 84.489441%, 100%)" offset="0.171875"/><stop stop-opacity="1" stop-color="rgb(31.413269%, 84.307861%, 100%)" offset="0.175781"/><stop stop-opacity="1" stop-color="rgb(31.7276%, 84.126282%, 100%)" offset="0.179688"/><stop stop-opacity="1" stop-color="rgb(32.040405%, 83.943176%, 100%)" offset="0.183594"/><stop stop-opacity="1" stop-color="rgb(32.354736%, 83.761597%, 100%)" offset="0.1875"/><stop stop-opacity="1" stop-color="rgb(32.669067%, 83.580017%, 100%)" offset="0.191406"/><stop stop-opacity="1" stop-color="rgb(32.983398%, 83.398438%, 100%)" offset="0.195312"/><stop stop-opacity="1" stop-color="rgb(33.296204%, 83.215332%, 100%)" offset="0.199219"/><stop stop-opacity="1" stop-color="rgb(33.610535%, 83.033752%, 100%)" offset="0.203125"/><stop stop-opacity="1" stop-color="rgb(33.92334%, 82.850647%, 100%)" offset="0.207031"/><stop stop-opacity="1" stop-color="rgb(34.237671%, 82.669067%, 100%)" offset="0.210938"/><stop stop-opacity="1" stop-color="rgb(34.550476%, 82.487488%, 100%)" offset="0.214844"/><stop stop-opacity="1" stop-color="rgb(34.864807%, 82.305908%, 100%)" offset="0.21875"/><stop stop-opacity="1" stop-color="rgb(35.177612%, 82.122803%, 100%)" offset="0.222656"/><stop stop-opacity="1" stop-color="rgb(35.491943%, 81.941223%, 100%)" offset="0.226562"/><stop stop-opacity="1" stop-color="rgb(35.804749%, 81.759644%, 100%)" offset="0.230469"/><stop stop-opacity="1" stop-color="rgb(36.11908%, 81.578064%, 100%)" offset="0.234375"/><stop stop-opacity="1" stop-color="rgb(36.431885%, 81.394958%, 100%)" offset="0.238281"/><stop stop-opacity="1" stop-color="rgb(36.746216%, 81.213379%, 100%)" offset="0.242188"/><stop stop-opacity="1" stop-color="rgb(37.060547%, 81.030273%, 100%)" offset="0.246094"/><stop stop-opacity="1" stop-color="rgb(37.374878%, 80.848694%, 100%)" offset="0.25"/><stop stop-opacity="1" stop-color="rgb(37.687683%, 80.667114%, 100%)" offset="0.253906"/><stop stop-opacity="1" stop-color="rgb(38.002014%, 80.485535%, 100%)" offset="0.257812"/><stop stop-opacity="1" stop-color="rgb(38.314819%, 80.302429%, 100%)" offset="0.261719"/><stop stop-opacity="1" stop-color="rgb(38.62915%, 80.12085%, 100%)" offset="0.265625"/><stop stop-opacity="1" stop-color="rgb(38.941956%, 79.93927%, 100%)" offset="0.269531"/><stop stop-opacity="1" stop-color="rgb(39.256287%, 79.75769%, 100%)" offset="0.273437"/><stop stop-opacity="1" stop-color="rgb(39.569092%, 79.574585%, 100%)" offset="0.277344"/><stop stop-opacity="1" stop-color="rgb(39.883423%, 79.393005%, 100%)" offset="0.28125"/><stop stop-opacity="1" stop-color="rgb(40.196228%, 79.2099%, 100%)" offset="0.285156"/><stop stop-opacity="1" stop-color="rgb(40.510559%, 79.02832%, 100%)" offset="0.289062"/><stop stop-opacity="1" stop-color="rgb(40.823364%, 78.846741%, 100%)" offset="0.292969"/><stop stop-opacity="1" stop-color="rgb(41.137695%, 78.665161%, 100%)" offset="0.296875"/><stop stop-opacity="1" stop-color="rgb(41.452026%, 78.482056%, 100%)" offset="0.300781"/><stop stop-opacity="1" stop-color="rgb(41.766357%, 78.300476%, 100%)" offset="0.304687"/><stop stop-opacity="1" stop-color="rgb(42.079163%, 78.118896%, 100%)" offset="0.308594"/><stop stop-opacity="1" stop-color="rgb(42.393494%, 77.937317%, 100%)" offset="0.3125"/><stop stop-opacity="1" stop-color="rgb(42.706299%, 77.754211%, 100%)" offset="0.316406"/><stop stop-opacity="1" stop-color="rgb(43.02063%, 77.572632%, 100%)" offset="0.320312"/><stop stop-opacity="1" stop-color="rgb(43.333435%, 77.389526%, 100%)" offset="0.324219"/><stop stop-opacity="1" stop-color="rgb(43.647766%, 77.207947%, 100%)" offset="0.328125"/><stop stop-opacity="1" stop-color="rgb(43.960571%, 77.026367%, 100%)" offset="0.332031"/><stop stop-opacity="1" stop-color="rgb(44.274902%, 76.844788%, 100%)" offset="0.335937"/><stop stop-opacity="1" stop-color="rgb(44.587708%, 76.661682%, 100%)" offset="0.339844"/><stop stop-opacity="1" stop-color="rgb(44.902039%, 76.480103%, 100%)" offset="0.34375"/><stop stop-opacity="1" stop-color="rgb(45.214844%, 76.298523%, 100%)" offset="0.347656"/><stop stop-opacity="1" stop-color="rgb(45.529175%, 76.116943%, 100%)" offset="0.351562"/><stop stop-opacity="1" stop-color="rgb(45.84198%, 75.933838%, 100%)" offset="0.355469"/><stop stop-opacity="1" stop-color="rgb(46.156311%, 75.752258%, 100%)" offset="0.359375"/><stop stop-opacity="1" stop-color="rgb(46.470642%, 75.569153%, 100%)" offset="0.363281"/><stop stop-opacity="1" stop-color="rgb(46.784973%, 75.387573%, 100%)" offset="0.367187"/><stop stop-opacity="1" stop-color="rgb(47.097778%, 75.205994%, 100%)" offset="0.371094"/><stop stop-opacity="1" stop-color="rgb(47.412109%, 75.024414%, 100%)" offset="0.375"/><stop stop-opacity="1" stop-color="rgb(47.724915%, 74.841309%, 100%)" offset="0.378906"/><stop stop-opacity="1" stop-color="rgb(48.039246%, 74.659729%, 100%)" offset="0.382812"/><stop stop-opacity="1" stop-color="rgb(48.352051%, 74.478149%, 100%)" offset="0.386719"/><stop stop-opacity="1" stop-color="rgb(48.666382%, 74.29657%, 100%)" offset="0.390625"/><stop stop-opacity="1" stop-color="rgb(48.979187%, 74.113464%, 100%)" offset="0.394531"/><stop stop-opacity="1" stop-color="rgb(49.293518%, 73.931885%, 100%)" offset="0.398437"/><stop stop-opacity="1" stop-color="rgb(49.606323%, 73.750305%, 100%)" offset="0.402344"/><stop stop-opacity="1" stop-color="rgb(49.920654%, 73.568726%, 100%)" offset="0.40625"/><stop stop-opacity="1" stop-color="rgb(50.233459%, 73.38562%, 100%)" offset="0.410156"/><stop stop-opacity="1" stop-color="rgb(50.547791%, 73.204041%, 100%)" offset="0.414062"/><stop stop-opacity="1" stop-color="rgb(50.862122%, 73.020935%, 100%)" offset="0.417969"/><stop stop-opacity="1" stop-color="rgb(51.176453%, 72.839355%, 100%)" offset="0.421875"/><stop stop-opacity="1" stop-color="rgb(51.489258%, 72.657776%, 100%)" offset="0.425781"/><stop stop-opacity="1" stop-color="rgb(51.803589%, 72.476196%, 100%)" offset="0.429687"/><stop stop-opacity="1" stop-color="rgb(52.116394%, 72.293091%, 100%)" offset="0.433594"/><stop stop-opacity="1" stop-color="rgb(52.430725%, 72.111511%, 100%)" offset="0.4375"/><stop stop-opacity="1" stop-color="rgb(52.74353%, 71.929932%, 100%)" offset="0.441406"/><stop stop-opacity="1" stop-color="rgb(53.057861%, 71.748352%, 100%)" offset="0.445312"/><stop stop-opacity="1" stop-color="rgb(53.370667%, 71.565247%, 100%)" offset="0.449219"/><stop stop-opacity="1" stop-color="rgb(53.684998%, 71.383667%, 100%)" offset="0.453125"/><stop stop-opacity="1" stop-color="rgb(53.997803%, 71.200562%, 100%)" offset="0.457031"/><stop stop-opacity="1" stop-color="rgb(54.312134%, 71.018982%, 100%)" offset="0.460937"/><stop stop-opacity="1" stop-color="rgb(54.624939%, 70.837402%, 100%)" offset="0.464844"/><stop stop-opacity="1" stop-color="rgb(54.93927%, 70.655823%, 100%)" offset="0.46875"/><stop stop-opacity="1" stop-color="rgb(55.253601%, 70.472717%, 100%)" offset="0.472656"/><stop stop-opacity="1" stop-color="rgb(55.567932%, 70.291138%, 100%)" offset="0.476562"/><stop stop-opacity="1" stop-color="rgb(55.880737%, 70.109558%, 100%)" offset="0.480469"/><stop stop-opacity="1" stop-color="rgb(56.195068%, 69.927979%, 100%)" offset="0.484375"/><stop stop-opacity="1" stop-color="rgb(56.507874%, 69.744873%, 100%)" offset="0.488281"/><stop stop-opacity="1" stop-color="rgb(56.822205%, 69.563293%, 100%)" offset="0.492187"/><stop stop-opacity="1" stop-color="rgb(57.13501%, 69.380188%, 100%)" offset="0.496094"/><stop stop-opacity="1" stop-color="rgb(57.449341%, 69.198608%, 100%)" offset="0.5"/><stop stop-opacity="1" stop-color="rgb(57.762146%, 69.017029%, 100%)" offset="0.503906"/><stop stop-opacity="1" stop-color="rgb(58.076477%, 68.835449%, 100%)" offset="0.507812"/><stop stop-opacity="1" stop-color="rgb(58.389282%, 68.652344%, 100%)" offset="0.511719"/><stop stop-opacity="1" stop-color="rgb(58.703613%, 68.470764%, 100%)" offset="0.515625"/><stop stop-opacity="1" stop-color="rgb(59.016418%, 68.289185%, 100%)" offset="0.519531"/><stop stop-opacity="1" stop-color="rgb(59.33075%, 68.107605%, 100%)" offset="0.523438"/><stop stop-opacity="1" stop-color="rgb(59.643555%, 67.9245%, 100%)" offset="0.527344"/><stop stop-opacity="1" stop-color="rgb(59.957886%, 67.74292%, 100%)" offset="0.53125"/><stop stop-opacity="1" stop-color="rgb(60.272217%, 67.559814%, 100%)" offset="0.535156"/><stop stop-opacity="1" stop-color="rgb(60.586548%, 67.378235%, 100%)" offset="0.539062"/><stop stop-opacity="1" stop-color="rgb(60.899353%, 67.196655%, 100%)" offset="0.542969"/><stop stop-opacity="1" stop-color="rgb(61.213684%, 67.015076%, 100%)" offset="0.546875"/><stop stop-opacity="1" stop-color="rgb(61.526489%, 66.83197%, 100%)" offset="0.550781"/><stop stop-opacity="1" stop-color="rgb(61.84082%, 66.650391%, 100%)" offset="0.554688"/><stop stop-opacity="1" stop-color="rgb(62.153625%, 66.468811%, 100%)" offset="0.558594"/><stop stop-opacity="1" stop-color="rgb(62.467957%, 66.287231%, 100%)" offset="0.5625"/><stop stop-opacity="1" stop-color="rgb(62.780762%, 66.104126%, 100%)" offset="0.566406"/><stop stop-opacity="1" stop-color="rgb(63.095093%, 65.922546%, 100%)" offset="0.570312"/><stop stop-opacity="1" stop-color="rgb(63.407898%, 65.739441%, 100%)" offset="0.574219"/><stop stop-opacity="1" stop-color="rgb(63.722229%, 65.557861%, 100%)" offset="0.578125"/><stop stop-opacity="1" stop-color="rgb(64.035034%, 65.376282%, 100%)" offset="0.582031"/><stop stop-opacity="1" stop-color="rgb(64.349365%, 65.194702%, 100%)" offset="0.585938"/><stop stop-opacity="1" stop-color="rgb(64.663696%, 65.011597%, 100%)" offset="0.589844"/><stop stop-opacity="1" stop-color="rgb(64.978027%, 64.830017%, 100%)" offset="0.59375"/><stop stop-opacity="1" stop-color="rgb(65.290833%, 64.648438%, 100%)" offset="0.597656"/><stop stop-opacity="1" stop-color="rgb(65.605164%, 64.466858%, 100%)" offset="0.601562"/><stop stop-opacity="1" stop-color="rgb(65.917969%, 64.283752%, 100%)" offset="0.605469"/><stop stop-opacity="1" stop-color="rgb(66.2323%, 64.102173%, 100%)" offset="0.609375"/><stop stop-opacity="1" stop-color="rgb(66.545105%, 63.920593%, 100%)" offset="0.613281"/><stop stop-opacity="1" stop-color="rgb(66.859436%, 63.739014%, 100%)" offset="0.617188"/><stop stop-opacity="1" stop-color="rgb(67.172241%, 63.555908%, 100%)" offset="0.621094"/><stop stop-opacity="1" stop-color="rgb(67.486572%, 63.374329%, 100%)" offset="0.625"/><stop stop-opacity="1" stop-color="rgb(67.799377%, 63.191223%, 100%)" offset="0.628906"/><stop stop-opacity="1" stop-color="rgb(68.113708%, 63.009644%, 100%)" offset="0.632812"/><stop stop-opacity="1" stop-color="rgb(68.426514%, 62.828064%, 100%)" offset="0.636719"/><stop stop-opacity="1" stop-color="rgb(68.740845%, 62.646484%, 100%)" offset="0.640625"/><stop stop-opacity="1" stop-color="rgb(69.055176%, 62.463379%, 100%)" offset="0.644531"/><stop stop-opacity="1" stop-color="rgb(69.369507%, 62.281799%, 100%)" offset="0.648438"/><stop stop-opacity="1" stop-color="rgb(69.682312%, 62.10022%, 100%)" offset="0.652344"/><stop stop-opacity="1" stop-color="rgb(69.996643%, 61.91864%, 100%)" offset="0.65625"/><stop stop-opacity="1" stop-color="rgb(70.309448%, 61.735535%, 100%)" offset="0.660156"/><stop stop-opacity="1" stop-color="rgb(70.623779%, 61.553955%, 100%)" offset="0.664062"/><stop stop-opacity="1" stop-color="rgb(70.936584%, 61.37085%, 100%)" offset="0.667969"/><stop stop-opacity="1" stop-color="rgb(71.250916%, 61.18927%, 100%)" offset="0.671875"/><stop stop-opacity="1" stop-color="rgb(71.563721%, 61.00769%, 100%)" offset="0.675781"/><stop stop-opacity="1" stop-color="rgb(71.878052%, 60.826111%, 100%)" offset="0.679688"/><stop stop-opacity="1" stop-color="rgb(72.190857%, 60.643005%, 100%)" offset="0.683594"/><stop stop-opacity="1" stop-color="rgb(72.505188%, 60.461426%, 100%)" offset="0.6875"/><stop stop-opacity="1" stop-color="rgb(72.817993%, 60.279846%, 100%)" offset="0.691406"/><stop stop-opacity="1" stop-color="rgb(73.132324%, 60.098267%, 100%)" offset="0.695312"/><stop stop-opacity="1" stop-color="rgb(73.445129%, 59.915161%, 100%)" offset="0.699219"/><stop stop-opacity="1" stop-color="rgb(73.75946%, 59.733582%, 100%)" offset="0.703125"/><stop stop-opacity="1" stop-color="rgb(74.073792%, 59.550476%, 100%)" offset="0.707031"/><stop stop-opacity="1" stop-color="rgb(74.388123%, 59.368896%, 100%)" offset="0.710938"/><stop stop-opacity="1" stop-color="rgb(74.700928%, 59.187317%, 100%)" offset="0.714844"/><stop stop-opacity="1" stop-color="rgb(75.015259%, 59.005737%, 100%)" offset="0.71875"/><stop stop-opacity="1" stop-color="rgb(75.328064%, 58.822632%, 100%)" offset="0.722656"/><stop stop-opacity="1" stop-color="rgb(75.642395%, 58.641052%, 100%)" offset="0.726562"/><stop stop-opacity="1" stop-color="rgb(75.9552%, 58.459473%, 100%)" offset="0.730469"/><stop stop-opacity="1" stop-color="rgb(76.269531%, 58.277893%, 100%)" offset="0.734375"/><stop stop-opacity="1" stop-color="rgb(76.582336%, 58.094788%, 100%)" offset="0.738281"/><stop stop-opacity="1" stop-color="rgb(76.896667%, 57.913208%, 100%)" offset="0.742188"/><stop stop-opacity="1" stop-color="rgb(77.209473%, 57.730103%, 100%)" offset="0.746094"/><stop stop-opacity="1" stop-color="rgb(77.523804%, 57.548523%, 100%)" offset="0.75"/><stop stop-opacity="1" stop-color="rgb(77.836609%, 57.366943%, 100%)" offset="0.753906"/><stop stop-opacity="1" stop-color="rgb(78.15094%, 57.185364%, 100%)" offset="0.757812"/><stop stop-opacity="1" stop-color="rgb(78.465271%, 57.002258%, 100%)" offset="0.761719"/><stop stop-opacity="1" stop-color="rgb(78.779602%, 56.820679%, 100%)" offset="0.765625"/><stop stop-opacity="1" stop-color="rgb(79.092407%, 56.639099%, 100%)" offset="0.769531"/><stop stop-opacity="1" stop-color="rgb(79.406738%, 56.45752%, 100%)" offset="0.773438"/><stop stop-opacity="1" stop-color="rgb(79.719543%, 56.274414%, 100%)" offset="0.777344"/><stop stop-opacity="1" stop-color="rgb(80.033875%, 56.092834%, 100%)" offset="0.78125"/><stop stop-opacity="1" stop-color="rgb(80.34668%, 55.911255%, 100%)" offset="0.785156"/><stop stop-opacity="1" stop-color="rgb(80.661011%, 55.729675%, 100%)" offset="0.789062"/><stop stop-opacity="1" stop-color="rgb(80.973816%, 55.54657%, 100%)" offset="0.792969"/><stop stop-opacity="1" stop-color="rgb(81.288147%, 55.36499%, 100%)" offset="0.796875"/><stop stop-opacity="1" stop-color="rgb(81.600952%, 55.181885%, 100%)" offset="0.800781"/><stop stop-opacity="1" stop-color="rgb(81.915283%, 55.000305%, 100%)" offset="0.804688"/><stop stop-opacity="1" stop-color="rgb(82.228088%, 54.818726%, 100%)" offset="0.808594"/><stop stop-opacity="1" stop-color="rgb(82.542419%, 54.637146%, 100%)" offset="0.8125"/><stop stop-opacity="1" stop-color="rgb(82.85675%, 54.454041%, 100%)" offset="0.816406"/><stop stop-opacity="1" stop-color="rgb(83.171082%, 54.272461%, 100%)" offset="0.820312"/><stop stop-opacity="1" stop-color="rgb(83.483887%, 54.090881%, 100%)" offset="0.824219"/><stop stop-opacity="1" stop-color="rgb(83.798218%, 53.909302%, 100%)" offset="0.828125"/><stop stop-opacity="1" stop-color="rgb(84.111023%, 53.726196%, 100%)" offset="0.832031"/><stop stop-opacity="1" stop-color="rgb(84.425354%, 53.544617%, 100%)" offset="0.835938"/><stop stop-opacity="1" stop-color="rgb(84.738159%, 53.361511%, 100%)" offset="0.839844"/><stop stop-opacity="1" stop-color="rgb(85.05249%, 53.179932%, 100%)" offset="0.84375"/><stop stop-opacity="1" stop-color="rgb(85.365295%, 52.998352%, 100%)" offset="0.847656"/><stop stop-opacity="1" stop-color="rgb(85.679626%, 52.816772%, 100%)" offset="0.851562"/><stop stop-opacity="1" stop-color="rgb(85.992432%, 52.633667%, 100%)" offset="0.855469"/><stop stop-opacity="1" stop-color="rgb(86.306763%, 52.452087%, 100%)" offset="0.859375"/><stop stop-opacity="1" stop-color="rgb(86.619568%, 52.270508%, 100%)" offset="0.863281"/><stop stop-opacity="1" stop-color="rgb(86.933899%, 52.088928%, 100%)" offset="0.867188"/><stop stop-opacity="1" stop-color="rgb(87.246704%, 51.905823%, 100%)" offset="0.871094"/><stop stop-opacity="1" stop-color="rgb(87.561035%, 51.724243%, 100%)" offset="0.875"/><stop stop-opacity="1" stop-color="rgb(87.875366%, 51.541138%, 100%)" offset="0.878906"/><stop stop-opacity="1" stop-color="rgb(88.189697%, 51.359558%, 100%)" offset="0.882812"/><stop stop-opacity="1" stop-color="rgb(88.502502%, 51.177979%, 100%)" offset="0.886719"/><stop stop-opacity="1" stop-color="rgb(88.816833%, 50.996399%, 100%)" offset="0.890625"/><stop stop-opacity="1" stop-color="rgb(89.129639%, 50.813293%, 100%)" offset="0.894531"/><stop stop-opacity="1" stop-color="rgb(89.44397%, 50.631714%, 100%)" offset="0.898438"/><stop stop-opacity="1" stop-color="rgb(89.756775%, 50.450134%, 100%)" offset="0.902344"/><stop stop-opacity="1" stop-color="rgb(90.071106%, 50.268555%, 100%)" offset="0.90625"/><stop stop-opacity="1" stop-color="rgb(90.383911%, 50.085449%, 100%)" offset="0.910156"/><stop stop-opacity="1" stop-color="rgb(90.698242%, 49.90387%, 100%)" offset="0.914062"/><stop stop-opacity="1" stop-color="rgb(91.011047%, 49.720764%, 100%)" offset="0.917969"/><stop stop-opacity="1" stop-color="rgb(91.325378%, 49.539185%, 100%)" offset="0.921875"/><stop stop-opacity="1" stop-color="rgb(91.638184%, 49.357605%, 100%)" offset="0.925781"/><stop stop-opacity="1" stop-color="rgb(91.952515%, 49.176025%, 100%)" offset="0.929688"/><stop stop-opacity="1" stop-color="rgb(92.266846%, 48.99292%, 100%)" offset="0.933594"/><stop stop-opacity="1" stop-color="rgb(92.581177%, 48.81134%, 100%)" offset="0.9375"/><stop stop-opacity="1" stop-color="rgb(92.893982%, 48.629761%, 100%)" offset="0.941406"/><stop stop-opacity="1" stop-color="rgb(93.208313%, 48.448181%, 100%)" offset="0.945312"/><stop stop-opacity="1" stop-color="rgb(93.521118%, 48.265076%, 100%)" offset="0.949219"/><stop stop-opacity="1" stop-color="rgb(93.835449%, 48.083496%, 100%)" offset="0.953125"/><stop stop-opacity="1" stop-color="rgb(94.148254%, 47.900391%, 100%)" offset="0.957031"/><stop stop-opacity="1" stop-color="rgb(94.462585%, 47.718811%, 100%)" offset="0.960938"/><stop stop-opacity="1" stop-color="rgb(94.775391%, 47.537231%, 100%)" offset="0.964844"/><stop stop-opacity="1" stop-color="rgb(95.089722%, 47.355652%, 100%)" offset="0.96875"/><stop stop-opacity="1" stop-color="rgb(95.402527%, 47.172546%, 100%)" offset="0.972656"/><stop stop-opacity="1" stop-color="rgb(95.716858%, 46.990967%, 100%)" offset="0.976562"/><stop stop-opacity="1" stop-color="rgb(96.029663%, 46.809387%, 100%)" offset="0.980469"/><stop stop-opacity="1" stop-color="rgb(96.343994%, 46.627808%, 100%)" offset="0.984375"/><stop stop-opacity="1" stop-color="rgb(96.656799%, 46.444702%, 100%)" offset="0.988281"/><stop stop-opacity="1" stop-color="rgb(96.97113%, 46.263123%, 100%)" offset="0.992188"/><stop stop-opacity="1" stop-color="rgb(97.285461%, 46.081543%, 100%)" offset="0.996094"/><stop stop-opacity="1" stop-color="rgb(97.599792%, 45.899963%, 100%)" offset="1"/></linearGradient></defs><g clip-path="url(#id1)"><g clip-path="url(#id2)"><path fill="url(#id3)" d="M 21.757812 107.800781 L 21.757812 292.34375 L 353.292969 292.34375 L 353.292969 107.800781 Z M 21.757812 107.800781 " fill-rule="nonzero"/></g></g></svg>