<svg xmlns="http://www.w3.org/2000/svg" xmlns:xlink="http://www.w3.org/1999/xlink" width="500" zoomAndPan="magnify" viewBox="0 0 375 374.999991" height="500" preserveAspectRatio="xMidYMid meet" version="1.0"><defs><clipPath id="id1"><path d="M 15 123.636719 L 346 123.636719 L 346 251 L 15 251 Z M 15 123.636719 " clip-rule="nonzero"/></clipPath><clipPath id="id2"><path d="M 15.492188 172.097656 L 15.5625 171.84375 L 15.652344 171.601562 L 15.761719 171.367188 L 15.890625 171.148438 L 16.027344 170.933594 L 16.1875 170.742188 L 16.359375 170.550781 L 16.542969 170.378906 L 16.742188 170.222656 L 16.957031 170.082031 L 17.175781 169.953125 L 17.410156 169.84375 L 17.652344 169.753906 L 17.90625 169.683594 L 18.160156 169.628906 L 18.429688 169.597656 L 18.695312 169.589844 L 21.046875 169.589844 L 21.316406 169.574219 L 21.585938 169.539062 L 21.839844 169.492188 L 22.09375 169.417969 L 22.335938 169.328125 L 22.570312 169.21875 L 22.789062 169.09375 L 23 168.949219 L 23.199219 168.792969 L 23.386719 168.621094 L 23.558594 168.433594 L 23.714844 168.234375 L 23.855469 168.023438 L 23.984375 167.804688 L 24.09375 167.570312 L 24.183594 167.328125 L 24.253906 167.074219 L 24.308594 166.820312 L 24.34375 166.550781 L 24.347656 166.285156 L 24.34375 166.167969 L 24.328125 166.050781 L 24.308594 165.941406 L 24.28125 165.824219 L 24.253906 165.714844 L 24.183594 165.496094 L 24.144531 165.390625 L 24.101562 165.28125 L 24.054688 165.179688 L 24 165.074219 L 23.945312 164.980469 L 23.882812 164.882812 L 23.820312 164.789062 L 23.75 164.691406 L 23.683594 164.601562 L 23.605469 164.511719 L 23.523438 164.429688 L 23.449219 164.347656 L 23.359375 164.273438 L 23.269531 164.175781 L 23.171875 164.09375 L 22.96875 163.929688 L 22.863281 163.851562 L 22.753906 163.785156 L 22.644531 163.714844 L 22.535156 163.652344 L 22.300781 163.542969 L 22.183594 163.496094 L 22.058594 163.453125 L 21.941406 163.414062 L 21.8125 163.378906 L 21.5625 163.324219 L 21.433594 163.308594 L 21.304688 163.289062 L 21.179688 163.28125 L 21.046875 163.277344 L 18.695312 163.277344 L 18.429688 163.269531 L 18.160156 163.234375 L 17.90625 163.179688 L 17.652344 163.109375 L 17.410156 163.023438 L 17.175781 162.910156 L 16.957031 162.78125 L 16.742188 162.644531 L 16.542969 162.484375 L 16.359375 162.3125 L 16.1875 162.121094 L 16.027344 161.929688 L 15.890625 161.714844 L 15.761719 161.496094 L 15.652344 161.261719 L 15.5625 161.023438 L 15.492188 160.769531 L 15.4375 160.515625 L 15.402344 160.246094 L 15.394531 159.976562 L 15.394531 133.785156 L 37.875 133.785156 L 37.875 123.976562 L 345.992188 123.976562 L 345.992188 173.15625 L 340.605469 180.257812 L 340.367188 180.574219 L 340.144531 180.894531 L 339.933594 181.226562 L 339.734375 181.554688 L 339.546875 181.898438 L 339.375 182.242188 L 339.210938 182.585938 L 339.058594 182.945312 L 338.929688 183.292969 L 338.804688 183.65625 L 338.6875 184.015625 L 338.59375 184.386719 L 338.503906 184.75 L 338.425781 185.121094 L 338.363281 185.492188 L 338.316406 185.863281 L 338.28125 186.242188 L 338.253906 186.613281 L 338.242188 186.988281 L 338.242188 187.359375 L 338.253906 187.738281 L 338.28125 188.109375 L 338.316406 188.488281 L 338.363281 188.859375 L 338.425781 189.230469 L 338.503906 189.601562 L 338.59375 189.964844 L 338.6875 190.328125 L 338.796875 190.691406 L 338.921875 191.050781 L 339.058594 191.40625 L 339.203125 191.757812 L 339.367188 192.101562 L 339.539062 192.445312 L 339.726562 192.78125 L 339.925781 193.117188 L 340.132812 193.441406 L 340.351562 193.761719 L 340.59375 194.078125 L 340.832031 194.386719 L 345.992188 200.597656 L 345.992188 250.800781 L 37.875 250.800781 L 37.875 239.371094 L 15.394531 239.371094 L 15.394531 172.886719 L 15.402344 172.617188 L 15.4375 172.351562 Z M 44.484375 244.191406 L 339.382812 244.191406 L 339.382812 203.078125 L 335.710938 198.585938 L 335.324219 198.097656 L 334.953125 197.597656 L 334.609375 197.089844 L 334.28125 196.574219 L 333.964844 196.042969 L 333.675781 195.507812 L 333.40625 194.972656 L 333.152344 194.421875 L 332.917969 193.867188 L 332.707031 193.308594 L 332.511719 192.738281 L 332.335938 192.167969 L 332.175781 191.597656 L 332.046875 191.015625 L 331.921875 190.429688 L 331.824219 189.847656 L 331.75 189.261719 L 331.6875 188.671875 L 331.648438 188.082031 L 331.632812 187.492188 L 331.625 186.902344 L 331.648438 186.308594 L 331.6875 185.710938 L 331.742188 185.128906 L 331.820312 184.539062 L 331.914062 183.953125 L 332.03125 183.371094 L 332.167969 182.785156 L 332.320312 182.207031 L 332.5 181.636719 L 332.691406 181.066406 L 332.90625 180.511719 L 333.140625 179.949219 L 333.394531 179.398438 L 333.660156 178.855469 L 333.949219 178.320312 L 334.265625 177.792969 L 334.597656 177.269531 L 334.949219 176.761719 L 335.320312 176.257812 L 339.382812 170.875 L 339.382812 130.582031 L 44.484375 130.582031 Z M 325.871094 224.214844 L 326.714844 224.574219 L 327.484375 225.046875 L 328.167969 225.636719 L 328.757812 226.324219 L 329.238281 227.09375 L 329.589844 227.941406 L 329.816406 228.839844 L 329.894531 229.792969 L 329.816406 230.75 L 329.589844 231.65625 L 329.238281 232.492188 L 328.757812 233.261719 L 328.167969 233.949219 L 327.484375 234.542969 L 326.714844 235.015625 L 325.871094 235.371094 L 324.960938 235.597656 L 324.007812 235.675781 L 323.058594 235.597656 L 322.148438 235.371094 L 321.304688 235.015625 L 320.535156 234.542969 L 319.847656 233.949219 L 319.261719 233.261719 L 318.78125 232.492188 L 318.421875 231.65625 L 318.203125 230.75 L 318.128906 229.792969 L 318.203125 228.839844 L 318.421875 227.941406 L 318.78125 227.09375 L 319.261719 226.324219 L 319.847656 225.636719 L 320.535156 225.046875 L 321.304688 224.574219 L 322.148438 224.214844 L 323.058594 223.996094 L 324.007812 223.914062 L 324.960938 223.996094 Z M 22.003906 144.453125 L 26.960938 144.453125 L 27.5 144.496094 L 28.007812 144.625 L 28.480469 144.824219 L 28.914062 145.09375 L 29.300781 145.421875 L 29.628906 145.804688 L 29.898438 146.238281 L 30.097656 146.714844 L 30.230469 147.222656 L 30.269531 147.757812 L 30.230469 148.292969 L 30.097656 148.800781 L 29.898438 149.277344 L 29.628906 149.707031 L 29.300781 150.09375 L 28.914062 150.421875 L 28.480469 150.691406 L 28.007812 150.890625 L 27.5 151.011719 L 26.960938 151.0625 L 22.003906 151.0625 L 22.003906 156.722656 L 22.210938 156.742188 L 22.597656 156.796875 L 22.980469 156.867188 L 23.351562 156.949219 L 23.730469 157.046875 L 24.09375 157.15625 L 24.460938 157.277344 L 24.816406 157.421875 L 25.167969 157.574219 L 25.519531 157.738281 L 25.855469 157.925781 L 26.191406 158.117188 L 26.515625 158.324219 L 26.832031 158.542969 L 27.148438 158.777344 L 27.445312 159.015625 L 27.738281 159.277344 L 28.019531 159.546875 L 28.296875 159.828125 L 28.550781 160.117188 L 28.796875 160.410156 L 29.039062 160.71875 L 29.257812 161.035156 L 29.464844 161.359375 L 29.65625 161.6875 L 29.84375 162.027344 L 30.007812 162.367188 L 30.160156 162.726562 L 30.304688 163.078125 L 30.429688 163.441406 L 30.539062 163.8125 L 30.632812 164.183594 L 30.71875 164.554688 L 30.785156 164.9375 L 30.832031 165.316406 L 30.875 165.699219 L 30.894531 166.09375 L 30.894531 166.484375 L 30.847656 167.28125 L 30.746094 168.058594 L 30.574219 168.8125 L 30.347656 169.546875 L 30.070312 170.261719 L 29.742188 170.941406 L 29.355469 171.589844 L 28.929688 172.207031 L 28.460938 172.789062 L 27.945312 173.339844 L 27.394531 173.839844 L 26.804688 174.308594 L 26.179688 174.71875 L 25.523438 175.089844 L 24.835938 175.414062 L 24.121094 175.683594 L 23.386719 175.902344 L 22.625 176.054688 L 22.003906 176.136719 L 22.003906 182.035156 L 26.960938 182.035156 L 27.5 182.078125 L 28.007812 182.207031 L 28.480469 182.40625 L 28.914062 182.675781 L 29.300781 183.003906 L 29.628906 183.390625 L 29.898438 183.824219 L 30.097656 184.296875 L 30.230469 184.804688 L 30.269531 185.339844 L 30.230469 185.875 L 30.097656 186.386719 L 29.898438 186.859375 L 29.628906 187.292969 L 29.300781 187.675781 L 28.914062 188.007812 L 28.480469 188.273438 L 28.007812 188.472656 L 27.5 188.597656 L 26.960938 188.644531 L 22.003906 188.644531 L 22.003906 195.351562 L 26.960938 195.351562 L 27.5 195.390625 L 28.007812 195.515625 L 28.480469 195.714844 L 28.914062 195.980469 L 29.300781 196.3125 L 29.628906 196.695312 L 29.898438 197.128906 L 30.097656 197.601562 L 30.230469 198.113281 L 30.269531 198.648438 L 30.230469 199.183594 L 30.097656 199.691406 L 29.898438 200.164062 L 29.628906 200.597656 L 29.300781 200.984375 L 28.914062 201.3125 L 28.480469 201.585938 L 28.007812 201.785156 L 27.5 201.910156 L 26.960938 201.953125 L 22.003906 201.953125 L 22.003906 208.691406 L 26.960938 208.691406 L 27.5 208.730469 L 28.007812 208.855469 L 28.480469 209.0625 L 28.914062 209.328125 L 29.300781 209.660156 L 29.628906 210.042969 L 29.898438 210.476562 L 30.097656 210.949219 L 30.230469 211.460938 L 30.269531 211.996094 L 30.230469 212.53125 L 30.097656 213.039062 L 29.898438 213.511719 L 29.628906 213.945312 L 29.300781 214.332031 L 28.914062 214.660156 L 28.480469 214.929688 L 28.007812 215.128906 L 27.5 215.25 L 26.960938 215.300781 L 22.003906 215.300781 L 22.003906 221.996094 L 26.960938 221.996094 L 27.5 222.046875 L 28.007812 222.167969 L 28.480469 222.367188 L 28.914062 222.636719 L 29.300781 222.964844 L 29.628906 223.351562 L 29.898438 223.785156 L 30.097656 224.257812 L 30.230469 224.765625 L 30.269531 225.300781 L 30.230469 225.835938 L 30.097656 226.347656 L 29.898438 226.820312 L 29.628906 227.253906 L 29.300781 227.636719 L 28.914062 227.96875 L 28.480469 228.234375 L 28.007812 228.433594 L 27.5 228.566406 L 26.960938 228.605469 L 22.003906 228.605469 L 22.003906 232.769531 L 37.875 232.769531 L 37.875 140.394531 L 22.003906 140.394531 Z M 71.597656 230.488281 L 71.597656 143.167969 L 310.617188 143.167969 L 310.722656 230.488281 Z M 78.308594 223.886719 L 304.105469 223.886719 L 304.105469 149.769531 L 78.207031 149.769531 Z M 164.328125 199.988281 L 165.082031 200.460938 L 165.695312 201.113281 L 166.128906 201.910156 L 166.34375 202.824219 L 166.355469 202.941406 L 166.363281 203.050781 L 166.363281 203.277344 L 166.355469 203.394531 L 166.34375 203.503906 L 166.308594 204.445312 L 166.039062 205.3125 L 165.566406 206.066406 L 164.910156 206.683594 L 164.113281 207.117188 L 163.199219 207.332031 L 162.257812 207.296875 L 161.390625 207.027344 L 160.636719 206.546875 L 160.015625 205.894531 L 159.582031 205.097656 L 159.371094 204.183594 L 159.363281 204.074219 L 159.355469 203.957031 L 159.355469 203.730469 L 159.363281 203.621094 L 159.371094 203.503906 L 159.402344 202.570312 L 159.671875 201.699219 L 160.152344 200.941406 L 160.808594 200.332031 L 161.605469 199.898438 L 162.519531 199.683594 L 163.453125 199.710938 Z M 221.332031 166.574219 L 221.5625 166.585938 L 221.789062 166.59375 L 222.007812 166.609375 L 222.234375 166.621094 L 222.460938 166.640625 L 222.679688 166.664062 L 222.910156 166.691406 L 223.136719 166.71875 L 223.355469 166.746094 L 223.582031 166.78125 L 223.800781 166.8125 L 224.023438 166.855469 L 224.242188 166.894531 L 224.460938 166.9375 L 224.683594 166.984375 L 224.902344 167.035156 L 225.121094 167.089844 L 225.34375 167.144531 L 225.5625 167.207031 L 225.777344 167.261719 L 225.996094 167.328125 L 226.210938 167.390625 L 226.421875 167.460938 L 226.636719 167.535156 L 226.847656 167.605469 L 227.0625 167.6875 L 227.273438 167.761719 L 227.480469 167.84375 L 227.695312 167.933594 L 227.902344 168.015625 L 228.105469 168.105469 L 228.3125 168.203125 L 228.519531 168.296875 L 228.726562 168.394531 L 228.925781 168.496094 L 227.542969 172.660156 L 227.363281 172.5625 L 227.191406 172.472656 L 227.015625 172.390625 L 226.839844 172.300781 L 226.664062 172.21875 L 226.484375 172.144531 L 226.304688 172.0625 L 226.125 171.988281 L 225.941406 171.910156 L 225.761719 171.84375 L 225.578125 171.773438 L 225.398438 171.703125 L 225.210938 171.644531 L 225.027344 171.582031 L 224.839844 171.519531 L 224.65625 171.457031 L 224.46875 171.402344 L 224.285156 171.355469 L 224.089844 171.300781 L 223.90625 171.25 L 223.714844 171.203125 L 223.527344 171.164062 L 223.335938 171.121094 L 223.140625 171.078125 L 222.949219 171.046875 L 222.566406 170.976562 L 222.371094 170.949219 L 221.988281 170.894531 L 221.792969 170.875 L 221.601562 170.851562 L 221.402344 170.832031 L 221.210938 170.820312 L 221.015625 170.804688 L 220.816406 170.792969 L 220.625 170.785156 L 220.425781 170.777344 L 220.035156 170.777344 L 219.636719 170.785156 L 219.25 170.796875 L 218.878906 170.832031 L 218.515625 170.875 L 218.171875 170.921875 L 217.832031 170.984375 L 217.503906 171.058594 L 217.195312 171.140625 L 216.890625 171.230469 L 216.601562 171.332031 L 216.320312 171.445312 L 216.050781 171.5625 L 215.796875 171.683594 L 215.550781 171.816406 L 215.316406 171.960938 L 215.089844 172.101562 L 214.875 172.261719 L 214.671875 172.417969 L 214.476562 172.585938 L 214.292969 172.757812 L 214.121094 172.925781 L 213.960938 173.105469 L 213.804688 173.292969 L 213.667969 173.476562 L 213.527344 173.667969 L 213.40625 173.863281 L 213.289062 174.0625 L 213.183594 174.261719 L 213.089844 174.460938 L 213 174.664062 L 212.921875 174.863281 L 212.855469 175.070312 L 212.792969 175.277344 L 212.738281 175.484375 L 212.695312 175.683594 L 212.664062 175.886719 L 212.636719 176.085938 L 212.613281 176.292969 L 212.601562 176.492188 L 212.59375 176.683594 L 212.601562 176.960938 L 212.613281 177.226562 L 212.636719 177.488281 L 212.667969 177.742188 L 212.710938 177.992188 L 212.757812 178.230469 L 212.820312 178.472656 L 212.890625 178.699219 L 212.972656 178.925781 L 213.0625 179.144531 L 213.15625 179.359375 L 213.265625 179.5625 L 213.382812 179.769531 L 213.507812 179.976562 L 213.644531 180.167969 L 213.789062 180.359375 L 213.949219 180.554688 L 214.121094 180.738281 L 214.292969 180.917969 L 214.476562 181.09375 L 214.675781 181.273438 L 214.882812 181.445312 L 215.105469 181.617188 L 215.332031 181.78125 L 215.570312 181.949219 L 215.820312 182.113281 L 216.078125 182.277344 L 216.347656 182.433594 L 216.628906 182.59375 L 216.917969 182.75 L 217.222656 182.910156 L 217.539062 183.066406 L 217.859375 183.226562 L 218.191406 183.375 L 218.542969 183.535156 L 218.890625 183.691406 L 219.265625 183.84375 L 219.640625 184 L 220.035156 184.160156 L 220.433594 184.316406 L 220.921875 184.511719 L 221.402344 184.710938 L 222.324219 185.109375 L 222.765625 185.3125 L 223.195312 185.527344 L 223.609375 185.738281 L 224.023438 185.953125 L 224.414062 186.171875 L 224.800781 186.398438 L 225.164062 186.625 L 225.527344 186.859375 L 225.871094 187.09375 L 226.210938 187.339844 L 226.527344 187.585938 L 226.835938 187.835938 L 227.136719 188.097656 L 227.417969 188.355469 L 227.695312 188.625 L 227.957031 188.898438 L 228.203125 189.179688 L 228.4375 189.46875 L 228.65625 189.757812 L 228.871094 190.058594 L 229.070312 190.363281 L 229.253906 190.679688 L 229.425781 191 L 229.585938 191.332031 L 229.738281 191.660156 L 229.867188 192.003906 L 229.992188 192.363281 L 230.101562 192.71875 L 230.199219 193.089844 L 230.28125 193.460938 L 230.355469 193.84375 L 230.410156 194.242188 L 230.457031 194.640625 L 230.488281 195.054688 L 230.507812 195.480469 L 230.515625 195.90625 L 230.507812 196.347656 L 230.480469 196.777344 L 230.4375 197.210938 L 230.375 197.636719 L 230.300781 198.0625 L 230.203125 198.484375 L 230.09375 198.902344 L 229.964844 199.3125 L 229.8125 199.726562 L 229.652344 200.125 L 229.46875 200.523438 L 229.269531 200.914062 L 229.054688 201.292969 L 228.820312 201.671875 L 228.566406 202.035156 L 228.300781 202.398438 L 228.019531 202.75 L 227.707031 203.085938 L 227.390625 203.414062 L 227.054688 203.738281 L 226.699219 204.046875 L 226.324219 204.34375 L 225.933594 204.632812 L 225.523438 204.90625 L 225.09375 205.160156 L 224.65625 205.40625 L 224.195312 205.640625 L 223.714844 205.859375 L 223.21875 206.066406 L 222.703125 206.257812 L 222.171875 206.429688 L 221.621094 206.589844 L 221.058594 206.726562 L 220.472656 206.851562 L 219.867188 206.960938 L 219.25 207.042969 L 218.617188 207.109375 L 217.957031 207.164062 L 217.289062 207.191406 L 216.597656 207.207031 L 216.335938 207.207031 L 215.820312 207.191406 L 215.558594 207.179688 L 215.296875 207.164062 L 215.042969 207.152344 L 214.78125 207.132812 L 214.527344 207.105469 L 214.265625 207.078125 L 214.011719 207.050781 L 213.753906 207.015625 L 213.5 206.980469 L 213.238281 206.9375 L 212.984375 206.898438 L 212.730469 206.851562 L 212.484375 206.800781 L 211.976562 206.691406 L 211.726562 206.628906 L 211.472656 206.566406 L 211.226562 206.5 L 210.976562 206.429688 L 210.730469 206.363281 L 210.484375 206.285156 L 210.234375 206.210938 L 209.988281 206.128906 L 209.746094 206.039062 L 209.507812 205.957031 L 209.257812 205.859375 L 209.019531 205.769531 L 208.785156 205.675781 L 208.542969 205.570312 L 208.300781 205.46875 L 208.070312 205.367188 L 207.835938 205.257812 L 207.132812 204.90625 L 206.90625 204.789062 L 206.679688 204.660156 L 207.800781 200.335938 L 208.015625 200.460938 L 208.226562 200.585938 L 208.441406 200.703125 L 208.652344 200.816406 L 208.867188 200.929688 L 209.085938 201.039062 L 209.308594 201.148438 L 209.527344 201.25 L 209.746094 201.347656 L 209.96875 201.449219 L 210.195312 201.539062 L 210.421875 201.636719 L 210.640625 201.726562 L 210.867188 201.808594 L 211.101562 201.890625 L 211.328125 201.972656 L 211.554688 202.046875 L 211.789062 202.117188 L 212.023438 202.183594 L 212.257812 202.253906 L 212.492188 202.316406 L 212.722656 202.378906 L 212.957031 202.433594 L 213.199219 202.488281 L 213.433594 202.542969 L 213.671875 202.582031 L 213.90625 202.632812 L 214.148438 202.671875 L 214.386719 202.707031 L 214.871094 202.777344 L 215.109375 202.804688 L 215.351562 202.832031 L 215.597656 202.851562 L 215.839844 202.871094 L 216.078125 202.886719 L 216.328125 202.894531 L 216.566406 202.90625 L 216.816406 202.90625 L 217.054688 202.914062 L 217.441406 202.90625 L 217.820312 202.894531 L 218.191406 202.867188 L 218.554688 202.832031 L 218.90625 202.78125 L 219.25 202.726562 L 219.585938 202.667969 L 219.910156 202.597656 L 220.234375 202.515625 L 220.542969 202.417969 L 220.839844 202.324219 L 221.132812 202.210938 L 221.417969 202.097656 L 221.691406 201.972656 L 221.953125 201.84375 L 222.214844 201.699219 L 222.453125 201.546875 L 222.695312 201.394531 L 222.921875 201.230469 L 223.136719 201.058594 L 223.347656 200.878906 L 223.542969 200.695312 L 223.734375 200.503906 L 223.914062 200.304688 L 224.078125 200.097656 L 224.234375 199.882812 L 224.378906 199.664062 L 224.515625 199.4375 L 224.648438 199.203125 L 224.765625 198.96875 L 224.867188 198.722656 L 224.964844 198.476562 L 225.046875 198.222656 L 225.121094 197.960938 L 225.183594 197.699219 L 225.234375 197.429688 L 225.273438 197.15625 L 225.300781 196.875 L 225.320312 196.59375 L 225.320312 196.015625 L 225.308594 195.742188 L 225.289062 195.46875 L 225.261719 195.207031 L 225.226562 194.945312 L 225.175781 194.691406 L 225.121094 194.441406 L 225.0625 194.203125 L 224.992188 193.96875 L 224.910156 193.742188 L 224.820312 193.515625 L 224.722656 193.296875 L 224.613281 193.082031 L 224.503906 192.878906 L 224.375 192.671875 L 224.242188 192.472656 L 224.089844 192.273438 L 223.941406 192.082031 L 223.773438 191.894531 L 223.601562 191.710938 L 223.417969 191.53125 L 223.226562 191.351562 L 223.019531 191.179688 L 222.804688 191.007812 L 222.578125 190.835938 L 222.34375 190.671875 L 222.097656 190.507812 L 221.84375 190.34375 L 221.574219 190.183594 L 221.292969 190.019531 L 221.003906 189.859375 L 220.699219 189.710938 L 220.390625 189.550781 L 220.070312 189.402344 L 219.730469 189.242188 L 219.386719 189.09375 L 219.03125 188.941406 L 218.660156 188.78125 L 218.28125 188.632812 L 217.886719 188.480469 L 217.40625 188.300781 L 216.941406 188.128906 L 216.480469 187.945312 L 216.023438 187.757812 L 215.585938 187.574219 L 215.160156 187.375 L 214.730469 187.175781 L 214.328125 186.976562 L 213.921875 186.761719 L 213.535156 186.550781 L 213.15625 186.332031 L 212.785156 186.109375 L 212.429688 185.882812 L 212.085938 185.644531 L 211.746094 185.402344 L 211.425781 185.164062 L 211.109375 184.910156 L 210.8125 184.652344 L 210.523438 184.386719 L 210.242188 184.117188 L 209.980469 183.84375 L 209.726562 183.5625 L 209.484375 183.273438 L 209.257812 182.976562 L 209.046875 182.675781 L 208.847656 182.367188 L 208.652344 182.050781 L 208.476562 181.734375 L 208.316406 181.40625 L 208.164062 181.066406 L 208.027344 180.726562 L 207.902344 180.375 L 207.800781 180.011719 L 207.703125 179.644531 L 207.621094 179.273438 L 207.558594 178.890625 L 207.503906 178.5 L 207.46875 178.101562 L 207.449219 177.695312 L 207.4375 177.28125 L 207.449219 176.824219 L 207.476562 176.371094 L 207.527344 175.929688 L 207.585938 175.488281 L 207.671875 175.058594 L 207.773438 174.632812 L 207.890625 174.21875 L 208.027344 173.808594 L 208.1875 173.410156 L 208.359375 173.015625 L 208.542969 172.632812 L 208.742188 172.261719 L 208.960938 171.898438 L 209.203125 171.539062 L 209.457031 171.195312 L 209.71875 170.859375 L 210.007812 170.535156 L 210.304688 170.222656 L 210.613281 169.917969 L 210.941406 169.628906 L 211.289062 169.347656 L 211.644531 169.082031 L 212.007812 168.820312 L 212.394531 168.578125 L 212.792969 168.34375 L 213.207031 168.125 L 213.625 167.925781 L 214.058594 167.734375 L 214.511719 167.554688 L 214.972656 167.390625 L 215.441406 167.238281 L 215.929688 167.101562 L 216.425781 166.984375 L 216.933594 166.875 L 217.449219 166.785156 L 217.976562 166.71875 L 218.519531 166.65625 L 219.070312 166.613281 L 219.628906 166.585938 L 220.199219 166.582031 L 220.425781 166.574219 L 220.652344 166.574219 L 220.878906 166.566406 L 221.105469 166.574219 Z M 189 166.582031 L 189.226562 166.585938 L 189.453125 166.59375 L 189.675781 166.609375 L 190.355469 166.667969 L 190.574219 166.691406 L 190.800781 166.71875 L 191.023438 166.75 L 191.25 166.785156 L 191.6875 166.855469 L 191.910156 166.894531 L 192.128906 166.945312 L 192.347656 166.992188 L 192.570312 167.039062 L 192.789062 167.089844 L 193.007812 167.148438 L 193.230469 167.207031 L 193.441406 167.265625 L 193.664062 167.328125 L 193.875 167.398438 L 194.089844 167.464844 L 194.300781 167.535156 L 194.515625 167.609375 L 194.726562 167.6875 L 194.941406 167.761719 L 195.148438 167.84375 L 195.359375 167.933594 L 195.980469 168.203125 L 196.1875 168.296875 L 196.394531 168.394531 L 196.597656 168.496094 L 195.175781 172.660156 L 195.003906 172.5625 L 194.824219 172.472656 L 194.652344 172.390625 L 194.472656 172.300781 L 194.300781 172.21875 L 194.125 172.144531 L 193.945312 172.0625 L 193.765625 171.988281 L 193.585938 171.910156 L 193.410156 171.84375 L 193.222656 171.773438 L 193.042969 171.703125 L 192.859375 171.644531 L 192.671875 171.582031 L 192.488281 171.519531 L 192.300781 171.457031 L 192.117188 171.402344 L 191.929688 171.355469 L 191.742188 171.300781 L 191.558594 171.25 L 191.367188 171.203125 L 191.179688 171.164062 L 190.796875 171.078125 L 190.609375 171.046875 L 190.417969 171.011719 L 190.222656 170.976562 L 189.648438 170.894531 L 189.453125 170.875 L 189.261719 170.851562 L 189.070312 170.832031 L 188.871094 170.820312 L 188.675781 170.804688 L 188.484375 170.792969 L 188.285156 170.785156 L 188.09375 170.777344 L 187.699219 170.777344 L 187.300781 170.785156 L 186.917969 170.796875 L 186.539062 170.832031 L 186.175781 170.875 L 185.824219 170.921875 L 185.488281 170.984375 L 185.15625 171.058594 L 184.839844 171.140625 L 184.539062 171.230469 L 184.25 171.332031 L 183.964844 171.445312 L 183.699219 171.5625 L 183.4375 171.683594 L 183.191406 171.816406 L 182.957031 171.960938 L 182.730469 172.101562 L 182.515625 172.261719 L 182.308594 172.417969 L 182.117188 172.585938 L 181.929688 172.757812 L 181.757812 172.925781 L 181.59375 173.105469 L 181.441406 173.292969 L 181.296875 173.476562 L 181.167969 173.667969 L 181.039062 173.863281 L 180.925781 174.0625 L 180.816406 174.261719 L 180.722656 174.460938 L 180.636719 174.664062 L 180.554688 174.863281 L 180.488281 175.070312 L 180.425781 175.277344 L 180.371094 175.484375 L 180.328125 175.683594 L 180.292969 175.886719 L 180.265625 176.085938 L 180.246094 176.292969 L 180.234375 176.492188 L 180.234375 176.960938 L 180.246094 177.226562 L 180.273438 177.488281 L 180.300781 177.742188 L 180.34375 177.992188 L 180.398438 178.230469 L 180.453125 178.472656 L 180.527344 178.699219 L 180.605469 178.925781 L 180.695312 179.144531 L 180.789062 179.359375 L 180.898438 179.5625 L 181.015625 179.769531 L 181.148438 179.976562 L 181.285156 180.167969 L 181.429688 180.359375 L 181.585938 180.554688 L 181.753906 180.738281 L 181.929688 180.917969 L 182.117188 181.09375 L 182.316406 181.273438 L 182.523438 181.445312 L 182.742188 181.617188 L 182.96875 181.78125 L 183.210938 181.949219 L 183.464844 182.113281 L 183.726562 182.277344 L 183.996094 182.433594 L 184.277344 182.59375 L 184.566406 182.75 L 184.875 182.910156 L 185.183594 183.066406 L 185.515625 183.226562 L 185.84375 183.375 L 186.195312 183.535156 L 186.550781 183.691406 L 186.921875 183.84375 L 187.300781 184 L 187.695312 184.160156 L 188.097656 184.316406 L 188.585938 184.511719 L 189.070312 184.710938 L 189.53125 184.910156 L 189.984375 185.109375 L 190.421875 185.3125 L 190.851562 185.527344 L 191.269531 185.738281 L 191.667969 185.953125 L 192.058594 186.171875 L 192.4375 186.398438 L 192.804688 186.625 L 193.160156 186.859375 L 193.496094 187.09375 L 193.828125 187.339844 L 194.144531 187.585938 L 194.445312 187.835938 L 194.734375 188.097656 L 195.015625 188.355469 L 195.285156 188.625 L 195.539062 188.898438 L 195.78125 189.179688 L 196.007812 189.46875 L 196.226562 189.757812 L 196.425781 190.058594 L 196.621094 190.363281 L 196.804688 190.679688 L 196.96875 191 L 197.121094 191.332031 L 197.265625 191.660156 L 197.398438 192.003906 L 197.511719 192.363281 L 197.625 192.71875 L 197.714844 193.089844 L 197.796875 193.460938 L 197.863281 193.84375 L 197.917969 194.242188 L 197.960938 194.640625 L 197.996094 195.054688 L 198.007812 195.480469 L 198.015625 195.90625 L 198.007812 196.347656 L 197.980469 196.777344 L 197.941406 197.210938 L 197.886719 197.636719 L 197.808594 198.0625 L 197.71875 198.484375 L 197.609375 198.902344 L 197.484375 199.3125 L 197.347656 199.726562 L 197.191406 200.125 L 197.019531 200.523438 L 196.824219 200.914062 L 196.613281 201.292969 L 196.394531 201.671875 L 196.144531 202.035156 L 195.882812 202.398438 L 195.609375 202.75 L 195.3125 203.085938 L 195.003906 203.414062 L 194.671875 203.738281 L 194.328125 204.046875 L 193.964844 204.34375 L 193.582031 204.632812 L 193.179688 204.90625 L 192.769531 205.160156 L 192.328125 205.40625 L 191.882812 205.640625 L 191.40625 205.859375 L 190.917969 206.066406 L 190.417969 206.257812 L 189.894531 206.429688 L 189.351562 206.589844 L 188.792969 206.726562 L 188.214844 206.851562 L 187.617188 206.960938 L 187.007812 207.042969 L 186.375 207.109375 L 185.71875 207.164062 L 185.054688 207.191406 L 184.367188 207.207031 L 184.105469 207.207031 L 183.582031 207.191406 L 183.328125 207.1875 L 183.066406 207.171875 L 182.804688 207.152344 L 182.550781 207.132812 L 182.289062 207.109375 L 182.035156 207.082031 L 181.773438 207.054688 L 181.519531 207.023438 L 181.265625 206.988281 L 181.011719 206.945312 L 180.753906 206.898438 L 180.5 206.855469 L 180.246094 206.800781 L 179.992188 206.753906 L 179.738281 206.699219 L 179.488281 206.636719 L 179.242188 206.574219 L 178.988281 206.507812 L 178.742188 206.4375 L 178.492188 206.367188 L 178.246094 206.292969 L 177.996094 206.210938 L 177.757812 206.136719 L 177.507812 206.046875 L 177.269531 205.957031 L 177.027344 205.867188 L 176.789062 205.769531 L 176.546875 205.675781 L 176.304688 205.578125 L 176.074219 205.476562 L 175.832031 205.367188 L 175.597656 205.257812 L 175.128906 205.03125 L 174.902344 204.90625 L 174.675781 204.789062 L 174.441406 204.660156 L 175.570312 200.335938 L 175.777344 200.460938 L 175.984375 200.578125 L 176.195312 200.695312 L 176.410156 200.8125 L 176.621094 200.921875 L 176.835938 201.03125 L 177.050781 201.132812 L 177.269531 201.238281 L 177.480469 201.339844 L 177.703125 201.4375 L 177.921875 201.53125 L 178.148438 201.621094 L 178.371094 201.710938 L 178.597656 201.792969 L 178.816406 201.875 L 179.042969 201.953125 L 179.496094 202.101562 L 179.730469 202.171875 L 179.957031 202.242188 L 180.191406 202.300781 L 180.417969 202.363281 L 180.886719 202.472656 L 181.121094 202.523438 L 181.355469 202.570312 L 181.585938 202.617188 L 181.820312 202.660156 L 182.0625 202.699219 L 182.296875 202.734375 L 182.535156 202.761719 L 182.769531 202.796875 L 183.011719 202.816406 L 183.25 202.84375 L 183.492188 202.859375 L 183.734375 202.878906 L 183.972656 202.894531 L 184.214844 202.898438 L 184.453125 202.90625 L 184.695312 202.914062 L 185.082031 202.90625 L 185.457031 202.894531 L 185.832031 202.867188 L 186.195312 202.832031 L 186.546875 202.78125 L 186.894531 202.726562 L 187.234375 202.667969 L 187.554688 202.597656 L 187.878906 202.515625 L 188.1875 202.417969 L 188.492188 202.324219 L 189.070312 202.097656 L 189.335938 201.972656 L 189.605469 201.84375 L 189.859375 201.699219 L 190.109375 201.546875 L 190.339844 201.394531 L 190.566406 201.230469 L 190.789062 201.058594 L 190.996094 200.878906 L 191.1875 200.695312 L 191.378906 200.503906 L 191.550781 200.304688 L 191.722656 200.097656 L 191.875 199.882812 L 192.027344 199.664062 L 192.164062 199.4375 L 192.289062 199.203125 L 192.402344 198.96875 L 192.507812 198.722656 L 192.605469 198.476562 L 192.6875 198.222656 L 192.753906 197.960938 L 192.816406 197.699219 L 192.871094 197.429688 L 192.90625 197.15625 L 192.933594 196.875 L 192.953125 196.59375 L 192.960938 196.304688 L 192.953125 196.015625 L 192.941406 195.742188 L 192.921875 195.46875 L 192.859375 194.945312 L 192.808594 194.691406 L 192.761719 194.441406 L 192.691406 194.203125 L 192.625 193.96875 L 192.460938 193.515625 L 192.355469 193.296875 L 192.253906 193.082031 L 192.136719 192.878906 L 192.003906 192.671875 L 191.875 192.472656 L 191.730469 192.273438 L 191.570312 192.082031 L 191.40625 191.894531 L 191.234375 191.710938 L 191.050781 191.53125 L 190.855469 191.351562 L 190.652344 191.179688 L 190.4375 191.007812 L 190.210938 190.835938 L 189.976562 190.671875 L 189.730469 190.507812 L 189.476562 190.34375 L 189.207031 190.183594 L 188.925781 190.019531 L 188.636719 189.859375 L 188.339844 189.710938 L 188.023438 189.550781 L 187.699219 189.402344 L 187.371094 189.242188 L 187.019531 189.09375 L 186.664062 188.941406 L 186.296875 188.78125 L 185.914062 188.632812 L 185.519531 188.480469 L 185.03125 188.300781 L 184.550781 188.128906 L 184.082031 187.945312 L 183.621094 187.757812 L 183.175781 187.574219 L 182.734375 187.375 L 182.308594 187.175781 L 181.898438 186.976562 L 181.5 186.761719 L 181.105469 186.550781 L 180.722656 186.332031 L 180.355469 186.109375 L 180 185.882812 L 179.65625 185.644531 L 179.316406 185.402344 L 178.996094 185.164062 L 178.6875 184.910156 L 178.390625 184.652344 L 178.109375 184.386719 L 177.832031 184.117188 L 177.570312 183.84375 L 177.324219 183.5625 L 177.089844 183.273438 L 176.871094 182.976562 L 176.65625 182.675781 L 176.464844 182.367188 L 176.277344 182.050781 L 176.105469 181.734375 L 175.949219 181.40625 L 175.804688 181.066406 L 175.671875 180.726562 L 175.558594 180.375 L 175.453125 180.011719 L 175.355469 179.644531 L 175.28125 179.273438 L 175.21875 178.890625 L 175.171875 178.5 L 175.136719 178.101562 L 175.117188 177.695312 L 175.109375 177.28125 L 175.117188 176.824219 L 175.144531 176.371094 L 175.191406 175.929688 L 175.253906 175.488281 L 175.335938 175.058594 L 175.441406 174.632812 L 175.5625 174.21875 L 175.695312 173.808594 L 175.851562 173.410156 L 176.023438 173.015625 L 176.210938 172.632812 L 176.417969 172.261719 L 176.636719 171.898438 L 176.871094 171.539062 L 177.125 171.195312 L 177.394531 170.859375 L 177.675781 170.535156 L 177.96875 170.222656 L 178.28125 169.917969 L 178.609375 169.628906 L 178.953125 169.347656 L 179.3125 169.082031 L 179.675781 168.820312 L 180.0625 168.578125 L 180.460938 168.34375 L 180.871094 168.125 L 181.292969 167.925781 L 181.730469 167.734375 L 182.179688 167.554688 L 182.640625 167.390625 L 183.105469 167.238281 L 183.59375 167.101562 L 184.089844 166.984375 L 184.597656 166.875 L 185.113281 166.785156 L 185.644531 166.71875 L 186.1875 166.65625 L 186.738281 166.613281 L 187.296875 166.585938 L 187.867188 166.582031 L 188.09375 166.574219 L 188.773438 166.574219 Z M 254.402344 166.695312 L 254.871094 166.722656 L 255.332031 166.757812 L 255.792969 166.808594 L 256.253906 166.855469 L 256.707031 166.921875 L 257.167969 166.992188 L 257.621094 167.074219 L 258.066406 167.164062 L 258.523438 167.261719 L 258.96875 167.371094 L 259.414062 167.488281 L 260.296875 167.746094 L 260.734375 167.898438 L 261.167969 168.050781 L 261.601562 168.207031 L 262.027344 168.378906 L 262.457031 168.558594 L 263.292969 168.941406 L 263.707031 169.148438 L 264.121094 169.363281 L 264.925781 169.816406 L 265.324219 170.054688 L 265.714844 170.304688 L 266.105469 170.558594 L 266.484375 170.824219 L 266.863281 171.101562 L 267.242188 171.375 L 267.605469 171.671875 L 267.921875 171.964844 L 268.21875 172.273438 L 268.511719 172.589844 L 268.800781 172.914062 L 269.078125 173.238281 L 269.351562 173.574219 L 269.613281 173.910156 L 269.859375 174.253906 L 270.109375 174.597656 L 270.34375 174.953125 L 270.570312 175.3125 L 270.789062 175.675781 L 271.003906 176.046875 L 271.203125 176.417969 L 271.394531 176.796875 L 271.582031 177.179688 L 271.753906 177.566406 L 271.917969 177.949219 L 272.074219 178.347656 L 272.21875 178.738281 L 272.355469 179.144531 L 272.488281 179.542969 L 272.605469 179.949219 L 272.714844 180.359375 L 272.816406 180.773438 L 272.90625 181.183594 L 272.988281 181.605469 L 273.066406 182.023438 L 273.128906 182.441406 L 273.175781 182.867188 L 273.21875 183.292969 L 273.25 183.71875 L 273.273438 184.144531 L 273.285156 184.578125 L 273.285156 185.003906 L 273.277344 185.4375 L 273.265625 185.871094 L 273.277344 186.332031 L 273.285156 186.789062 L 273.285156 187.242188 L 273.273438 187.703125 L 273.246094 188.15625 L 273.21875 188.617188 L 273.175781 189.070312 L 273.121094 189.523438 L 273.058594 189.972656 L 272.984375 190.417969 L 272.902344 190.863281 L 272.8125 191.3125 L 272.714844 191.75 L 272.597656 192.191406 L 272.480469 192.621094 L 272.351562 193.054688 L 272.214844 193.488281 L 272.070312 193.914062 L 271.910156 194.339844 L 271.746094 194.757812 L 271.566406 195.179688 L 271.382812 195.589844 L 271.1875 195.996094 L 270.988281 196.402344 L 270.777344 196.804688 L 270.554688 197.199219 L 270.328125 197.589844 L 270.09375 197.980469 L 269.847656 198.359375 L 269.59375 198.738281 L 269.332031 199.109375 L 269.054688 199.480469 L 268.492188 200.191406 L 268.191406 200.542969 L 267.886719 200.886719 L 267.578125 201.222656 L 267.179688 201.554688 L 266.773438 201.871094 L 266.367188 202.179688 L 265.957031 202.480469 L 265.535156 202.769531 L 265.109375 203.050781 L 264.675781 203.324219 L 264.242188 203.585938 L 263.804688 203.839844 L 263.355469 204.089844 L 262.910156 204.320312 L 262.457031 204.542969 L 261.996094 204.761719 L 261.535156 204.96875 L 261.066406 205.160156 L 260.589844 205.34375 L 260.117188 205.523438 L 259.644531 205.6875 L 259.160156 205.847656 L 258.679688 205.992188 L 258.191406 206.128906 L 257.703125 206.257812 L 257.207031 206.367188 L 256.714844 206.480469 L 256.21875 206.574219 L 255.714844 206.65625 L 255.214844 206.734375 L 254.710938 206.800781 L 254.203125 206.855469 L 253.703125 206.898438 L 253.191406 206.933594 L 252.683594 206.953125 L 252.167969 206.964844 L 251.660156 206.964844 L 251.144531 206.960938 L 250.632812 206.9375 L 250.117188 206.90625 L 248.867188 206.90625 L 248.613281 206.898438 L 248.367188 206.898438 L 248.109375 206.890625 L 247.863281 206.882812 L 247.617188 206.878906 L 247.359375 206.871094 L 247.113281 206.863281 L 246.859375 206.855469 L 246.613281 206.84375 L 246.355469 206.835938 L 246.109375 206.824219 L 245.863281 206.808594 L 245.609375 206.800781 L 245.359375 206.789062 L 245.105469 206.773438 L 244.859375 206.753906 L 244.609375 206.738281 L 244.355469 206.726562 L 244.109375 206.707031 L 243.859375 206.691406 L 243.605469 206.671875 L 243.359375 206.652344 L 243.113281 206.628906 L 242.855469 206.609375 L 242.609375 206.589844 L 242.363281 206.5625 L 242.109375 206.539062 L 241.859375 206.519531 L 241.613281 206.492188 L 241.363281 206.464844 L 241.109375 206.4375 L 240.863281 206.410156 L 240.765625 167.570312 L 241.054688 167.527344 L 241.34375 167.488281 L 241.640625 167.445312 L 241.929688 167.40625 L 242.21875 167.371094 L 242.511719 167.328125 L 242.800781 167.292969 L 243.097656 167.261719 L 243.386719 167.226562 L 243.683594 167.191406 L 243.972656 167.15625 L 244.265625 167.128906 L 244.554688 167.101562 L 245.148438 167.046875 L 245.4375 167.019531 L 245.730469 166.992188 L 246.027344 166.972656 L 246.316406 166.949219 L 246.613281 166.929688 L 246.902344 166.910156 L 247.195312 166.890625 L 247.492188 166.867188 L 247.789062 166.855469 L 248.078125 166.839844 L 248.371094 166.828125 L 248.667969 166.8125 L 248.957031 166.800781 L 249.253906 166.785156 L 249.546875 166.78125 L 250.140625 166.765625 L 250.429688 166.757812 L 250.722656 166.75 L 251.019531 166.75 L 251.316406 166.746094 L 251.609375 166.746094 L 252.070312 166.71875 L 252.539062 166.691406 L 253.007812 166.683594 L 253.472656 166.675781 L 253.941406 166.683594 Z M 125.335938 186.398438 L 125.460938 186.757812 L 125.578125 187.121094 L 125.695312 187.476562 L 125.8125 187.828125 L 125.929688 188.183594 L 126.046875 188.535156 L 126.15625 188.886719 L 126.273438 189.234375 L 126.601562 190.265625 L 126.714844 190.609375 L 126.816406 190.945312 L 126.925781 191.285156 L 127.03125 191.621094 L 127.132812 191.957031 L 127.234375 192.285156 L 127.339844 192.621094 L 127.433594 192.945312 L 127.539062 193.277344 L 127.632812 193.605469 L 127.730469 193.929688 L 127.828125 194.25 L 127.921875 194.574219 L 128.011719 194.898438 L 128.109375 195.210938 L 128.199219 195.527344 L 128.289062 195.851562 L 128.378906 196.160156 L 128.460938 196.476562 L 128.550781 196.792969 L 128.878906 198.027344 L 128.953125 198.332031 L 129.039062 198.640625 L 129.113281 198.941406 L 129.1875 199.246094 L 129.265625 198.949219 L 129.339844 198.648438 L 129.421875 198.34375 L 129.585938 197.742188 L 129.667969 197.4375 L 129.757812 197.128906 L 129.929688 196.511719 L 130.019531 196.203125 L 130.117188 195.886719 L 130.207031 195.578125 L 130.300781 195.261719 L 130.398438 194.9375 L 130.496094 194.621094 L 130.589844 194.300781 L 130.6875 193.976562 L 130.789062 193.652344 L 130.894531 193.324219 L 130.996094 193 L 131.101562 192.671875 L 131.210938 192.335938 L 131.3125 192.003906 L 131.421875 191.667969 L 131.535156 191.332031 L 131.644531 190.996094 L 131.761719 190.652344 L 131.871094 190.308594 L 131.988281 189.964844 L 132.105469 189.613281 L 132.222656 189.269531 L 132.34375 188.921875 L 132.460938 188.5625 L 132.585938 188.210938 L 132.710938 187.855469 L 132.839844 187.492188 L 132.964844 187.132812 L 133.09375 186.769531 L 133.21875 186.398438 L 133.347656 186.035156 L 140.390625 166.945312 L 147.003906 166.945312 L 149.453125 206.410156 L 144.558594 206.410156 L 143.566406 189.203125 L 143.546875 188.789062 L 143.527344 188.378906 L 143.503906 187.953125 L 143.464844 187.101562 L 143.445312 186.667969 L 143.421875 186.234375 L 143.402344 185.800781 L 143.382812 185.363281 L 143.359375 184.921875 L 143.339844 184.480469 L 143.320312 184.035156 L 143.300781 183.597656 L 143.277344 183.148438 L 143.238281 182.257812 L 143.214844 181.808594 L 143.195312 181.363281 L 143.183594 180.925781 L 143.160156 180.476562 L 143.148438 180.039062 L 143.128906 179.589844 L 143.113281 179.152344 L 143.101562 178.71875 L 143.085938 178.277344 L 143.070312 177.847656 L 143.058594 177.414062 L 143.042969 176.988281 L 143.039062 176.5625 L 143.03125 176.144531 L 143.015625 175.730469 L 143.011719 175.316406 L 143.011719 174.90625 L 143.003906 174.5 L 142.996094 174.101562 L 142.996094 172.941406 L 143.003906 172.5625 L 143.003906 172.191406 L 142.804688 172.191406 L 142.707031 172.542969 L 142.605469 172.894531 L 142.5 173.242188 L 142.296875 173.945312 L 142.191406 174.292969 L 142.082031 174.652344 L 141.972656 175.003906 L 141.863281 175.359375 L 141.75 175.714844 L 141.640625 176.074219 L 141.523438 176.4375 L 141.414062 176.796875 L 141.0625 177.886719 L 140.941406 178.257812 L 140.824219 178.621094 L 140.574219 179.363281 L 140.453125 179.742188 L 140.320312 180.113281 L 140.199219 180.492188 L 140.066406 180.867188 L 139.9375 181.246094 L 139.804688 181.632812 L 139.675781 182.007812 L 139.542969 182.394531 L 139.40625 182.785156 L 139.277344 183.171875 L 139.140625 183.5625 L 139 183.953125 L 138.855469 184.34375 L 138.71875 184.742188 L 138.285156 185.9375 L 137.996094 186.75 L 137.847656 187.15625 L 130.875 206.3125 L 127 206.3125 L 120.621094 187.386719 L 120.484375 186.976562 L 120.34375 186.558594 L 120.207031 186.144531 L 120.070312 185.738281 L 119.941406 185.328125 L 119.800781 184.921875 L 119.671875 184.515625 L 119.546875 184.113281 L 119.417969 183.707031 L 119.167969 182.910156 L 119.046875 182.511719 L 118.921875 182.113281 L 118.796875 181.722656 L 118.679688 181.328125 L 118.5625 180.9375 L 118.449219 180.546875 L 118.332031 180.160156 L 118.214844 179.777344 L 118.105469 179.390625 L 117.992188 179.007812 L 117.875 178.628906 L 117.765625 178.25 L 117.65625 177.875 L 117.554688 177.496094 L 117.445312 177.125 L 117.339844 176.746094 L 117.230469 176.375 L 117.128906 176.011719 L 117.023438 175.640625 L 116.921875 175.277344 L 116.816406 174.914062 L 116.722656 174.550781 L 116.617188 174.191406 L 116.515625 173.835938 L 116.417969 173.476562 L 116.324219 173.121094 L 116.21875 172.761719 L 116.125 172.414062 L 116.027344 172.0625 L 116.027344 172.8125 L 116.019531 173.1875 L 116.011719 173.582031 L 116.007812 173.972656 L 116 174.371094 L 115.992188 174.777344 L 115.980469 175.1875 L 115.972656 175.601562 L 115.957031 176.019531 L 115.945312 176.445312 L 115.921875 176.871094 L 115.910156 177.296875 L 115.890625 177.738281 L 115.875 178.167969 L 115.855469 178.609375 L 115.835938 179.054688 L 115.8125 179.5 L 115.792969 179.949219 L 115.773438 180.402344 L 115.75 180.847656 L 115.722656 181.308594 L 115.703125 181.761719 L 115.675781 182.214844 L 115.65625 182.675781 L 115.628906 183.136719 L 115.601562 183.589844 L 115.578125 184.050781 L 115.550781 184.511719 L 115.523438 184.96875 L 115.496094 185.429688 L 115.476562 185.890625 L 115.449219 186.34375 L 115.421875 186.804688 L 115.367188 187.710938 L 115.347656 188.15625 L 115.320312 188.609375 L 115.292969 189.058594 L 115.269531 189.503906 L 114.210938 206.410156 L 109.253906 206.410156 L 111.996094 166.945312 L 118.605469 166.945312 L 125.222656 186.035156 Z M 250.945312 170.804688 L 250.722656 170.8125 L 250.503906 170.820312 L 250.277344 170.824219 L 250.058594 170.832031 L 249.828125 170.847656 L 249.609375 170.859375 L 249.390625 170.875 L 249.164062 170.886719 L 248.941406 170.90625 L 248.722656 170.929688 L 248.503906 170.949219 L 248.277344 170.96875 L 248.054688 170.996094 L 247.617188 171.050781 L 247.394531 171.078125 L 247.175781 171.113281 L 246.957031 171.140625 L 246.734375 171.183594 L 246.515625 171.21875 L 246.296875 171.257812 L 246.074219 171.292969 L 245.855469 171.332031 L 245.855469 202.480469 L 246.046875 202.507812 L 246.234375 202.527344 L 246.425781 202.554688 L 246.617188 202.578125 L 246.804688 202.597656 L 246.996094 202.617188 L 247.1875 202.640625 L 247.375 202.652344 L 247.566406 202.671875 L 247.761719 202.6875 L 247.953125 202.699219 L 248.136719 202.714844 L 248.332031 202.726562 L 248.523438 202.734375 L 248.714844 202.75 L 248.910156 202.753906 L 249.09375 202.761719 L 249.285156 202.769531 L 249.480469 202.777344 L 249.671875 202.78125 L 250.820312 202.78125 L 251.011719 202.777344 L 252.203125 202.753906 L 253.359375 202.679688 L 254.464844 202.554688 L 255.53125 202.382812 L 256.554688 202.15625 L 257.539062 201.890625 L 258.472656 201.574219 L 259.375 201.210938 L 260.226562 200.796875 L 261.03125 200.34375 L 261.796875 199.84375 L 262.515625 199.300781 L 263.199219 198.710938 L 263.832031 198.070312 L 264.414062 197.390625 L 264.957031 196.667969 L 265.453125 195.90625 L 265.898438 195.101562 L 266.304688 194.25 L 266.664062 193.363281 L 266.972656 192.4375 L 267.234375 191.46875 L 267.453125 190.457031 L 267.621094 189.40625 L 267.742188 188.324219 L 267.820312 187.195312 L 267.839844 186.035156 L 267.820312 185.011719 L 267.757812 184.023438 L 267.648438 183.058594 L 267.496094 182.125 L 267.304688 181.226562 L 267.0625 180.355469 L 266.78125 179.523438 L 266.457031 178.71875 L 266.085938 177.949219 L 265.671875 177.214844 L 265.21875 176.511719 L 264.71875 175.855469 L 264.167969 175.230469 L 263.582031 174.636719 L 262.945312 174.089844 L 262.269531 173.582031 L 261.546875 173.113281 L 260.777344 172.6875 L 259.964844 172.300781 L 259.105469 171.960938 L 258.207031 171.65625 L 257.257812 171.402344 L 256.265625 171.191406 L 255.226562 171.023438 L 254.140625 170.90625 L 253.015625 170.832031 L 251.835938 170.8125 L 251.617188 170.804688 Z M 59.074219 138.773438 L 59.921875 139.128906 L 60.691406 139.609375 L 61.371094 140.195312 L 61.964844 140.882812 L 62.445312 141.648438 L 62.796875 142.496094 L 63.023438 143.402344 L 63.097656 144.355469 L 63.023438 145.304688 L 62.796875 146.210938 L 62.445312 147.058594 L 61.964844 147.824219 L 61.371094 148.511719 L 60.691406 149.097656 L 59.921875 149.578125 L 59.074219 149.933594 L 58.167969 150.15625 L 57.210938 150.230469 L 56.257812 150.15625 L 55.355469 149.933594 L 54.507812 149.578125 L 53.738281 149.097656 L 53.050781 148.511719 L 52.46875 147.824219 L 51.984375 147.058594 L 51.628906 146.210938 L 51.410156 145.304688 L 51.332031 144.355469 L 51.410156 143.402344 L 51.628906 142.496094 L 51.984375 141.648438 L 52.46875 140.882812 L 53.050781 140.195312 L 53.738281 139.609375 L 54.507812 139.128906 L 55.355469 138.773438 L 56.257812 138.550781 L 57.210938 138.476562 L 58.167969 138.550781 Z M 59.074219 138.773438 " clip-rule="nonzero"/></clipPath><linearGradient x1="250" gradientTransform="matrix(0.68765, 0, 0, 0.686961, 8.780995, 15.64792)" y1="157.689981" x2="250" gradientUnits="userSpaceOnUse" y2="342.309978" id="id3"><stop stop-opacity="1" stop-color="rgb(17.298889%, 92.498779%, 100%)" offset="0"/><stop stop-opacity="1" stop-color="rgb(17.611694%, 92.3172%, 100%)" offset="0.00390625"/><stop stop-opacity="1" stop-color="rgb(17.926025%, 92.13562%, 100%)" offset="0.0078125"/><stop stop-opacity="1" stop-color="rgb(18.238831%, 91.952515%, 100%)" offset="0.0117187"/><stop stop-opacity="1" stop-color="rgb(18.553162%, 91.770935%, 100%)" offset="0.015625"/><stop stop-opacity="1" stop-color="rgb(18.867493%, 91.589355%, 100%)" offset="0.0195312"/><stop stop-opacity="1" stop-color="rgb(19.181824%, 91.407776%, 100%)" offset="0.0234375"/><stop stop-opacity="1" stop-color="rgb(19.494629%, 91.22467%, 100%)" offset="0.0273437"/><stop stop-opacity="1" stop-color="rgb(19.80896%, 91.043091%, 100%)" offset="0.03125"/><stop stop-opacity="1" stop-color="rgb(20.121765%, 90.859985%, 100%)" offset="0.0351563"/><stop stop-opacity="1" stop-color="rgb(20.436096%, 90.678406%, 100%)" offset="0.0390625"/><stop stop-opacity="1" stop-color="rgb(20.748901%, 90.496826%, 100%)" offset="0.0429687"/><stop stop-opacity="1" stop-color="rgb(21.063232%, 90.315247%, 100%)" offset="0.046875"/><stop stop-opacity="1" stop-color="rgb(21.376038%, 90.132141%, 100%)" offset="0.0507813"/><stop stop-opacity="1" stop-color="rgb(21.690369%, 89.950562%, 100%)" offset="0.0546875"/><stop stop-opacity="1" stop-color="rgb(22.003174%, 89.768982%, 100%)" offset="0.0585937"/><stop stop-opacity="1" stop-color="rgb(22.317505%, 89.587402%, 100%)" offset="0.0625"/><stop stop-opacity="1" stop-color="rgb(22.63031%, 89.404297%, 100%)" offset="0.0664062"/><stop stop-opacity="1" stop-color="rgb(22.944641%, 89.222717%, 100%)" offset="0.0703125"/><stop stop-opacity="1" stop-color="rgb(23.258972%, 89.039612%, 100%)" offset="0.0742188"/><stop stop-opacity="1" stop-color="rgb(23.573303%, 88.858032%, 100%)" offset="0.078125"/><stop stop-opacity="1" stop-color="rgb(23.886108%, 88.676453%, 100%)" offset="0.0820312"/><stop stop-opacity="1" stop-color="rgb(24.200439%, 88.494873%, 100%)" offset="0.0859375"/><stop stop-opacity="1" stop-color="rgb(24.513245%, 88.311768%, 100%)" offset="0.0898438"/><stop stop-opacity="1" stop-color="rgb(24.827576%, 88.130188%, 100%)" offset="0.09375"/><stop stop-opacity="1" stop-color="rgb(25.140381%, 87.948608%, 100%)" offset="0.0976562"/><stop stop-opacity="1" stop-color="rgb(25.454712%, 87.767029%, 100%)" offset="0.101562"/><stop stop-opacity="1" stop-color="rgb(25.767517%, 87.583923%, 100%)" offset="0.105469"/><stop stop-opacity="1" stop-color="rgb(26.081848%, 87.402344%, 100%)" offset="0.109375"/><stop stop-opacity="1" stop-color="rgb(26.394653%, 87.219238%, 100%)" offset="0.113281"/><stop stop-opacity="1" stop-color="rgb(26.708984%, 87.037659%, 100%)" offset="0.117188"/><stop stop-opacity="1" stop-color="rgb(27.02179%, 86.856079%, 100%)" offset="0.121094"/><stop stop-opacity="1" stop-color="rgb(27.336121%, 86.6745%, 100%)" offset="0.125"/><stop stop-opacity="1" stop-color="rgb(27.650452%, 86.491394%, 100%)" offset="0.128906"/><stop stop-opacity="1" stop-color="rgb(27.964783%, 86.309814%, 100%)" offset="0.132812"/><stop stop-opacity="1" stop-color="rgb(28.277588%, 86.128235%, 100%)" offset="0.136719"/><stop stop-opacity="1" stop-color="rgb(28.591919%, 85.946655%, 100%)" offset="0.140625"/><stop stop-opacity="1" stop-color="rgb(28.904724%, 85.76355%, 100%)" offset="0.144531"/><stop stop-opacity="1" stop-color="rgb(29.219055%, 85.58197%, 100%)" offset="0.148438"/><stop stop-opacity="1" stop-color="rgb(29.53186%, 85.398865%, 100%)" offset="0.152344"/><stop stop-opacity="1" stop-color="rgb(29.846191%, 85.217285%, 100%)" offset="0.15625"/><stop stop-opacity="1" stop-color="rgb(30.158997%, 85.035706%, 100%)" offset="0.160156"/><stop stop-opacity="1" stop-color="rgb(30.473328%, 84.854126%, 100%)" offset="0.164062"/><stop stop-opacity="1" stop-color="rgb(30.786133%, 84.671021%, 100%)" offset="0.167969"/><stop stop-opacity="1" stop-color="rgb(31.100464%, 84.489441%, 100%)" offset="0.171875"/><stop stop-opacity="1" stop-color="rgb(31.413269%, 84.307861%, 100%)" offset="0.175781"/><stop stop-opacity="1" stop-color="rgb(31.7276%, 84.126282%, 100%)" offset="0.179687"/><stop stop-opacity="1" stop-color="rgb(32.040405%, 83.943176%, 100%)" offset="0.183594"/><stop stop-opacity="1" stop-color="rgb(32.354736%, 83.761597%, 100%)" offset="0.1875"/><stop stop-opacity="1" stop-color="rgb(32.669067%, 83.580017%, 100%)" offset="0.191406"/><stop stop-opacity="1" stop-color="rgb(32.983398%, 83.398438%, 100%)" offset="0.195312"/><stop stop-opacity="1" stop-color="rgb(33.296204%, 83.215332%, 100%)" offset="0.199219"/><stop stop-opacity="1" stop-color="rgb(33.610535%, 83.033752%, 100%)" offset="0.203125"/><stop stop-opacity="1" stop-color="rgb(33.92334%, 82.850647%, 100%)" offset="0.207031"/><stop stop-opacity="1" stop-color="rgb(34.237671%, 82.669067%, 100%)" offset="0.210938"/><stop stop-opacity="1" stop-color="rgb(34.550476%, 82.487488%, 100%)" offset="0.214844"/><stop stop-opacity="1" stop-color="rgb(34.864807%, 82.305908%, 100%)" offset="0.21875"/><stop stop-opacity="1" stop-color="rgb(35.177612%, 82.122803%, 100%)" offset="0.222656"/><stop stop-opacity="1" stop-color="rgb(35.491943%, 81.941223%, 100%)" offset="0.226562"/><stop stop-opacity="1" stop-color="rgb(35.804749%, 81.759644%, 100%)" offset="0.230469"/><stop stop-opacity="1" stop-color="rgb(36.11908%, 81.578064%, 100%)" offset="0.234375"/><stop stop-opacity="1" stop-color="rgb(36.431885%, 81.394958%, 100%)" offset="0.238281"/><stop stop-opacity="1" stop-color="rgb(36.746216%, 81.213379%, 100%)" offset="0.242187"/><stop stop-opacity="1" stop-color="rgb(37.060547%, 81.030273%, 100%)" offset="0.246094"/><stop stop-opacity="1" stop-color="rgb(37.374878%, 80.848694%, 100%)" offset="0.25"/><stop stop-opacity="1" stop-color="rgb(37.687683%, 80.667114%, 100%)" offset="0.253906"/><stop stop-opacity="1" stop-color="rgb(38.002014%, 80.485535%, 100%)" offset="0.257812"/><stop stop-opacity="1" stop-color="rgb(38.314819%, 80.302429%, 100%)" offset="0.261719"/><stop stop-opacity="1" stop-color="rgb(38.62915%, 80.12085%, 100%)" offset="0.265625"/><stop stop-opacity="1" stop-color="rgb(38.941956%, 79.93927%, 100%)" offset="0.269531"/><stop stop-opacity="1" stop-color="rgb(39.256287%, 79.75769%, 100%)" offset="0.273438"/><stop stop-opacity="1" stop-color="rgb(39.569092%, 79.574585%, 100%)" offset="0.277344"/><stop stop-opacity="1" stop-color="rgb(39.883423%, 79.393005%, 100%)" offset="0.28125"/><stop stop-opacity="1" stop-color="rgb(40.196228%, 79.2099%, 100%)" offset="0.285156"/><stop stop-opacity="1" stop-color="rgb(40.510559%, 79.02832%, 100%)" offset="0.289063"/><stop stop-opacity="1" stop-color="rgb(40.823364%, 78.846741%, 100%)" offset="0.292969"/><stop stop-opacity="1" stop-color="rgb(41.137695%, 78.665161%, 100%)" offset="0.296875"/><stop stop-opacity="1" stop-color="rgb(41.452026%, 78.482056%, 100%)" offset="0.300781"/><stop stop-opacity="1" stop-color="rgb(41.766357%, 78.300476%, 100%)" offset="0.304688"/><stop stop-opacity="1" stop-color="rgb(42.079163%, 78.118896%, 100%)" offset="0.308594"/><stop stop-opacity="1" stop-color="rgb(42.393494%, 77.937317%, 100%)" offset="0.3125"/><stop stop-opacity="1" stop-color="rgb(42.706299%, 77.754211%, 100%)" offset="0.316406"/><stop stop-opacity="1" stop-color="rgb(43.02063%, 77.572632%, 100%)" offset="0.320312"/><stop stop-opacity="1" stop-color="rgb(43.333435%, 77.389526%, 100%)" offset="0.324219"/><stop stop-opacity="1" stop-color="rgb(43.647766%, 77.207947%, 100%)" offset="0.328125"/><stop stop-opacity="1" stop-color="rgb(43.960571%, 77.026367%, 100%)" offset="0.332031"/><stop stop-opacity="1" stop-color="rgb(44.274902%, 76.844788%, 100%)" offset="0.335937"/><stop stop-opacity="1" stop-color="rgb(44.587708%, 76.661682%, 100%)" offset="0.339844"/><stop stop-opacity="1" stop-color="rgb(44.902039%, 76.480103%, 100%)" offset="0.34375"/><stop stop-opacity="1" stop-color="rgb(45.214844%, 76.298523%, 100%)" offset="0.347656"/><stop stop-opacity="1" stop-color="rgb(45.529175%, 76.116943%, 100%)" offset="0.351562"/><stop stop-opacity="1" stop-color="rgb(45.84198%, 75.933838%, 100%)" offset="0.355469"/><stop stop-opacity="1" stop-color="rgb(46.156311%, 75.752258%, 100%)" offset="0.359375"/><stop stop-opacity="1" stop-color="rgb(46.470642%, 75.569153%, 100%)" offset="0.363281"/><stop stop-opacity="1" stop-color="rgb(46.784973%, 75.387573%, 100%)" offset="0.367188"/><stop stop-opacity="1" stop-color="rgb(47.097778%, 75.205994%, 100%)" offset="0.371094"/><stop stop-opacity="1" stop-color="rgb(47.412109%, 75.024414%, 100%)" offset="0.375"/><stop stop-opacity="1" stop-color="rgb(47.724915%, 74.841309%, 100%)" offset="0.378906"/><stop stop-opacity="1" stop-color="rgb(48.039246%, 74.659729%, 100%)" offset="0.382812"/><stop stop-opacity="1" stop-color="rgb(48.352051%, 74.478149%, 100%)" offset="0.386719"/><stop stop-opacity="1" stop-color="rgb(48.666382%, 74.29657%, 100%)" offset="0.390625"/><stop stop-opacity="1" stop-color="rgb(48.979187%, 74.113464%, 100%)" offset="0.394531"/><stop stop-opacity="1" stop-color="rgb(49.293518%, 73.931885%, 100%)" offset="0.398438"/><stop stop-opacity="1" stop-color="rgb(49.606323%, 73.750305%, 100%)" offset="0.402344"/><stop stop-opacity="1" stop-color="rgb(49.920654%, 73.568726%, 100%)" offset="0.40625"/><stop stop-opacity="1" stop-color="rgb(50.233459%, 73.38562%, 100%)" offset="0.410156"/><stop stop-opacity="1" stop-color="rgb(50.547791%, 73.204041%, 100%)" offset="0.414063"/><stop stop-opacity="1" stop-color="rgb(50.862122%, 73.020935%, 100%)" offset="0.417969"/><stop stop-opacity="1" stop-color="rgb(51.176453%, 72.839355%, 100%)" offset="0.421875"/><stop stop-opacity="1" stop-color="rgb(51.489258%, 72.657776%, 100%)" offset="0.425781"/><stop stop-opacity="1" stop-color="rgb(51.803589%, 72.476196%, 100%)" offset="0.429688"/><stop stop-opacity="1" stop-color="rgb(52.116394%, 72.293091%, 100%)" offset="0.433594"/><stop stop-opacity="1" stop-color="rgb(52.430725%, 72.111511%, 100%)" offset="0.4375"/><stop stop-opacity="1" stop-color="rgb(52.74353%, 71.929932%, 100%)" offset="0.441406"/><stop stop-opacity="1" stop-color="rgb(53.057861%, 71.748352%, 100%)" offset="0.445312"/><stop stop-opacity="1" stop-color="rgb(53.370667%, 71.565247%, 100%)" offset="0.449219"/><stop stop-opacity="1" stop-color="rgb(53.684998%, 71.383667%, 100%)" offset="0.453125"/><stop stop-opacity="1" stop-color="rgb(53.997803%, 71.200562%, 100%)" offset="0.457031"/><stop stop-opacity="1" stop-color="rgb(54.312134%, 71.018982%, 100%)" offset="0.460937"/><stop stop-opacity="1" stop-color="rgb(54.624939%, 70.837402%, 100%)" offset="0.464844"/><stop stop-opacity="1" stop-color="rgb(54.93927%, 70.655823%, 100%)" offset="0.46875"/><stop stop-opacity="1" stop-color="rgb(55.253601%, 70.472717%, 100%)" offset="0.472656"/><stop stop-opacity="1" stop-color="rgb(55.567932%, 70.291138%, 100%)" offset="0.476562"/><stop stop-opacity="1" stop-color="rgb(55.880737%, 70.109558%, 100%)" offset="0.480469"/><stop stop-opacity="1" stop-color="rgb(56.195068%, 69.927979%, 100%)" offset="0.484375"/><stop stop-opacity="1" stop-color="rgb(56.507874%, 69.744873%, 100%)" offset="0.488281"/><stop stop-opacity="1" stop-color="rgb(56.822205%, 69.563293%, 100%)" offset="0.492188"/><stop stop-opacity="1" stop-color="rgb(57.13501%, 69.380188%, 100%)" offset="0.496094"/><stop stop-opacity="1" stop-color="rgb(57.449341%, 69.198608%, 100%)" offset="0.5"/><stop stop-opacity="1" stop-color="rgb(57.762146%, 69.017029%, 100%)" offset="0.503906"/><stop stop-opacity="1" stop-color="rgb(58.076477%, 68.835449%, 100%)" offset="0.507812"/><stop stop-opacity="1" stop-color="rgb(58.389282%, 68.652344%, 100%)" offset="0.511719"/><stop stop-opacity="1" stop-color="rgb(58.703613%, 68.470764%, 100%)" offset="0.515625"/><stop stop-opacity="1" stop-color="rgb(59.016418%, 68.289185%, 100%)" offset="0.519531"/><stop stop-opacity="1" stop-color="rgb(59.33075%, 68.107605%, 100%)" offset="0.523438"/><stop stop-opacity="1" stop-color="rgb(59.643555%, 67.9245%, 100%)" offset="0.527344"/><stop stop-opacity="1" stop-color="rgb(59.957886%, 67.74292%, 100%)" offset="0.53125"/><stop stop-opacity="1" stop-color="rgb(60.272217%, 67.559814%, 100%)" offset="0.535156"/><stop stop-opacity="1" stop-color="rgb(60.586548%, 67.378235%, 100%)" offset="0.539062"/><stop stop-opacity="1" stop-color="rgb(60.899353%, 67.196655%, 100%)" offset="0.542969"/><stop stop-opacity="1" stop-color="rgb(61.213684%, 67.015076%, 100%)" offset="0.546875"/><stop stop-opacity="1" stop-color="rgb(61.526489%, 66.83197%, 100%)" offset="0.550781"/><stop stop-opacity="1" stop-color="rgb(61.84082%, 66.650391%, 100%)" offset="0.554688"/><stop stop-opacity="1" stop-color="rgb(62.153625%, 66.468811%, 100%)" offset="0.558594"/><stop stop-opacity="1" stop-color="rgb(62.467957%, 66.287231%, 100%)" offset="0.5625"/><stop stop-opacity="1" stop-color="rgb(62.780762%, 66.104126%, 100%)" offset="0.566406"/><stop stop-opacity="1" stop-color="rgb(63.095093%, 65.922546%, 100%)" offset="0.570313"/><stop stop-opacity="1" stop-color="rgb(63.407898%, 65.739441%, 100%)" offset="0.574219"/><stop stop-opacity="1" stop-color="rgb(63.722229%, 65.557861%, 100%)" offset="0.578125"/><stop stop-opacity="1" stop-color="rgb(64.035034%, 65.376282%, 100%)" offset="0.582031"/><stop stop-opacity="1" stop-color="rgb(64.349365%, 65.194702%, 100%)" offset="0.585938"/><stop stop-opacity="1" stop-color="rgb(64.663696%, 65.011597%, 100%)" offset="0.589844"/><stop stop-opacity="1" stop-color="rgb(64.978027%, 64.830017%, 100%)" offset="0.59375"/><stop stop-opacity="1" stop-color="rgb(65.290833%, 64.648438%, 100%)" offset="0.597656"/><stop stop-opacity="1" stop-color="rgb(65.605164%, 64.466858%, 100%)" offset="0.601563"/><stop stop-opacity="1" stop-color="rgb(65.917969%, 64.283752%, 100%)" offset="0.605469"/><stop stop-opacity="1" stop-color="rgb(66.2323%, 64.102173%, 100%)" offset="0.609375"/><stop stop-opacity="1" stop-color="rgb(66.545105%, 63.920593%, 100%)" offset="0.613281"/><stop stop-opacity="1" stop-color="rgb(66.859436%, 63.739014%, 100%)" offset="0.617188"/><stop stop-opacity="1" stop-color="rgb(67.172241%, 63.555908%, 100%)" offset="0.621094"/><stop stop-opacity="1" stop-color="rgb(67.486572%, 63.374329%, 100%)" offset="0.625"/><stop stop-opacity="1" stop-color="rgb(67.799377%, 63.191223%, 100%)" offset="0.628906"/><stop stop-opacity="1" stop-color="rgb(68.113708%, 63.009644%, 100%)" offset="0.632812"/><stop stop-opacity="1" stop-color="rgb(68.426514%, 62.828064%, 100%)" offset="0.636719"/><stop stop-opacity="1" stop-color="rgb(68.740845%, 62.646484%, 100%)" offset="0.640625"/><stop stop-opacity="1" stop-color="rgb(69.055176%, 62.463379%, 100%)" offset="0.644531"/><stop stop-opacity="1" stop-color="rgb(69.369507%, 62.281799%, 100%)" offset="0.648437"/><stop stop-opacity="1" stop-color="rgb(69.682312%, 62.10022%, 100%)" offset="0.652344"/><stop stop-opacity="1" stop-color="rgb(69.996643%, 61.91864%, 100%)" offset="0.65625"/><stop stop-opacity="1" stop-color="rgb(70.309448%, 61.735535%, 100%)" offset="0.660156"/><stop stop-opacity="1" stop-color="rgb(70.623779%, 61.553955%, 100%)" offset="0.664062"/><stop stop-opacity="1" stop-color="rgb(70.936584%, 61.37085%, 100%)" offset="0.667969"/><stop stop-opacity="1" stop-color="rgb(71.250916%, 61.18927%, 100%)" offset="0.671875"/><stop stop-opacity="1" stop-color="rgb(71.563721%, 61.00769%, 100%)" offset="0.675781"/><stop stop-opacity="1" stop-color="rgb(71.878052%, 60.826111%, 100%)" offset="0.679687"/><stop stop-opacity="1" stop-color="rgb(72.190857%, 60.643005%, 100%)" offset="0.683594"/><stop stop-opacity="1" stop-color="rgb(72.505188%, 60.461426%, 100%)" offset="0.6875"/><stop stop-opacity="1" stop-color="rgb(72.817993%, 60.279846%, 100%)" offset="0.691406"/><stop stop-opacity="1" stop-color="rgb(73.132324%, 60.098267%, 100%)" offset="0.695312"/><stop stop-opacity="1" stop-color="rgb(73.445129%, 59.915161%, 100%)" offset="0.699219"/><stop stop-opacity="1" stop-color="rgb(73.75946%, 59.733582%, 100%)" offset="0.703125"/><stop stop-opacity="1" stop-color="rgb(74.073792%, 59.550476%, 100%)" offset="0.707031"/><stop stop-opacity="1" stop-color="rgb(74.388123%, 59.368896%, 100%)" offset="0.710938"/><stop stop-opacity="1" stop-color="rgb(74.700928%, 59.187317%, 100%)" offset="0.714844"/><stop stop-opacity="1" stop-color="rgb(75.015259%, 59.005737%, 100%)" offset="0.71875"/><stop stop-opacity="1" stop-color="rgb(75.328064%, 58.822632%, 100%)" offset="0.722656"/><stop stop-opacity="1" stop-color="rgb(75.642395%, 58.641052%, 100%)" offset="0.726562"/><stop stop-opacity="1" stop-color="rgb(75.9552%, 58.459473%, 100%)" offset="0.730469"/><stop stop-opacity="1" stop-color="rgb(76.269531%, 58.277893%, 100%)" offset="0.734375"/><stop stop-opacity="1" stop-color="rgb(76.582336%, 58.094788%, 100%)" offset="0.738281"/><stop stop-opacity="1" stop-color="rgb(76.896667%, 57.913208%, 100%)" offset="0.742188"/><stop stop-opacity="1" stop-color="rgb(77.209473%, 57.730103%, 100%)" offset="0.746094"/><stop stop-opacity="1" stop-color="rgb(77.523804%, 57.548523%, 100%)" offset="0.75"/><stop stop-opacity="1" stop-color="rgb(77.836609%, 57.366943%, 100%)" offset="0.753906"/><stop stop-opacity="1" stop-color="rgb(78.15094%, 57.185364%, 100%)" offset="0.757812"/><stop stop-opacity="1" stop-color="rgb(78.465271%, 57.002258%, 100%)" offset="0.761719"/><stop stop-opacity="1" stop-color="rgb(78.779602%, 56.820679%, 100%)" offset="0.765625"/><stop stop-opacity="1" stop-color="rgb(79.092407%, 56.639099%, 100%)" offset="0.769531"/><stop stop-opacity="1" stop-color="rgb(79.406738%, 56.45752%, 100%)" offset="0.773438"/><stop stop-opacity="1" stop-color="rgb(79.719543%, 56.274414%, 100%)" offset="0.777344"/><stop stop-opacity="1" stop-color="rgb(80.033875%, 56.092834%, 100%)" offset="0.78125"/><stop stop-opacity="1" stop-color="rgb(80.34668%, 55.911255%, 100%)" offset="0.785156"/><stop stop-opacity="1" stop-color="rgb(80.661011%, 55.729675%, 100%)" offset="0.789062"/><stop stop-opacity="1" stop-color="rgb(80.973816%, 55.54657%, 100%)" offset="0.792969"/><stop stop-opacity="1" stop-color="rgb(81.288147%, 55.36499%, 100%)" offset="0.796875"/><stop stop-opacity="1" stop-color="rgb(81.600952%, 55.181885%, 100%)" offset="0.800781"/><stop stop-opacity="1" stop-color="rgb(81.915283%, 55.000305%, 100%)" offset="0.804688"/><stop stop-opacity="1" stop-color="rgb(82.228088%, 54.818726%, 100%)" offset="0.808594"/><stop stop-opacity="1" stop-color="rgb(82.542419%, 54.637146%, 100%)" offset="0.8125"/><stop stop-opacity="1" stop-color="rgb(82.85675%, 54.454041%, 100%)" offset="0.816406"/><stop stop-opacity="1" stop-color="rgb(83.171082%, 54.272461%, 100%)" offset="0.820313"/><stop stop-opacity="1" stop-color="rgb(83.483887%, 54.090881%, 100%)" offset="0.824219"/><stop stop-opacity="1" stop-color="rgb(83.798218%, 53.909302%, 100%)" offset="0.828125"/><stop stop-opacity="1" stop-color="rgb(84.111023%, 53.726196%, 100%)" offset="0.832031"/><stop stop-opacity="1" stop-color="rgb(84.425354%, 53.544617%, 100%)" offset="0.835938"/><stop stop-opacity="1" stop-color="rgb(84.738159%, 53.361511%, 100%)" offset="0.839844"/><stop stop-opacity="1" stop-color="rgb(85.05249%, 53.179932%, 100%)" offset="0.84375"/><stop stop-opacity="1" stop-color="rgb(85.365295%, 52.998352%, 100%)" offset="0.847656"/><stop stop-opacity="1" stop-color="rgb(85.679626%, 52.816772%, 100%)" offset="0.851563"/><stop stop-opacity="1" stop-color="rgb(85.992432%, 52.633667%, 100%)" offset="0.855469"/><stop stop-opacity="1" stop-color="rgb(86.306763%, 52.452087%, 100%)" offset="0.859375"/><stop stop-opacity="1" stop-color="rgb(86.619568%, 52.270508%, 100%)" offset="0.863281"/><stop stop-opacity="1" stop-color="rgb(86.933899%, 52.088928%, 100%)" offset="0.867188"/><stop stop-opacity="1" stop-color="rgb(87.246704%, 51.905823%, 100%)" offset="0.871094"/><stop stop-opacity="1" stop-color="rgb(87.561035%, 51.724243%, 100%)" offset="0.875"/><stop stop-opacity="1" stop-color="rgb(87.875366%, 51.541138%, 100%)" offset="0.878906"/><stop stop-opacity="1" stop-color="rgb(88.189697%, 51.359558%, 100%)" offset="0.882812"/><stop stop-opacity="1" stop-color="rgb(88.502502%, 51.177979%, 100%)" offset="0.886719"/><stop stop-opacity="1" stop-color="rgb(88.816833%, 50.996399%, 100%)" offset="0.890625"/><stop stop-opacity="1" stop-color="rgb(89.129639%, 50.813293%, 100%)" offset="0.894531"/><stop stop-opacity="1" stop-color="rgb(89.44397%, 50.631714%, 100%)" offset="0.898437"/><stop stop-opacity="1" stop-color="rgb(89.756775%, 50.450134%, 100%)" offset="0.902344"/><stop stop-opacity="1" stop-color="rgb(90.071106%, 50.268555%, 100%)" offset="0.90625"/><stop stop-opacity="1" stop-color="rgb(90.383911%, 50.085449%, 100%)" offset="0.910156"/><stop stop-opacity="1" stop-color="rgb(90.698242%, 49.90387%, 100%)" offset="0.914062"/><stop stop-opacity="1" stop-color="rgb(91.011047%, 49.720764%, 100%)" offset="0.917969"/><stop stop-opacity="1" stop-color="rgb(91.325378%, 49.539185%, 100%)" offset="0.921875"/><stop stop-opacity="1" stop-color="rgb(91.638184%, 49.357605%, 100%)" offset="0.925781"/><stop stop-opacity="1" stop-color="rgb(91.952515%, 49.176025%, 100%)" offset="0.929687"/><stop stop-opacity="1" stop-color="rgb(92.266846%, 48.99292%, 100%)" offset="0.933594"/><stop stop-opacity="1" stop-color="rgb(92.581177%, 48.81134%, 100%)" offset="0.9375"/><stop stop-opacity="1" stop-color="rgb(92.893982%, 48.629761%, 100%)" offset="0.941406"/><stop stop-opacity="1" stop-color="rgb(93.208313%, 48.448181%, 100%)" offset="0.945312"/><stop stop-opacity="1" stop-color="rgb(93.521118%, 48.265076%, 100%)" offset="0.949219"/><stop stop-opacity="1" stop-color="rgb(93.835449%, 48.083496%, 100%)" offset="0.953125"/><stop stop-opacity="1" stop-color="rgb(94.148254%, 47.900391%, 100%)" offset="0.957031"/><stop stop-opacity="1" stop-color="rgb(94.462585%, 47.718811%, 100%)" offset="0.960938"/><stop stop-opacity="1" stop-color="rgb(94.775391%, 47.537231%, 100%)" offset="0.964844"/><stop stop-opacity="1" stop-color="rgb(95.089722%, 47.355652%, 100%)" offset="0.96875"/><stop stop-opacity="1" stop-color="rgb(95.402527%, 47.172546%, 100%)" offset="0.972656"/><stop stop-opacity="1" stop-color="rgb(95.716858%, 46.990967%, 100%)" offset="0.976562"/><stop stop-opacity="1" stop-color="rgb(96.029663%, 46.809387%, 100%)" offset="0.980469"/><stop stop-opacity="1" stop-color="rgb(96.343994%, 46.627808%, 100%)" offset="0.984375"/><stop stop-opacity="1" stop-color="rgb(96.656799%, 46.444702%, 100%)" offset="0.988281"/><stop stop-opacity="1" stop-color="rgb(96.97113%, 46.263123%, 100%)" offset="0.992188"/><stop stop-opacity="1" stop-color="rgb(97.285461%, 46.081543%, 100%)" offset="0.996094"/><stop stop-opacity="1" stop-color="rgb(97.599792%, 45.899963%, 100%)" offset="1"/></linearGradient></defs><g clip-path="url(#id1)"><g clip-path="url(#id2)"><path fill="url(#id3)" d="M 15.394531 123.976562 L 15.394531 250.800781 L 345.992188 250.800781 L 345.992188 123.976562 Z M 15.394531 123.976562 " fill-rule="nonzero"/></g></g></svg>